<svg id="visual" viewBox="0 0 900 450" width="900" height="450" xmlns="http://www.w3.org/2000/svg" xmlns:xlink="http://www.w3.org/1999/xlink" version="1.1"><path d="M0 87L37.5 78C75 69 150 51 225 46.5C300 42 375 51 450 61.5C525 72 600 84 675 79.5C750 75 825 54 862.5 43.5L900 33L900 0L862.5 0C825 0 750 0 675 0C600 0 525 0 450 0C375 0 300 0 225 0C150 0 75 0 37.5 0L0 0Z" fill="#e2e2ff"></path><path d="M0 231L37.5 222C75 213 150 195 225 199.5C300 204 375 231 450 248.2C525 265.3 600 272.7 675 265.2C750 257.7 825 235.3 862.5 224.2L900 213L900 31L862.5 41.5C825 52 750 73 675 77.5C600 82 525 70 450 59.5C375 49 300 40 225 44.5C150 49 75 67 37.5 76L0 85Z" fill="#aaa7d3"></path><path d="M0 267L37.5 259.5C75 252 150 237 225 242.2C300 247.3 375 272.7 450 289.2C525 305.7 600 313.3 675 309.7C750 306 825 291 862.5 283.5L900 276L900 211L862.5 222.2C825 233.3 750 255.7 675 263.2C600 270.7 525 263.3 450 246.2C375 229 300 202 225 197.5C150 193 75 211 37.5 220L0 229Z" fill="#756fa8"></path><path d="M0 379L37.5 369.3C75 359.7 150 340.3 225 340.3C300 340.3 375 359.7 450 373.8C525 388 600 397 675 391.8C750 386.7 825 367.3 862.5 357.7L900 348L900 274L862.5 281.5C825 289 750 304 675 307.7C600 311.3 525 303.7 450 287.2C375 270.7 300 245.3 225 240.2C150 235 75 250 37.5 257.5L0 265Z" fill="#433b7d"></path><path d="M0 451L37.5 451C75 451 150 451 225 451C300 451 375 451 450 451C525 451 600 451 675 451C750 451 825 451 862.5 451L900 451L900 346L862.5 355.7C825 365.3 750 384.7 675 389.8C600 395 525 386 450 371.8C375 357.7 300 338.3 225 338.3C150 338.3 75 357.7 37.5 367.3L0 377Z" fill="#0b0b53"></path></svg>