<svg xmlns="http://www.w3.org/2000/svg" xmlns:xlink="http://www.w3.org/1999/xlink" version="1.1" width="1000" height="1000" viewBox="0 0 1000 1000" xml:space="preserve">
<desc>Created with Fabric.js 3.5.0</desc>
<defs>
</defs>
<rect x="0" y="0" width="100%" height="100%" fill="#ffffff"/>
<g transform="matrix(4.8652 0 0 4.953 527.0252 495.1925)" id="761039">
<g style="" vector-effect="non-scaling-stroke">
		<g transform="matrix(1 0 0 1 -16.9595 4.5603)">
<path style="stroke: none; stroke-width: 1; stroke-dasharray: none; stroke-linecap: butt; stroke-dashoffset: 0; stroke-linejoin: miter; stroke-miterlimit: 4; is-custom-font: none; font-file-url: none; fill: rgb(132,137,152); fill-rule: nonzero; opacity: 1;" transform=" translate(-108.0405, -129.5602)" d="M 104.268 161.729 C 104.02 161.729 101.563 161.673 99.4708 159.614 C 97.528 157.702 96.543 154.744 96.543 150.822 V 98.3881 C 96.543 97.8376 96.989 97.3915 97.5395 97.3915 C 98.0899 97.3915 98.536 97.8376 98.536 98.3881 V 150.822 C 98.536 154.19 99.3207 156.67 100.868 158.194 C 102.41 159.712 104.226 159.737 104.269 159.737 C 104.27 159.737 104.27 159.737 104.27 159.737 L 118.542 159.736 C 119.092 159.736 119.538 160.183 119.538 160.733 C 119.538 161.283 119.092 161.729 118.542 161.729 H 104.285 C 104.282 161.729 104.276 161.729 104.268 161.729 Z" stroke-linecap="round"/>
</g>
		<g transform="matrix(1 0 0 1 16.6915 35.7325)">
<path style="stroke: none; stroke-width: 1; stroke-dasharray: none; stroke-linecap: butt; stroke-dashoffset: 0; stroke-linejoin: miter; stroke-miterlimit: 4; is-custom-font: none; font-file-url: none; fill: rgb(132,137,152); fill-rule: nonzero; opacity: 1;" transform=" translate(-141.6915, -160.7325)" d="M 147.72 161.729 H 135.664 C 135.113 161.729 134.667 161.283 134.667 160.733 C 134.667 160.183 135.113 159.736 135.664 159.736 H 147.72 C 148.27 159.736 148.716 160.183 148.716 160.733 C 148.716 161.283 148.27 161.729 147.72 161.729 Z" stroke-linecap="round"/>
</g>
		<g transform="matrix(1 0 0 1 -10.637 -70.7997)">
<path style="stroke: none; stroke-width: 1; stroke-dasharray: none; stroke-linecap: butt; stroke-dashoffset: 0; stroke-linejoin: miter; stroke-miterlimit: 4; is-custom-font: none; font-file-url: none; fill: rgb(132,137,152); fill-rule: nonzero; opacity: 1;" transform=" translate(-114.363, -54.2003)" d="M 97.5395 75.4004 C 96.989 75.4004 96.543 74.9543 96.543 74.4039 V 43.9072 C 96.543 39.986 97.528 37.0276 99.4708 35.1159 C 101.639 32.981 104.189 33.0001 104.301 33.0008 L 131.187 33.0001 C 131.737 33.0001 132.183 33.4468 132.183 33.9966 C 132.183 34.5471 131.737 34.9931 131.187 34.9931 H 104.285 C 104.285 34.9931 104.285 34.9931 104.284 34.9931 C 104.188 34.9931 102.392 35.0142 100.839 36.565 C 99.3105 38.0916 98.536 40.5619 98.536 43.9072 V 74.4039 C 98.536 74.9543 98.0899 75.4004 97.5395 75.4004 Z" stroke-linecap="round"/>
</g>
		<g transform="matrix(1 0 0 1 15.6605 -73.2249)">
<path style="stroke: none; stroke-width: 1; stroke-dasharray: none; stroke-linecap: butt; stroke-dashoffset: 0; stroke-linejoin: miter; stroke-miterlimit: 4; is-custom-font: none; font-file-url: none; fill: rgb(132,137,152); fill-rule: nonzero; opacity: 1;" transform=" translate(-140.6605, -51.7751)" d="M 157.484 70.5508 C 156.934 70.5508 156.488 70.1047 156.488 69.5542 V 43.9066 C 156.488 40.539 155.702 38.0585 154.155 36.5351 C 152.602 35.0059 150.745 34.9843 150.754 34.9926 H 123.836 C 123.287 34.9926 122.84 34.5465 122.84 33.996 C 122.84 33.4462 123.287 32.9995 123.836 32.9995 H 150.738 C 150.82 33.0014 153.385 32.981 155.553 35.1154 C 157.496 37.027 158.481 39.9854 158.481 43.9066 V 69.5542 C 158.481 70.1047 158.034 70.5508 157.484 70.5508 Z" stroke-linecap="round"/>
</g>
		<g transform="matrix(1 0 0 1 32.4835 -36.7139)">
<path style="stroke: none; stroke-width: 1; stroke-dasharray: none; stroke-linecap: butt; stroke-dashoffset: 0; stroke-linejoin: miter; stroke-miterlimit: 4; is-custom-font: none; font-file-url: none; fill: rgb(132,137,152); fill-rule: nonzero; opacity: 1;" transform=" translate(-157.4835, -88.2861)" d="M 157.484 91.4746 C 156.933 91.4746 156.487 91.0285 156.487 90.4781 V 86.0942 C 156.487 85.5438 156.933 85.0977 157.484 85.0977 C 158.034 85.0977 158.48 85.5438 158.48 86.0942 V 90.4781 C 158.48 91.0285 158.034 91.4746 157.484 91.4746 Z" stroke-linecap="round"/>
</g>
		<g transform="matrix(1 0 0 1 32.4835 -16.997)">
<path style="stroke: none; stroke-width: 1; stroke-dasharray: none; stroke-linecap: butt; stroke-dashoffset: 0; stroke-linejoin: miter; stroke-miterlimit: 4; is-custom-font: none; font-file-url: none; fill: rgb(132,137,152); fill-rule: nonzero; opacity: 1;" transform=" translate(-157.4835, -108.003)" d="M 157.484 113.793 C 156.933 113.793 156.487 113.347 156.487 112.796 V 103.21 C 156.487 102.659 156.933 102.213 157.484 102.213 C 158.034 102.213 158.48 102.659 158.48 103.21 V 112.796 C 158.48 113.347 158.034 113.793 157.484 113.793 Z" stroke-linecap="round"/>
</g>
		<g transform="matrix(1 0 0 1 2.5132 -27.6355)">
<path style="stroke: none; stroke-width: 1; stroke-dasharray: none; stroke-linecap: butt; stroke-dashoffset: 0; stroke-linejoin: miter; stroke-miterlimit: 4; is-custom-font: none; font-file-url: none; fill: rgb(132,137,152); fill-rule: nonzero; opacity: 1;" transform=" translate(-127.5132, -97.3646)" d="M 146.127 146.585 H 100.412 C 100.082 146.585 99.8145 146.318 99.8145 145.987 V 48.7423 C 99.8145 48.4114 100.082 48.1441 100.412 48.1441 H 154.614 C 154.944 48.1441 155.212 48.4114 155.212 48.7423 V 122.561 C 155.212 122.891 154.944 123.159 154.614 123.159 C 154.284 123.159 154.017 122.891 154.017 122.561 V 49.3399 H 101.01 V 145.389 H 146.127 C 146.457 145.389 146.725 145.657 146.725 145.987 C 146.725 146.318 146.457 146.585 146.127 146.585 Z" stroke-linecap="round"/>
</g>
		<g transform="matrix(1 0 0 1 -39.154 21.1167)">
<path style="stroke: none; stroke-width: 1; stroke-dasharray: none; stroke-linecap: butt; stroke-dashoffset: 0; stroke-linejoin: miter; stroke-miterlimit: 4; is-custom-font: none; font-file-url: none; fill: rgb(132,137,152); fill-rule: nonzero; opacity: 1;" transform=" translate(-85.846, -146.1167)" d="M 71.7973 218.411 C 71.7044 218.411 71.6109 218.395 71.5186 218.361 C 71.1063 218.207 70.8969 217.748 71.0503 217.336 C 71.1928 216.954 85.2047 179.042 80.9602 164.259 C 80.5427 163.522 78.0635 158.788 76.388 147.601 C 75.8261 143.848 75.0854 140.155 74.3695 136.585 C 72.7627 128.576 71.4938 122.249 73.0981 119.442 C 75.1 115.938 78.5771 103.759 78.8399 100.098 C 78.8991 99.2761 78.8749 98.4615 78.8513 97.6744 C 78.7711 94.9883 78.6884 92.2119 82.0986 89.8256 C 83.2142 89.0448 84.7561 86.6667 86.3877 84.1487 C 89.4135 79.4804 92.8422 74.1891 96.5833 73.8404 C 97.9801 73.7118 99.2904 74.2731 100.471 75.514 C 100.613 75.6623 100.692 75.8589 100.692 76.0638 V 91.8727 C 100.692 91.8982 100.69 91.9237 100.688 91.9485 C 99.5494 103.949 86.1745 103.04 86.0421 103.03 C 85.603 102.996 85.276 102.612 85.3097 102.173 C 85.344 101.736 85.7182 101.407 86.1656 101.44 C 86.6524 101.479 98.0845 102.23 99.0976 91.8346 V 76.3941 C 98.3295 75.6674 97.5512 75.3504 96.7316 75.4281 C 93.7598 75.7049 90.4139 80.8676 87.7253 85.016 C 85.932 87.7829 84.3831 90.1731 83.0131 91.132 C 80.3073 93.0246 80.3684 95.0558 80.4448 97.6267 C 80.4696 98.4539 80.495 99.3092 80.4301 100.212 C 80.1514 104.095 76.6075 116.513 74.4821 120.233 C 73.1744 122.521 74.5139 129.2 75.9324 136.271 C 76.6521 139.861 77.3973 143.573 77.9649 147.365 C 79.7034 158.974 82.3545 163.487 82.3812 163.531 C 82.4155 163.589 82.4442 163.654 82.4633 163.718 C 86.9413 178.943 73.1343 216.309 72.5444 217.893 C 72.4248 218.213 72.1206 218.411 71.7973 218.411 Z" stroke-linecap="round"/>
</g>
		<g transform="matrix(1 0 0 1 -1.9735 76.1741)">
<path style="stroke: none; stroke-width: 1; stroke-dasharray: none; stroke-linecap: butt; stroke-dashoffset: 0; stroke-linejoin: miter; stroke-miterlimit: 4; is-custom-font: none; font-file-url: none; fill: rgb(132,137,152); fill-rule: nonzero; opacity: 1;" transform=" translate(-123.0265, -201.1741)" d="M 118.542 218.411 C 118.504 218.411 118.465 218.409 118.425 218.402 C 117.99 218.339 117.689 217.934 117.753 217.498 C 118.198 214.467 122.243 187.78 127.025 184.102 C 127.375 183.834 127.874 183.9 128.143 184.248 C 128.412 184.597 128.346 185.098 127.997 185.366 C 124.381 188.147 120.515 209.671 119.33 217.73 C 119.272 218.126 118.931 218.411 118.542 218.411 Z" stroke-linecap="round"/>
</g>
		<g transform="matrix(1 0 0 1 17.838 40.2058)">
<path style="stroke: none; stroke-width: 1; stroke-dasharray: none; stroke-linecap: butt; stroke-dashoffset: 0; stroke-linejoin: miter; stroke-miterlimit: 4; is-custom-font: none; font-file-url: none; fill: rgb(132,137,152); fill-rule: nonzero; opacity: 1;" transform=" translate(-142.838, -165.2058)" d="M 139.35 169.789 C 139.158 169.789 138.964 169.72 138.811 169.578 C 138.487 169.28 138.466 168.776 138.764 168.452 L 145.739 160.879 C 146.037 160.556 146.541 160.535 146.865 160.834 C 147.189 161.131 147.21 161.636 146.912 161.96 L 139.937 169.532 C 139.78 169.703 139.565 169.789 139.35 169.789 Z" stroke-linecap="round"/>
</g>
		<g transform="matrix(1 0 0 1 8.4512 60.6552)">
<path style="stroke: none; stroke-width: 1; stroke-dasharray: none; stroke-linecap: butt; stroke-dashoffset: 0; stroke-linejoin: miter; stroke-miterlimit: 4; is-custom-font: none; font-file-url: none; fill: rgb(132,137,152); fill-rule: nonzero; opacity: 1;" transform=" translate(-133.4512, -185.6552)" d="M 147.255 218.411 C 147.07 218.411 146.885 218.347 146.734 218.218 C 145.531 217.18 134.955 207.98 134.123 204.376 C 133.334 200.958 126.294 183.004 124.745 179.691 L 124.592 179.363 C 123.594 177.231 123.221 176.433 122.822 174.178 C 122.739 173.705 122.29 172.466 121.771 171.033 C 119.245 164.07 116.986 157.057 119.445 154.491 C 119.519 154.415 121.218 152.698 124.337 152.919 C 128.499 153.208 133.029 156.67 137.802 163.207 C 137.834 163.252 137.862 163.3 137.884 163.35 C 138.01 163.627 140.924 170.114 141.639 173.777 C 143.458 177.287 146.578 182.316 147.939 182.705 C 148.362 182.827 148.607 183.268 148.486 183.691 C 148.365 184.114 147.925 184.359 147.5 184.238 C 144.972 183.516 140.95 175.92 140.169 174.405 C 140.134 174.335 140.108 174.262 140.094 174.185 C 139.492 170.931 136.797 164.826 136.465 164.08 C 130.937 156.531 126.789 154.71 124.282 154.513 C 121.899 154.331 120.641 155.55 120.588 155.602 C 118.617 157.66 121.759 166.325 123.269 170.489 C 123.858 172.116 124.285 173.291 124.392 173.901 C 124.754 175.949 125.051 176.584 126.036 178.687 L 126.189 179.016 C 127.754 182.362 134.873 200.538 135.677 204.017 C 136.218 206.365 143.209 213.073 147.775 217.01 C 148.109 217.298 148.145 217.801 147.858 218.134 C 147.701 218.317 147.478 218.411 147.255 218.411 Z" stroke-linecap="round"/>
</g>
		<g transform="matrix(1 0 0 1 26.5657 18.4007)">
<path style="stroke: none; stroke-width: 1; stroke-dasharray: none; stroke-linecap: butt; stroke-dashoffset: 0; stroke-linejoin: miter; stroke-miterlimit: 4; is-custom-font: none; font-file-url: none; fill: rgb(132,137,152); fill-rule: nonzero; opacity: 1;" transform=" translate(-151.5656, -143.4007)" d="M 148.848 193.17 C 148.454 193.17 148.112 192.878 148.059 192.477 C 148.021 192.185 147.126 185.25 148.059 178.186 C 148.892 171.882 147.526 158.411 146.93 153.753 C 146.545 150.749 144.266 140.301 139.998 128.817 C 138.717 125.723 127.658 98.2794 136.655 94.1545 C 136.992 93.9585 138.464 93.2222 140.496 93.9375 C 144.084 95.2026 147.242 100.081 149.881 108.438 C 150.245 109.381 159.178 132.627 159.844 134.89 L 159.914 135.131 C 163.152 146.221 167.033 151.547 169.72 154.062 C 170.041 154.363 170.058 154.867 169.757 155.189 C 169.457 155.511 168.953 155.527 168.631 155.226 C 165.799 152.575 161.722 147.014 158.383 135.577 L 158.314 135.34 C 157.666 133.138 148.47 109.206 148.377 108.964 C 145.272 99.1365 142.091 96.1902 139.966 95.4412 C 138.459 94.9098 137.477 95.5195 137.468 95.5258 C 137.431 95.55 137.391 95.5716 137.351 95.5901 C 130.848 98.4912 138.128 120.137 141.482 128.234 C 146.282 141.148 148.247 151.487 148.511 153.55 C 148.533 153.72 150.67 170.595 149.64 178.395 C 148.736 185.244 149.63 192.199 149.64 192.269 C 149.697 192.705 149.39 193.105 148.953 193.163 C 148.918 193.167 148.883 193.17 148.848 193.17 Z" stroke-linecap="round"/>
</g>
		<g transform="matrix(1 0 0 1 50.7699 24.2553)">
<path style="stroke: none; stroke-width: 1; stroke-dasharray: none; stroke-linecap: butt; stroke-dashoffset: 0; stroke-linejoin: miter; stroke-miterlimit: 4; is-custom-font: none; font-file-url: none; fill: rgb(132,137,152); fill-rule: nonzero; opacity: 1;" transform=" translate(-175.7699, -149.2553)" d="M 189.367 159.958 C 188.969 159.958 188.625 159.66 188.576 159.255 C 188.33 157.205 185.385 154.65 183.235 152.785 C 182.263 151.942 181.424 151.214 180.922 150.621 L 180.605 150.246 C 178.848 148.159 173.503 141.807 169.692 140.379 C 166.115 139.035 162.885 144.213 162.852 144.266 C 162.622 144.64 162.131 144.759 161.756 144.53 C 161.381 144.3 161.263 143.81 161.492 143.434 C 161.65 143.174 165.438 137.082 170.252 138.886 C 174.454 140.461 179.809 146.824 181.825 149.22 L 182.138 149.591 C 182.561 150.09 183.357 150.781 184.28 151.58 C 186.756 153.729 189.839 156.404 190.159 159.065 C 190.211 159.502 189.899 159.899 189.463 159.952 C 189.43 159.955 189.398 159.958 189.367 159.958 Z" stroke-linecap="round"/>
</g>
		<g transform="matrix(1 0 0 1 75.3921 59.5936)">
<path style="stroke: none; stroke-width: 1; stroke-dasharray: none; stroke-linecap: butt; stroke-dashoffset: 0; stroke-linejoin: miter; stroke-miterlimit: 4; is-custom-font: none; font-file-url: none; fill: rgb(132,137,152); fill-rule: nonzero; opacity: 1;" transform=" translate(-200.3921, -184.5936)" d="M 216.203 217.083 C 215.768 217.083 215.412 216.734 215.406 216.298 L 214.742 172.06 C 214.619 160.621 202.886 160.49 202.387 160.49 C 202.069 160.49 201.782 160.301 201.655 160.009 C 199.407 154.804 194.58 155.282 194.374 155.303 C 194.302 155.312 194.225 155.31 194.152 155.298 L 184.451 153.688 C 184.016 153.616 183.723 153.205 183.795 152.771 C 183.868 152.337 184.275 152.043 184.712 152.115 L 194.319 153.71 C 195.2 153.655 200.324 153.575 202.91 158.92 C 205.432 159.093 216.212 160.509 216.336 172.039 L 217 216.274 C 217.006 216.715 216.655 217.077 216.215 217.083 C 216.211 217.083 216.207 217.083 216.203 217.083 Z" stroke-linecap="round"/>
</g>
		<g transform="matrix(1 0 0 1 36.3839 -45.5111)">
<path style="stroke: none; stroke-width: 1; stroke-dasharray: none; stroke-linecap: butt; stroke-dashoffset: 0; stroke-linejoin: miter; stroke-miterlimit: 4; is-custom-font: none; font-file-url: none; fill: rgb(132,137,152); fill-rule: nonzero; opacity: 1;" transform=" translate(-161.3838, -79.4888)" d="M 163.463 90.3457 C 163.022 90.3457 162.666 89.9888 162.666 89.5484 V 87.0246 C 162.666 86.7796 162.779 86.548 162.971 86.3965 C 165.709 84.2545 166.119 79.6982 166.122 79.6524 C 166.97 71.3047 162.084 70.3489 162.035 70.34 C 161.995 70.3324 159.082 69.7991 157.631 71.0934 C 156.998 71.6579 156.732 72.5049 156.818 73.6815 C 156.822 73.7369 156.82 73.7922 156.813 73.8476 C 156.502 76.1277 156.122 82.5103 158.07 84.6357 C 158.515 85.1206 159.032 85.3294 159.704 85.2988 C 160.15 85.2683 160.517 85.6163 160.539 86.056 C 160.56 86.4958 160.222 86.8693 159.782 86.8909 C 158.637 86.9463 157.664 86.5505 156.894 85.7118 C 154.162 82.7299 155.06 74.9472 155.223 73.7133 C 155.121 72.0709 155.575 70.788 156.574 69.8997 C 158.618 68.0835 162.173 68.7434 162.324 68.7721 C 162.375 68.781 168.703 70.0072 167.71 79.7981 C 167.694 79.9909 167.275 84.7573 164.26 87.3988 V 89.5484 C 164.26 89.9888 163.903 90.3457 163.463 90.3457 Z" stroke-linecap="round"/>
</g>
		<g transform="matrix(1 0 0 1 38.6581 -25.4635)">
<path style="stroke: none; stroke-width: 1; stroke-dasharray: none; stroke-linecap: butt; stroke-dashoffset: 0; stroke-linejoin: miter; stroke-miterlimit: 4; is-custom-font: none; font-file-url: none; fill: rgb(132,137,152); fill-rule: nonzero; opacity: 1;" transform=" translate(-163.6581, -99.5365)" d="M 169.176 109.874 C 168.941 109.874 168.71 109.772 168.553 109.575 C 168.278 109.231 168.333 108.73 168.677 108.455 C 170.868 106.701 172.816 101.132 170.038 94.7447 C 167.571 89.0748 160.671 91.1487 160.379 91.239 C 160.302 91.2632 160.221 91.2753 160.141 91.2753 C 158.786 91.2753 157.747 91.6775 157.055 92.4704 C 155.638 94.0938 155.979 96.93 155.983 96.958 C 156.042 97.3945 155.736 97.7961 155.301 97.8553 C 154.865 97.9138 154.462 97.6089 154.403 97.173 C 154.384 97.0286 153.943 93.6107 155.854 91.4217 C 156.841 90.2928 158.241 89.708 160.019 89.6825 C 163.009 88.7846 169.099 88.588 171.5 94.109 C 174.316 100.583 172.744 107.242 169.673 109.7 C 169.526 109.817 169.35 109.874 169.176 109.874 Z" stroke-linecap="round"/>
</g>
		<g transform="matrix(1 0 0 1 37.1844 -24.7178)">
<path style="stroke: none; stroke-width: 1; stroke-dasharray: none; stroke-linecap: butt; stroke-dashoffset: 0; stroke-linejoin: miter; stroke-miterlimit: 4; is-custom-font: none; font-file-url: none; fill: rgb(132,137,152); fill-rule: nonzero; opacity: 1;" transform=" translate(-162.1843, -100.2822)" d="M 161.94 104.097 C 160.052 104.097 158.043 103.756 156.584 102.462 C 155.249 101.278 154.58 99.4608 154.595 97.0611 C 154.598 96.7308 154.839 96.4788 155.197 96.4674 C 155.527 96.4693 155.793 96.7385 155.791 97.0688 C 155.777 99.1089 156.311 100.622 157.377 101.567 C 159.414 103.374 163.059 102.912 165.237 102.635 L 165.38 102.616 C 168.151 102.266 168.621 101.413 168.625 101.404 C 168.733 101.092 169.065 100.945 169.378 101.053 C 169.69 101.161 169.848 101.52 169.74 101.833 C 169.653 102.083 169.042 103.359 165.53 103.803 L 165.388 103.821 C 164.43 103.943 163.213 104.097 161.94 104.097 Z" stroke-linecap="round"/>
</g>
		<g transform="matrix(1 0 0 1 40.3056 0.5915)">
<path style="stroke: none; stroke-width: 1; stroke-dasharray: none; stroke-linecap: butt; stroke-dashoffset: 0; stroke-linejoin: miter; stroke-miterlimit: 4; is-custom-font: none; font-file-url: none; fill: rgb(132,137,152); fill-rule: nonzero; opacity: 1;" transform=" translate(-165.3055, -125.5915)" d="M 161.39 142.771 C 161.245 142.771 161.099 142.731 160.967 142.648 C 160.594 142.414 160.482 141.922 160.716 141.549 C 160.77 141.463 166.196 132.848 171.572 126.171 C 176.525 120.022 170.209 111.912 170.145 111.831 C 166.892 107.655 160.661 111.945 160.598 111.989 C 160.561 112.015 160.521 112.038 160.48 112.058 C 158.724 112.882 157.651 113.97 157.29 115.292 C 156.702 117.443 158.128 119.567 158.142 119.588 C 158.192 119.664 159.062 120.97 161.05 121.346 C 163.315 121.776 166.193 120.798 169.376 118.525 C 169.734 118.27 170.232 118.352 170.488 118.711 C 170.743 119.069 170.661 119.567 170.302 119.822 C 166.683 122.408 163.45 123.445 160.7 122.902 C 158.04 122.377 156.858 120.539 156.809 120.462 C 156.749 120.375 154.973 117.725 155.752 114.871 C 156.237 113.095 157.579 111.673 159.741 110.644 C 162.361 108.834 168.088 106.596 171.397 110.846 C 171.466 110.932 178.556 120.041 172.814 127.172 C 167.495 133.776 162.119 142.312 162.066 142.398 C 161.915 142.638 161.656 142.771 161.39 142.771 Z" stroke-linecap="round"/>
</g>
		<g transform="matrix(1 0 0 1 32.4835 -0.0475)">
<path style="stroke: none; stroke-width: 1; stroke-dasharray: none; stroke-linecap: butt; stroke-dashoffset: 0; stroke-linejoin: miter; stroke-miterlimit: 4; is-custom-font: none; font-file-url: none; fill: rgb(132,137,152); fill-rule: nonzero; opacity: 1;" transform=" translate(-157.4835, -124.9525)" d="M 157.484 130.333 C 156.933 130.333 156.487 129.887 156.487 129.336 V 120.569 C 156.487 120.018 156.933 119.572 157.484 119.572 C 158.034 119.572 158.48 120.018 158.48 120.569 V 129.336 C 158.48 129.887 158.034 130.333 157.484 130.333 Z" stroke-linecap="round"/>
</g>
		<g transform="matrix(1 0 0 1 -28.5743 -14.6387)">
<path style="stroke: none; stroke-width: 1; stroke-dasharray: none; stroke-linecap: butt; stroke-dashoffset: 0; stroke-linejoin: miter; stroke-miterlimit: 4; is-custom-font: none; font-file-url: none; fill: rgb(132,137,152); fill-rule: nonzero; opacity: 1;" transform=" translate(-96.4257, -110.3613)" d="M 97.54 121.166 C 97.225 121.166 96.9666 120.922 96.9437 120.613 C 96.8604 120.173 95.7569 117.098 94.7515 114.4 C 94.719 114.315 94.7076 114.223 94.7171 114.132 C 94.7241 114.057 95.4597 106.567 94.7967 100.217 C 94.7623 99.8882 95.0009 99.5943 95.3293 99.5599 C 95.664 99.5256 95.9516 99.7641 95.986 100.093 C 96.6115 106.083 96.0178 113.043 95.9198 114.111 C 98.1375 120.068 98.1375 120.444 98.1375 120.569 C 98.1375 120.899 97.8702 121.166 97.54 121.166 Z" stroke-linecap="round"/>
</g>
		<g transform="matrix(1 0 0 1 -33.8939 -44.5801)">
<path style="stroke: none; stroke-width: 1; stroke-dasharray: none; stroke-linecap: butt; stroke-dashoffset: 0; stroke-linejoin: miter; stroke-miterlimit: 4; is-custom-font: none; font-file-url: none; fill: rgb(132,137,152); fill-rule: nonzero; opacity: 1;" transform=" translate(-91.1061, -80.42)" d="M 89.9654 84.9756 C 88.8047 84.9756 87.6676 83.9873 87.6154 83.9415 C 87.5327 83.869 87.525 83.7436 87.5976 83.6602 C 87.6701 83.5782 87.7967 83.5699 87.8782 83.6424 C 87.8909 83.6532 89.149 84.7427 90.2289 84.5543 C 90.6635 84.476 91.0186 84.1878 91.2833 83.6972 C 91.4558 83.3783 91.6556 83.0226 91.8694 82.6433 C 93.0498 80.5459 94.8335 77.3762 94.0896 76.1684 C 94.0317 76.0749 94.061 75.9521 94.1552 75.8942 C 94.2494 75.8356 94.3716 75.8662 94.4288 75.9597 C 95.2962 77.3674 93.5888 80.4008 92.2169 82.8387 C 92.0043 83.2161 91.8051 83.5699 91.6339 83.8868 C 91.3088 84.4894 90.8589 84.8464 90.2976 84.9469 C 90.1875 84.966 90.0762 84.9756 89.9654 84.9756 Z" stroke-linecap="round"/>
</g>
		<g transform="matrix(1 0 0 1 -33.4705 -7.9853)">
<path style="stroke: none; stroke-width: 1; stroke-dasharray: none; stroke-linecap: butt; stroke-dashoffset: 0; stroke-linejoin: miter; stroke-miterlimit: 4; is-custom-font: none; font-file-url: none; fill: rgb(132,137,152); fill-rule: nonzero; opacity: 1;" transform=" translate(-91.5295, -117.0147)" d="M 87.7474 120.037 C 87.6647 120.037 87.5877 119.986 87.559 119.903 C 87.5228 119.8 87.5775 119.686 87.6819 119.65 C 87.734 119.631 92.975 117.769 95.1399 114.091 C 95.1953 113.996 95.3175 113.964 95.4129 114.02 C 95.5077 114.076 95.5396 114.198 95.4836 114.293 C 93.2436 118.098 88.0338 119.949 87.813 120.026 C 87.7913 120.033 87.769 120.037 87.7474 120.037 Z" stroke-linecap="round"/>
</g>
		<g transform="matrix(1 0 0 1 -1.653 35.8799)">
<path style="stroke: none; stroke-width: 1; stroke-dasharray: none; stroke-linecap: butt; stroke-dashoffset: 0; stroke-linejoin: miter; stroke-miterlimit: 4; is-custom-font: none; font-file-url: none; fill: rgb(132,137,152); fill-rule: nonzero; opacity: 1;" transform=" translate(-123.347, -160.8799)" d="M 121.615 166.269 C 121.57 166.269 121.525 166.253 121.488 166.223 C 121.403 166.153 121.391 166.027 121.461 165.942 C 123.125 163.922 126.414 162.858 127.263 162.611 C 127.025 161.801 126.827 161.078 126.652 160.434 C 125.75 157.123 125.446 156.008 123.018 155.895 C 120.104 155.758 119.38 158 119.373 158.024 C 119.341 158.128 119.229 158.186 119.124 158.156 C 119.019 158.123 118.96 158.013 118.992 157.907 C 119 157.881 119.805 155.349 123.036 155.497 C 125.754 155.623 126.129 157.001 127.037 160.329 C 127.225 161.022 127.439 161.806 127.702 162.691 C 127.718 162.743 127.712 162.799 127.685 162.846 C 127.659 162.892 127.615 162.927 127.562 162.94 C 127.522 162.951 123.565 164.015 121.768 166.196 C 121.729 166.244 121.672 166.269 121.615 166.269 Z" stroke-linecap="round"/>
</g>
		<g transform="matrix(1 0 0 1 -14.2117 37.8804)">
<path style="stroke: none; stroke-width: 1; stroke-dasharray: none; stroke-linecap: butt; stroke-dashoffset: 0; stroke-linejoin: miter; stroke-miterlimit: 4; is-custom-font: none; font-file-url: none; fill: rgb(132,137,152); fill-rule: nonzero; opacity: 1;" transform=" translate(-110.7883, -162.8804)" d="M 110.057 164.541 C 110.021 164.541 109.984 164.531 109.951 164.51 C 109.858 164.451 109.83 164.328 109.89 164.235 C 109.899 164.22 110.814 162.774 111.332 161.351 C 111.37 161.248 111.485 161.194 111.587 161.232 C 111.691 161.27 111.744 161.383 111.706 161.487 C 111.173 162.952 110.264 164.388 110.226 164.449 C 110.188 164.509 110.123 164.541 110.057 164.541 Z" stroke-linecap="round"/>
</g>
		<g transform="matrix(1 0 0 1 16.5542 -25.4718)">
<path style="stroke: none; stroke-width: 1; stroke-dasharray: none; stroke-linecap: butt; stroke-dashoffset: 0; stroke-linejoin: miter; stroke-miterlimit: 4; is-custom-font: none; font-file-url: none; fill: rgb(132,137,152); fill-rule: nonzero; opacity: 1;" transform=" translate(-141.5542, -99.5282)" d="M 138.467 103.729 C 138.156 103.729 137.883 103.603 137.655 103.353 C 136.789 102.408 136.74 99.751 136.961 97.7631 C 137.243 95.217 140.638 95.3296 140.669 95.3271 C 140.779 95.3322 140.864 95.4251 140.86 95.5345 C 140.855 95.6446 140.754 95.7248 140.653 95.7261 C 140.528 95.7197 137.599 95.6312 137.357 97.8069 C 137.128 99.8623 137.222 102.291 137.949 103.085 C 138.105 103.255 138.295 103.336 138.483 103.331 C 139.076 103.318 140.272 102.784 141.539 102.219 C 143.306 101.431 145.135 100.616 146.102 100.828 C 146.21 100.851 146.278 100.957 146.254 101.064 C 146.231 101.173 146.122 101.243 146.017 101.217 C 145.175 101.033 143.331 101.856 141.701 102.583 C 140.34 103.19 139.165 103.714 138.492 103.729 C 138.483 103.73 138.475 103.729 138.467 103.729 Z" stroke-linecap="round"/>
</g>
		<g transform="matrix(1 0 0 1 36.9349 -30.4704)">
<path style="stroke: none; stroke-width: 1; stroke-dasharray: none; stroke-linecap: butt; stroke-dashoffset: 0; stroke-linejoin: miter; stroke-miterlimit: 4; is-custom-font: none; font-file-url: none; fill: rgb(132,137,152); fill-rule: nonzero; opacity: 1;" transform=" translate(-161.9348, -94.5295)" d="M 158.476 92.008 C 159.415 92.8448 162.003 95.3279 162.344 97.5475 L 165.649 96.9022 C 165.604 96.08 165.234 92.3981 162.158 91.4786 L 158.476 92.008 Z M 162.173 97.9834 C 162.13 97.9834 162.087 97.97 162.052 97.9439 C 162.007 97.9096 161.979 97.858 161.974 97.8014 C 161.756 95.2572 157.927 92.0583 157.889 92.0265 C 157.828 91.9756 157.803 91.8948 157.824 91.819 C 157.845 91.7427 157.91 91.6867 157.987 91.6752 L 162.144 91.0783 C 162.171 91.0732 162.201 91.0758 162.228 91.0841 C 166.01 92.1754 166.053 97.0162 166.053 97.0652 C 166.053 97.1606 165.986 97.2427 165.892 97.2605 L 162.211 97.9802 C 162.198 97.9828 162.185 97.9834 162.173 97.9834 Z" stroke-linecap="round"/>
</g>
		<g transform="matrix(1 0 0 1 36.8924 -11.2694)">
<path style="stroke: none; stroke-width: 1; stroke-dasharray: none; stroke-linecap: butt; stroke-dashoffset: 0; stroke-linejoin: miter; stroke-miterlimit: 4; is-custom-font: none; font-file-url: none; fill: rgb(132,137,152); fill-rule: nonzero; opacity: 1;" transform=" translate(-161.8923, -113.7306)" d="M 162.173 117.214 C 162.144 117.214 162.115 117.208 162.089 117.195 C 162.03 117.168 161.988 117.114 161.977 117.05 C 161.634 115.122 158.981 112.974 158.954 112.952 C 158.869 112.884 158.855 112.758 158.924 112.673 C 158.992 112.587 159.119 112.573 159.204 112.642 C 159.312 112.729 161.771 114.718 162.308 116.707 L 164.476 115.462 C 164.552 114.883 164.804 111.824 161.795 110.631 C 161.693 110.591 161.643 110.475 161.683 110.373 C 161.724 110.271 161.841 110.221 161.942 110.261 C 165.506 111.674 164.862 115.582 164.855 115.621 C 164.845 115.68 164.809 115.73 164.758 115.76 L 162.272 117.188 C 162.242 117.206 162.207 117.214 162.173 117.214 Z" stroke-linecap="round"/>
</g>
		<g transform="matrix(1 0 0 1 3.4495 -32.8225)">
<path style="stroke: rgb(255,103,103); stroke-width: 1; stroke-dasharray: 2 2; stroke-linecap: butt; stroke-dashoffset: 0; stroke-linejoin: miter; stroke-miterlimit: 4; is-custom-font: none; font-file-url: none; fill: none; fill-rule: nonzero; opacity: 1;" transform=" translate(-128.4495, -92.1774)" d="M 135.361 115.935 H 108.692 C 106.483 115.935 104.692 114.144 104.692 111.935 V 72.4199 C 104.692 70.2108 106.483 68.4199 108.692 68.4199 H 148.207 C 150.416 68.4199 152.207 70.2108 152.207 72.4199 V 112.047" stroke-linecap="round"/>
</g>
		<g transform="matrix(1 0 0 1 2.7233 -34.0835)">
<path style="stroke: none; stroke-width: 1; stroke-dasharray: none; stroke-linecap: butt; stroke-dashoffset: 0; stroke-linejoin: miter; stroke-miterlimit: 4; is-custom-font: none; font-file-url: none; fill: rgb(255,103,103); fill-rule: nonzero; opacity: 1;" transform=" translate(-127.7233, -90.9166)" d="M 127.663 86.7123 C 125.819 87.3849 123.82 90.9165 123.052 92.5982 C 123.052 95.9616 124.589 95.9617 127.663 95.1209 C 130.737 94.28 131.506 92.5982 132.274 89.2348 C 133.043 85.8714 129.969 85.8714 127.663 86.7123 Z" stroke-linecap="round"/>
</g>
		<g transform="matrix(1 0 0 1 2.2861 -33.7457)">
<path style="stroke: none; stroke-width: 1; stroke-dasharray: none; stroke-linecap: butt; stroke-dashoffset: 0; stroke-linejoin: miter; stroke-miterlimit: 4; is-custom-font: none; font-file-url: none; fill: rgb(255,103,103); fill-rule: nonzero; opacity: 0.4;" transform=" translate(-127.2861, -91.2544)" d="M 123.052 89.239 C 122.303 92.2327 120.806 92.9812 120.058 95.2264 C 119.309 99.717 126.045 98.9686 127.542 96.7233 C 129.039 94.478 129.787 96.7233 132.781 95.2264 C 135.775 93.7296 134.278 92.9812 133.53 90.7359 C 132.781 88.4906 134.278 87.7421 134.278 85.4969 C 134.278 83.2516 132.781 84 129.787 84.7484 C 126.794 85.4969 128.291 84.7484 125.297 84.7484 C 122.303 84.7484 123.8 86.2453 123.052 89.239 Z" stroke-linecap="round"/>
</g>
		<g transform="matrix(1 0 0 1 -58.5 43)">
<rect style="stroke: none; stroke-width: 1; stroke-dasharray: none; stroke-linecap: butt; stroke-dashoffset: 0; stroke-linejoin: miter; stroke-miterlimit: 4; is-custom-font: none; font-file-url: none; fill: rgb(54,54,152); fill-rule: nonzero; opacity: 1;" x="-45.5" y="-15" rx="7" ry="7" width="91" height="30"/>
</g>
		<g transform="matrix(1 0 0 1 -59.0115 44.623)">
<path style="stroke: none; stroke-width: 1; stroke-dasharray: none; stroke-linecap: butt; stroke-dashoffset: 0; stroke-linejoin: miter; stroke-miterlimit: 4; is-custom-font: none; font-file-url: none; fill: rgb(255,255,255); fill-rule: nonzero; opacity: 1;" transform=" translate(-65.9885, -169.623)" d="M 37.5127 170.531 C 37.5127 171.347 37.2165 171.984 36.624 172.441 C 36.0316 172.898 35.2275 173.127 34.2119 173.127 C 33.1117 173.127 32.2653 172.985 31.6729 172.702 V 171.661 C 32.0537 171.821 32.4684 171.948 32.917 172.042 C 33.3656 172.135 33.8099 172.181 34.25 172.181 C 34.9694 172.181 35.5111 172.046 35.875 171.775 C 36.2389 171.5 36.4209 171.119 36.4209 170.632 C 36.4209 170.311 36.3553 170.048 36.2241 169.845 C 36.0972 169.638 35.8813 169.447 35.5767 169.274 C 35.2762 169.1 34.8171 168.904 34.1992 168.684 C 33.3359 168.375 32.7181 168.009 32.3457 167.585 C 31.9775 167.162 31.7935 166.61 31.7935 165.929 C 31.7935 165.214 32.0622 164.644 32.5996 164.221 C 33.137 163.798 33.848 163.586 34.7324 163.586 C 35.6549 163.586 36.5034 163.756 37.2778 164.094 L 36.9414 165.034 C 36.1755 164.712 35.4307 164.551 34.707 164.551 C 34.1357 164.551 33.6893 164.674 33.3677 164.919 C 33.0461 165.165 32.8853 165.506 32.8853 165.941 C 32.8853 166.263 32.9445 166.528 33.063 166.735 C 33.1815 166.938 33.3804 167.126 33.6597 167.3 C 33.9432 167.469 34.3748 167.657 34.9546 167.865 C 35.9279 168.212 36.5965 168.584 36.9604 168.982 C 37.3286 169.38 37.5127 169.896 37.5127 170.531 Z M 42.1909 173.127 C 41.1626 173.127 40.3501 172.814 39.7534 172.188 C 39.161 171.561 38.8647 170.692 38.8647 169.579 C 38.8647 168.457 39.1398 167.566 39.6899 166.906 C 40.2443 166.246 40.987 165.916 41.918 165.916 C 42.7897 165.916 43.4795 166.204 43.9873 166.779 C 44.4951 167.351 44.749 168.106 44.749 169.045 V 169.712 H 39.9565 C 39.9777 170.529 40.1829 171.149 40.5723 171.572 C 40.9658 171.995 41.5181 172.207 42.229 172.207 C 42.978 172.207 43.7186 172.05 44.4507 171.737 V 172.676 C 44.0783 172.837 43.7249 172.951 43.3906 173.019 C 43.0605 173.091 42.6606 173.127 42.1909 173.127 Z M 41.9053 166.798 C 41.3467 166.798 40.9002 166.98 40.5659 167.344 C 40.2358 167.708 40.0412 168.212 39.9819 168.855 H 43.6191 C 43.6191 168.191 43.471 167.683 43.1748 167.332 C 42.8786 166.976 42.4554 166.798 41.9053 166.798 Z M 51.3125 173 V 168.5 C 51.3125 167.932 51.1834 167.509 50.9253 167.23 C 50.6672 166.951 50.263 166.811 49.7129 166.811 C 48.985 166.811 48.4518 167.008 48.1133 167.401 C 47.7747 167.795 47.6055 168.444 47.6055 169.35 V 173 H 46.5518 V 166.043 H 47.4087 L 47.5801 166.995 H 47.6309 C 47.8467 166.652 48.1493 166.388 48.5386 166.202 C 48.9279 166.011 49.3617 165.916 49.8398 165.916 C 50.6777 165.916 51.3083 166.119 51.7314 166.525 C 52.1546 166.927 52.3662 167.573 52.3662 168.461 V 173 H 51.3125 Z M 59.2725 172.067 H 59.2153 C 58.7287 172.774 58.0008 173.127 57.0317 173.127 C 56.1219 173.127 55.4131 172.816 54.9053 172.194 C 54.4017 171.572 54.1499 170.687 54.1499 169.541 C 54.1499 168.394 54.4038 167.503 54.9116 166.868 C 55.4194 166.233 56.1261 165.916 57.0317 165.916 C 57.9754 165.916 58.6991 166.259 59.2026 166.944 H 59.2852 L 59.2407 166.443 L 59.2153 165.954 V 163.123 H 60.269 V 173 H 59.4121 L 59.2725 172.067 Z M 57.165 172.245 C 57.8844 172.245 58.4049 172.05 58.7266 171.661 C 59.0524 171.267 59.2153 170.634 59.2153 169.763 V 169.541 C 59.2153 168.555 59.0503 167.852 58.7202 167.433 C 58.3944 167.01 57.8717 166.798 57.1523 166.798 C 56.5345 166.798 56.0605 167.04 55.7305 167.522 C 55.4046 168 55.2417 168.677 55.2417 169.553 C 55.2417 170.442 55.4046 171.113 55.7305 171.565 C 56.0563 172.018 56.5345 172.245 57.165 172.245 Z M 69.124 173.127 C 68.6712 173.127 68.2565 173.044 67.8799 172.879 C 67.5075 172.71 67.1943 172.452 66.9404 172.105 H 66.8643 C 66.915 172.511 66.9404 172.896 66.9404 173.26 V 176.123 H 65.8867 V 166.043 H 66.7437 L 66.8896 166.995 H 66.9404 C 67.2113 166.614 67.5265 166.339 67.8862 166.17 C 68.2459 166.001 68.6585 165.916 69.124 165.916 C 70.0465 165.916 70.7575 166.231 71.2568 166.862 C 71.7604 167.492 72.0122 168.377 72.0122 169.515 C 72.0122 170.658 71.7562 171.546 71.2441 172.181 C 70.7363 172.812 70.0296 173.127 69.124 173.127 Z M 68.9717 166.811 C 68.2607 166.811 67.7466 167.008 67.4292 167.401 C 67.1118 167.795 66.9489 168.421 66.9404 169.28 V 169.515 C 66.9404 170.493 67.1034 171.193 67.4292 171.616 C 67.755 172.035 68.2777 172.245 68.9971 172.245 C 69.598 172.245 70.0677 172.001 70.4062 171.515 C 70.749 171.028 70.9204 170.357 70.9204 169.502 C 70.9204 168.635 70.749 167.971 70.4062 167.509 C 70.0677 167.044 69.5895 166.811 68.9717 166.811 Z M 78.6201 173 V 168.5 C 78.6201 167.932 78.491 167.509 78.2329 167.23 C 77.9748 166.951 77.5706 166.811 77.0205 166.811 C 76.2884 166.811 75.7531 167.01 75.4146 167.408 C 75.0802 167.806 74.9131 168.457 74.9131 169.363 V 173 H 73.8594 V 163.123 H 74.9131 V 166.113 C 74.9131 166.472 74.8962 166.771 74.8623 167.008 H 74.9258 C 75.1331 166.674 75.4272 166.411 75.8081 166.221 C 76.1932 166.026 76.6312 165.929 77.1221 165.929 C 77.9727 165.929 78.6095 166.132 79.0327 166.538 C 79.4601 166.94 79.6738 167.581 79.6738 168.461 V 173 H 78.6201 Z M 87.8496 169.515 C 87.8496 170.649 87.564 171.536 86.9927 172.175 C 86.4214 172.81 85.6322 173.127 84.625 173.127 C 84.0029 173.127 83.4507 172.981 82.9683 172.689 C 82.4858 172.397 82.1134 171.978 81.8511 171.432 C 81.5887 170.886 81.4575 170.247 81.4575 169.515 C 81.4575 168.381 81.741 167.499 82.3081 166.868 C 82.8752 166.233 83.6623 165.916 84.6694 165.916 C 85.6427 165.916 86.415 166.24 86.9863 166.887 C 87.5618 167.535 87.8496 168.411 87.8496 169.515 Z M 82.5493 169.515 C 82.5493 170.404 82.7271 171.081 83.0825 171.546 C 83.438 172.012 83.9606 172.245 84.6504 172.245 C 85.3402 172.245 85.8628 172.014 86.2183 171.553 C 86.578 171.087 86.7578 170.408 86.7578 169.515 C 86.7578 168.631 86.578 167.96 86.2183 167.503 C 85.8628 167.042 85.3359 166.811 84.6377 166.811 C 83.9479 166.811 83.4274 167.037 83.0762 167.49 C 82.7249 167.943 82.5493 168.618 82.5493 169.515 Z M 91.9502 172.257 C 92.1364 172.257 92.3162 172.245 92.4897 172.219 C 92.6632 172.19 92.8008 172.16 92.9023 172.13 V 172.937 C 92.7881 172.992 92.6188 173.036 92.3945 173.07 C 92.1745 173.108 91.9756 173.127 91.7979 173.127 C 90.4521 173.127 89.7793 172.418 89.7793 171 V 166.862 H 88.7827 V 166.354 L 89.7793 165.916 L 90.2236 164.431 H 90.833 V 166.043 H 92.8516 V 166.862 H 90.833 V 170.956 C 90.833 171.375 90.9325 171.697 91.1313 171.921 C 91.3302 172.145 91.6032 172.257 91.9502 172.257 Z M 100.304 169.515 C 100.304 170.649 100.018 171.536 99.4468 172.175 C 98.8755 172.81 98.0863 173.127 97.0791 173.127 C 96.457 173.127 95.9048 172.981 95.4224 172.689 C 94.9399 172.397 94.5675 171.978 94.3052 171.432 C 94.0428 170.886 93.9116 170.247 93.9116 169.515 C 93.9116 168.381 94.1951 167.499 94.7622 166.868 C 95.3293 166.233 96.1164 165.916 97.1235 165.916 C 98.0968 165.916 98.8691 166.24 99.4404 166.887 C 100.016 167.535 100.304 168.411 100.304 169.515 Z M 95.0034 169.515 C 95.0034 170.404 95.1812 171.081 95.5366 171.546 C 95.8921 172.012 96.4147 172.245 97.1045 172.245 C 97.7943 172.245 98.3169 172.014 98.6724 171.553 C 99.0321 171.087 99.2119 170.408 99.2119 169.515 C 99.2119 168.631 99.0321 167.96 98.6724 167.503 C 98.3169 167.042 97.79 166.811 97.0918 166.811 C 96.402 166.811 95.8815 167.037 95.5303 167.49 C 95.179 167.943 95.0034 168.618 95.0034 169.515 Z" stroke-linecap="round"/>
</g>
</g>
</g>
</svg>