<svg xmlns="http://www.w3.org/2000/svg" xmlns:xlink="http://www.w3.org/1999/xlink" version="1.1" width="1000" height="1000" viewBox="0 0 1000 1000" xml:space="preserve">
<desc>Created with Fabric.js 3.5.0</desc>
<defs>
</defs>
<rect x="0" y="0" width="100%" height="100%" fill="#ffffff"/>
<g transform="matrix(4.8176 0 0 4.8101 500.3849 514.3205)" id="356788">
<g style="" vector-effect="non-scaling-stroke">
		<g transform="matrix(1 0 0 1 -21.2798 -23.6082)">
<path style="stroke: none; stroke-width: 1; stroke-dasharray: none; stroke-linecap: butt; stroke-dashoffset: 0; stroke-linejoin: miter; stroke-miterlimit: 4; is-custom-font: none; font-file-url: none; fill: rgb(132,137,152); fill-rule: nonzero; opacity: 1;" transform=" translate(-103.7202, -101.3918)" d="M 103.621 94.4676 C 100.583 95.5755 97.2921 101.392 96.0264 104.162 C 96.0264 109.701 98.5579 109.701 103.621 108.316 C 108.684 106.932 109.95 104.162 111.216 98.6222 C 112.481 93.0827 107.418 93.0827 103.621 94.4676 Z" stroke-linecap="round"/>
</g>
		<g transform="matrix(1 0 0 1 -22 -23.0521)">
<path style="stroke: none; stroke-width: 1; stroke-dasharray: none; stroke-linecap: butt; stroke-dashoffset: 0; stroke-linejoin: miter; stroke-miterlimit: 4; is-custom-font: none; font-file-url: none; fill: rgb(132,137,152); fill-rule: nonzero; opacity: 0.4;" transform=" translate(-103.0001, -101.9478)" d="M 96.0259 98.6286 C 94.7932 103.559 92.3279 104.792 91.0953 108.49 C 89.8626 115.886 100.956 114.653 103.422 110.955 C 105.887 107.257 107.12 110.955 112.05 108.49 C 116.981 106.024 114.516 104.792 113.283 101.094 C 112.05 97.3959 114.516 96.1633 114.516 92.4653 C 114.516 88.7673 112.05 90 107.12 91.2327 C 102.189 92.4653 104.654 91.2327 99.7238 91.2327 C 94.7932 91.2327 97.2585 93.698 96.0259 98.6286 Z" stroke-linecap="round"/>
</g>
		<g transform="matrix(1 0 0 1 -21 -23)">
<rect style="stroke: rgb(132,137,152); stroke-width: 2; stroke-dasharray: none; stroke-linecap: butt; stroke-dashoffset: 0; stroke-linejoin: miter; stroke-miterlimit: 4; is-custom-font: none; font-file-url: none; fill: none; fill-rule: nonzero; opacity: 1;" x="-54" y="-54" rx="9" ry="9" width="108" height="108"/>
</g>
		<g transform="matrix(1 0 0 1 -21 -23)">
<rect style="stroke: rgb(132,137,152); stroke-width: 0.8; stroke-dasharray: none; stroke-linecap: butt; stroke-dashoffset: 0; stroke-linejoin: miter; stroke-miterlimit: 4; is-custom-font: none; font-file-url: none; fill: none; fill-rule: nonzero; opacity: 1;" x="-48.6" y="-48.6" rx="4.6" ry="4.6" width="97.2" height="97.2"/>
</g>
		<g transform="matrix(1 0 0 1 -68.5 -65.5)">
<circle style="stroke: rgb(112,185,98); stroke-width: 3; stroke-dasharray: none; stroke-linecap: butt; stroke-dashoffset: 0; stroke-linejoin: miter; stroke-miterlimit: 4; is-custom-font: none; font-file-url: none; fill: rgb(255,255,255); fill-rule: nonzero; opacity: 1;" cx="0" cy="0" r="31"/>
</g>
		<g transform="matrix(1 0 0 1 -76.3986 -61.7135)">
<path style="stroke: rgb(112,185,98); stroke-width: 1; stroke-dasharray: none; stroke-linecap: butt; stroke-dashoffset: 0; stroke-linejoin: miter; stroke-miterlimit: 4; is-custom-font: none; font-file-url: none; fill: rgb(112,185,98); fill-rule: nonzero; opacity: 1;" transform=" translate(-48.6014, -63.2865)" d="M 42.421 60.6222 C 41.8597 60.053 41.8597 59.1301 42.421 58.5609 L 43.941 57.0196 C 44.5024 56.4504 45.4125 56.4504 45.9739 57.0196 L 54.7818 65.9507 C 55.3432 66.52 55.3432 67.4429 54.7818 68.0121 L 53.2618 69.5533 C 52.7005 70.1226 51.7903 70.1226 51.2289 69.5533 L 42.421 60.6222 Z" stroke-linecap="round"/>
</g>
		<g transform="matrix(1 0 0 1 -63.3113 -65.5)">
<path style="stroke: rgb(112,185,98); stroke-width: 1; stroke-dasharray: none; stroke-linecap: butt; stroke-dashoffset: 0; stroke-linejoin: miter; stroke-miterlimit: 4; is-custom-font: none; font-file-url: none; fill: rgb(112,185,98); fill-rule: nonzero; opacity: 1;" transform=" translate(-61.6887, -59.5)" d="M 69.0313 48.4275 C 69.592 47.8575 70.5009 47.8575 71.0616 48.4275 L 72.5795 49.9708 C 73.1402 50.5408 73.1402 51.4649 72.5795 52.0349 L 54.346 70.5725 C 53.7854 71.1425 52.8764 71.1425 52.3158 70.5725 L 50.7979 69.0292 C 50.2372 68.4592 50.2372 67.5351 50.7979 66.9651 L 69.0313 48.4275 Z" stroke-linecap="round"/>
</g>
		<g transform="matrix(1 0 0 1 -35 43.5)">
<rect style="stroke: none; stroke-width: 1; stroke-dasharray: none; stroke-linecap: butt; stroke-dashoffset: 0; stroke-linejoin: miter; stroke-miterlimit: 4; is-custom-font: none; font-file-url: none; fill: rgb(132,137,152); fill-rule: nonzero; opacity: 1;" x="-33" y="-1.5" rx="1.5" ry="1.5" width="66" height="3"/>
</g>
		<g transform="matrix(1 0 0 1 -21 52)">
<rect style="stroke: none; stroke-width: 1; stroke-dasharray: none; stroke-linecap: butt; stroke-dashoffset: 0; stroke-linejoin: miter; stroke-miterlimit: 4; is-custom-font: none; font-file-url: none; fill: rgb(132,137,152); fill-rule: nonzero; opacity: 1;" x="-47" y="-1" rx="1" ry="1" width="94" height="2"/>
</g>
		<g transform="matrix(1 0 0 1 -21 61)">
<rect style="stroke: none; stroke-width: 1; stroke-dasharray: none; stroke-linecap: butt; stroke-dashoffset: 0; stroke-linejoin: miter; stroke-miterlimit: 4; is-custom-font: none; font-file-url: none; fill: rgb(132,137,152); fill-rule: nonzero; opacity: 1;" x="-47" y="-1" rx="1" ry="1" width="94" height="2"/>
</g>
		<g transform="matrix(1 0 0 1 -21 70)">
<rect style="stroke: none; stroke-width: 1; stroke-dasharray: none; stroke-linecap: butt; stroke-dashoffset: 0; stroke-linejoin: miter; stroke-miterlimit: 4; is-custom-font: none; font-file-url: none; fill: rgb(132,137,152); fill-rule: nonzero; opacity: 1;" x="-47" y="-1" rx="1" ry="1" width="94" height="2"/>
</g>
		<g transform="matrix(1 0 0 1 -21 79)">
<rect style="stroke: none; stroke-width: 1; stroke-dasharray: none; stroke-linecap: butt; stroke-dashoffset: 0; stroke-linejoin: miter; stroke-miterlimit: 4; is-custom-font: none; font-file-url: none; fill: rgb(132,137,152); fill-rule: nonzero; opacity: 1;" x="-47" y="-1" rx="1" ry="1" width="94" height="2"/>
</g>
		<g transform="matrix(1 0 0 1 -44 88)">
<rect style="stroke: none; stroke-width: 1; stroke-dasharray: none; stroke-linecap: butt; stroke-dashoffset: 0; stroke-linejoin: miter; stroke-miterlimit: 4; is-custom-font: none; font-file-url: none; fill: rgb(132,137,152); fill-rule: nonzero; opacity: 1;" x="-24" y="-1" rx="1" ry="1" width="48" height="2"/>
</g>
		<g transform="matrix(1 0 0 1 56.5 -50)">
<rect style="stroke: none; stroke-width: 1; stroke-dasharray: none; stroke-linecap: butt; stroke-dashoffset: 0; stroke-linejoin: miter; stroke-miterlimit: 4; is-custom-font: none; font-file-url: none; fill: rgb(54,54,152); fill-rule: nonzero; opacity: 1;" x="-43.5" y="-15" rx="7" ry="7" width="87" height="30"/>
</g>
		<g transform="matrix(1 0 0 1 56.319 -49.875)">
<path style="stroke: none; stroke-width: 1; stroke-dasharray: none; stroke-linecap: butt; stroke-dashoffset: 0; stroke-linejoin: miter; stroke-miterlimit: 4; is-custom-font: none; font-file-url: none; fill: rgb(255,255,255); fill-rule: nonzero; opacity: 1;" transform=" translate(-181.319, -75.125)" d="M 154.513 77.5308 C 154.513 78.3475 154.216 78.9844 153.624 79.4414 C 153.032 79.8984 152.228 80.127 151.212 80.127 C 150.112 80.127 149.265 79.9852 148.673 79.7017 V 78.6606 C 149.054 78.8215 149.468 78.9484 149.917 79.0415 C 150.366 79.1346 150.81 79.1812 151.25 79.1812 C 151.969 79.1812 152.511 79.0457 152.875 78.7749 C 153.239 78.4998 153.421 78.119 153.421 77.6323 C 153.421 77.3107 153.355 77.0483 153.224 76.8452 C 153.097 76.6379 152.881 76.4474 152.577 76.2739 C 152.276 76.1004 151.817 75.9036 151.199 75.6836 C 150.336 75.3747 149.718 75.0086 149.346 74.5854 C 148.978 74.1623 148.793 73.61 148.793 72.9287 C 148.793 72.2135 149.062 71.6444 149.6 71.2212 C 150.137 70.798 150.848 70.5864 151.732 70.5864 C 152.655 70.5864 153.503 70.7557 154.278 71.0942 L 153.941 72.0337 C 153.175 71.7121 152.431 71.5513 151.707 71.5513 C 151.136 71.5513 150.689 71.674 150.368 71.9194 C 150.046 72.1649 149.885 72.5055 149.885 72.9414 C 149.885 73.263 149.944 73.5275 150.063 73.7349 C 150.181 73.938 150.38 74.1263 150.66 74.2998 C 150.943 74.4691 151.375 74.6574 151.955 74.8647 C 152.928 75.2118 153.597 75.5841 153.96 75.9819 C 154.329 76.3797 154.513 76.896 154.513 77.5308 Z M 160.53 80 L 160.321 79.0098 H 160.27 C 159.923 79.4456 159.576 79.7419 159.229 79.8984 C 158.886 80.0508 158.457 80.127 157.94 80.127 C 157.251 80.127 156.709 79.9492 156.315 79.5938 C 155.926 79.2383 155.731 78.7326 155.731 78.0767 C 155.731 76.6717 156.855 75.9354 159.102 75.8677 L 160.283 75.8296 V 75.3979 C 160.283 74.8521 160.164 74.45 159.927 74.1919 C 159.694 73.9295 159.32 73.7983 158.804 73.7983 C 158.224 73.7983 157.568 73.9761 156.836 74.3315 L 156.512 73.5254 C 156.855 73.3392 157.229 73.1932 157.636 73.0874 C 158.046 72.9816 158.457 72.9287 158.867 72.9287 C 159.697 72.9287 160.31 73.1128 160.708 73.481 C 161.11 73.8491 161.311 74.4395 161.311 75.252 V 80 H 160.53 Z M 158.15 79.2573 C 158.806 79.2573 159.32 79.0775 159.692 78.7178 C 160.069 78.3581 160.257 77.8545 160.257 77.207 V 76.5786 L 159.204 76.623 C 158.366 76.6527 157.761 76.7839 157.388 77.0166 C 157.02 77.2451 156.836 77.6027 156.836 78.0894 C 156.836 78.4702 156.95 78.7601 157.179 78.959 C 157.411 79.1579 157.735 79.2573 158.15 79.2573 Z M 165.012 80 L 162.371 73.043 H 163.501 L 164.999 77.1689 C 165.338 78.1338 165.536 78.7601 165.596 79.0479 H 165.646 C 165.693 78.8236 165.839 78.3602 166.084 77.6577 C 166.334 76.951 166.891 75.4128 167.754 73.043 H 168.884 L 166.243 80 H 165.012 Z M 172.94 80.127 C 171.912 80.127 171.099 79.8138 170.502 79.1875 C 169.91 78.5612 169.614 77.6916 169.614 76.5786 C 169.614 75.4572 169.889 74.5664 170.439 73.9062 C 170.993 73.2461 171.736 72.916 172.667 72.916 C 173.539 72.916 174.229 73.2038 174.736 73.7793 C 175.244 74.3506 175.498 75.106 175.498 76.0454 V 76.7119 H 170.706 C 170.727 77.5286 170.932 78.1486 171.321 78.5718 C 171.715 78.995 172.267 79.2065 172.978 79.2065 C 173.727 79.2065 174.468 79.05 175.2 78.7368 V 79.6763 C 174.827 79.8371 174.474 79.9513 174.14 80.019 C 173.81 80.091 173.41 80.127 172.94 80.127 Z M 172.654 73.7983 C 172.096 73.7983 171.649 73.9803 171.315 74.3442 C 170.985 74.7082 170.79 75.2118 170.731 75.855 H 174.368 C 174.368 75.1906 174.22 74.6828 173.924 74.3315 C 173.628 73.9761 173.204 73.7983 172.654 73.7983 Z M 183.852 72.916 C 184.16 72.916 184.438 72.9414 184.683 72.9922 L 184.537 73.9697 C 184.249 73.9062 183.995 73.8745 183.775 73.8745 C 183.213 73.8745 182.73 74.103 182.328 74.5601 C 181.93 75.0171 181.731 75.5863 181.731 76.2676 V 80 H 180.678 V 73.043 H 181.547 L 181.668 74.3315 H 181.719 C 181.977 73.8787 182.288 73.5296 182.652 73.2842 C 183.016 73.0387 183.416 72.916 183.852 72.916 Z M 188.923 80.127 C 187.895 80.127 187.083 79.8138 186.486 79.1875 C 185.893 78.5612 185.597 77.6916 185.597 76.5786 C 185.597 75.4572 185.872 74.5664 186.422 73.9062 C 186.977 73.2461 187.719 72.916 188.65 72.916 C 189.522 72.916 190.212 73.2038 190.72 73.7793 C 191.228 74.3506 191.481 75.106 191.481 76.0454 V 76.7119 H 186.689 C 186.71 77.5286 186.915 78.1486 187.305 78.5718 C 187.698 78.995 188.25 79.2065 188.961 79.2065 C 189.71 79.2065 190.451 79.05 191.183 78.7368 V 79.6763 C 190.811 79.8371 190.457 79.9513 190.123 80.019 C 189.793 80.091 189.393 80.127 188.923 80.127 Z M 188.638 73.7983 C 188.079 73.7983 187.633 73.9803 187.298 74.3442 C 186.968 74.7082 186.774 75.2118 186.714 75.855 H 190.352 C 190.352 75.1906 190.203 74.6828 189.907 74.3315 C 189.611 73.9761 189.188 73.7983 188.638 73.7983 Z M 197.772 78.1021 C 197.772 78.7495 197.531 79.2489 197.048 79.6001 C 196.566 79.9513 195.889 80.127 195.017 80.127 C 194.095 80.127 193.375 79.981 192.859 79.689 V 78.7114 C 193.193 78.8807 193.551 79.014 193.932 79.1113 C 194.317 79.2087 194.687 79.2573 195.042 79.2573 C 195.593 79.2573 196.016 79.1706 196.312 78.9971 C 196.608 78.8193 196.756 78.5506 196.756 78.1909 C 196.756 77.9201 196.638 77.6895 196.401 77.499 C 196.168 77.3044 195.711 77.0758 195.03 76.8135 C 194.382 76.5723 193.921 76.3628 193.646 76.1851 C 193.375 76.0031 193.172 75.7979 193.037 75.5693 C 192.905 75.3408 192.84 75.0679 192.84 74.7505 C 192.84 74.1834 193.07 73.737 193.532 73.4111 C 193.993 73.0811 194.626 72.916 195.43 72.916 C 196.179 72.916 196.911 73.0684 197.626 73.373 L 197.251 74.23 C 196.553 73.9422 195.921 73.7983 195.354 73.7983 C 194.854 73.7983 194.478 73.8766 194.224 74.0332 C 193.97 74.1898 193.843 74.4056 193.843 74.6807 C 193.843 74.8669 193.889 75.0256 193.982 75.1567 C 194.08 75.2879 194.234 75.4128 194.446 75.5312 C 194.657 75.6497 195.064 75.8211 195.665 76.0454 C 196.49 76.3459 197.046 76.6484 197.334 76.9531 C 197.626 77.2578 197.772 77.6408 197.772 78.1021 Z M 200.482 73.043 V 77.5562 C 200.482 78.1232 200.611 78.5464 200.87 78.8257 C 201.128 79.105 201.532 79.2446 202.082 79.2446 C 202.81 79.2446 203.341 79.0457 203.675 78.6479 C 204.014 78.2502 204.183 77.6006 204.183 76.6992 V 73.043 H 205.237 V 80 H 204.367 L 204.215 79.0669 H 204.158 C 203.942 79.4097 203.641 79.672 203.256 79.854 C 202.875 80.036 202.44 80.127 201.949 80.127 C 201.102 80.127 200.468 79.9259 200.044 79.5239 C 199.625 79.1219 199.416 78.4787 199.416 77.5942 V 73.043 H 200.482 Z M 208.531 80 H 207.478 V 70.123 H 208.531 V 80 Z M 213.013 79.2573 C 213.199 79.2573 213.379 79.2446 213.552 79.2192 C 213.726 79.1896 213.863 79.16 213.965 79.1304 V 79.9365 C 213.851 79.9915 213.681 80.036 213.457 80.0698 C 213.237 80.1079 213.038 80.127 212.86 80.127 C 211.515 80.127 210.842 79.4181 210.842 78.0005 V 73.8618 H 209.845 V 73.354 L 210.842 72.916 L 211.286 71.4307 H 211.896 V 73.043 H 213.914 V 73.8618 H 211.896 V 77.9561 C 211.896 78.375 211.995 78.6966 212.194 78.9209 C 212.393 79.1452 212.666 79.2573 213.013 79.2573 Z" stroke-linecap="round"/>
</g>
</g>
</g>
</svg>