<svg id="visual" viewBox="0 0 900 450" width="900" height="450" xmlns="http://www.w3.org/2000/svg" xmlns:xlink="http://www.w3.org/1999/xlink" version="1.1"><path d="M0 64L37.5 62.5C75 61 150 58 225 59.5C300 61 375 67 450 67.8C525 68.7 600 64.3 675 59.8C750 55.3 825 50.7 862.5 48.3L900 46L900 0L862.5 0C825 0 750 0 675 0C600 0 525 0 450 0C375 0 300 0 225 0C150 0 75 0 37.5 0L0 0Z" fill="#0d0d3b"></path><path d="M0 168L37.5 178.5C75 189 150 210 225 204.7C300 199.3 375 167.7 450 150.3C525 133 600 130 675 143.5C750 157 825 187 862.5 202L900 217L900 44L862.5 46.3C825 48.7 750 53.3 675 57.8C600 62.3 525 66.7 450 65.8C375 65 300 59 225 57.5C150 56 75 59 37.5 60.5L0 62Z" fill="#3a3666"></path><path d="M0 231L37.5 247.5C75 264 150 297 225 293.2C300 289.3 375 248.7 450 230.7C525 212.7 600 217.3 675 228.7C750 240 825 258 862.5 267L900 276L900 215L862.5 200C825 185 750 155 675 141.5C600 128 525 131 450 148.3C375 165.7 300 197.3 225 202.7C150 208 75 187 37.5 176.5L0 166Z" fill="#676493"></path><path d="M0 280L37.5 296.5C75 313 150 346 225 347.5C300 349 375 319 450 304C525 289 600 289 675 296.5C750 304 825 319 862.5 326.5L900 334L900 274L862.5 265C825 256 750 238 675 226.7C600 215.3 525 210.7 450 228.7C375 246.7 300 287.3 225 291.2C150 295 75 262 37.5 245.5L0 229Z" fill="#9795c3"></path><path d="M0 451L37.5 451C75 451 150 451 225 451C300 451 375 451 450 451C525 451 600 451 675 451C750 451 825 451 862.5 451L900 451L900 332L862.5 324.5C825 317 750 302 675 294.5C600 287 525 287 450 302C375 317 300 347 225 345.5C150 344 75 311 37.5 294.5L0 278Z" fill="#cacaf4"></path></svg>