<svg id="visual" viewBox="0 0 900 450" width="900" height="450" xmlns="http://www.w3.org/2000/svg" xmlns:xlink="http://www.w3.org/1999/xlink" version="1.1"><rect x="0" y="0" width="900" height="450" fill="#ffffff"></rect><path d="M0 225L21.5 228.3C43 231.7 86 238.3 128.8 231.5C171.7 224.7 214.3 204.3 257.2 187.3C300 170.3 343 156.7 385.8 169C428.7 181.3 471.3 219.7 514.2 227.2C557 234.7 600 211.3 642.8 191.3C685.7 171.3 728.3 154.7 771.2 159.2C814 163.7 857 189.3 878.5 202.2L900 215L900 451L878.5 451C857 451 814 451 771.2 451C728.3 451 685.7 451 642.8 451C600 451 557 451 514.2 451C471.3 451 428.7 451 385.8 451C343 451 300 451 257.2 451C214.3 451 171.7 451 128.8 451C86 451 43 451 21.5 451L0 451Z" fill="#efefff"></path><path d="M0 257L21.5 259.2C43 261.3 86 265.7 128.8 257C171.7 248.3 214.3 226.7 257.2 225.7C300 224.7 343 244.3 385.8 256C428.7 267.7 471.3 271.3 514.2 269.7C557 268 600 261 642.8 252.8C685.7 244.7 728.3 235.3 771.2 236.2C814 237 857 248 878.5 253.5L900 259L900 451L878.5 451C857 451 814 451 771.2 451C728.3 451 685.7 451 642.8 451C600 451 557 451 514.2 451C471.3 451 428.7 451 385.8 451C343 451 300 451 257.2 451C214.3 451 171.7 451 128.8 451C86 451 43 451 21.5 451L0 451Z" fill="#daddff"></path><path d="M0 310L21.5 317.2C43 324.3 86 338.7 128.8 339.7C171.7 340.7 214.3 328.3 257.2 324.5C300 320.7 343 325.3 385.8 319.7C428.7 314 471.3 298 514.2 294.5C557 291 600 300 642.8 308.2C685.7 316.3 728.3 323.7 771.2 328.8C814 334 857 337 878.5 338.5L900 340L900 451L878.5 451C857 451 814 451 771.2 451C728.3 451 685.7 451 642.8 451C600 451 557 451 514.2 451C471.3 451 428.7 451 385.8 451C343 451 300 451 257.2 451C214.3 451 171.7 451 128.8 451C86 451 43 451 21.5 451L0 451Z" fill="#c1cbff"></path><path d="M0 342L21.5 346C43 350 86 358 128.8 362.2C171.7 366.3 214.3 366.7 257.2 362.7C300 358.7 343 350.3 385.8 352.8C428.7 355.3 471.3 368.7 514.2 373.2C557 377.7 600 373.3 642.8 371.8C685.7 370.3 728.3 371.7 771.2 366.8C814 362 857 351 878.5 345.5L900 340L900 451L878.5 451C857 451 814 451 771.2 451C728.3 451 685.7 451 642.8 451C600 451 557 451 514.2 451C471.3 451 428.7 451 385.8 451C343 451 300 451 257.2 451C214.3 451 171.7 451 128.8 451C86 451 43 451 21.5 451L0 451Z" fill="#a5bbff"></path></svg>