<svg xmlns="http://www.w3.org/2000/svg" version="1.1" xmlns:xlink="http://www.w3.org/1999/xlink" xmlns:svgjs="http://svgjs.dev/svgjs" width="1000" height="237" viewBox="0 0 1000 237"><g transform="matrix(1,0,0,1,-0.6060606060606801,0.27098065909200386)"><svg viewBox="0 0 396 94" data-background-color="#ffffff" preserveAspectRatio="xMidYMid meet" height="237" width="1000" xmlns="http://www.w3.org/2000/svg" xmlns:xlink="http://www.w3.org/1999/xlink"><g id="tight-bounds" transform="matrix(1,0,0,1,0.24000000000003752,-0.10747756099007688)"><svg viewBox="0 0 395.5199999999999 94.21495512198015" height="94.21495512198015" width="395.5199999999999"><g><svg viewBox="0 0 395.5199999999999 94.21495512198015" height="94.21495512198015" width="395.5199999999999"><g><svg viewBox="0 0 534.6414038896025 127.3544090660684" height="94.21495512198015" width="395.5199999999999"><g transform="matrix(1,0,0,1,139.1214038896025,17.60107969002827)"><svg viewBox="0 0 395.52 92.15224968601186" height="92.15224968601186" width="395.52"><g id="textblocktransform"><svg viewBox="0 0 395.52 92.15224968601186" height="92.15224968601186" width="395.52" id="textblock"><g><svg viewBox="0 0 395.52 49.81894736842106" height="49.81894736842106" width="395.52"><g transform="matrix(1,0,0,1,0,0)"><svg width="395.52" viewBox="1.1 -35.45 286.64 36.11" height="49.81894736842106" data-palette-color="#16163b"><g class="wordmark-text-0" data-fill-palette-color="primary" id="text-0"><path d="M1.1-33.62L1.1-34.3Q1.1-34.5 1.29-34.5L1.29-34.5 1.83-34.5 9.67-34.67Q11.08-34.72 12.74-34.72L12.74-34.72 15.8-34.72Q20.04-34.72 22.18-34.4 24.32-34.08 26.38-33.65 28.44-33.23 30.77-31.71 33.11-30.2 34.81-28.05L34.81-28.05Q38.43-23.46 38.43-18.14 38.43-12.82 35.64-8.59L35.64-8.59Q31.64-2.47 24.05-0.59L24.05-0.59Q21.63 0 19.09 0L19.09 0 1.29 0Q1.1 0 1.1-0.2L1.1-0.2 1.1-0.88Q1.1-1.07 1.29-1.07L1.29-1.07 1.83-1.07Q6.27-1.07 6.27-3.91L6.27-3.91 6.27-30.66Q6.27-32.03 5.22-32.73 4.17-33.42 2.86-33.42L2.86-33.42 1.29-33.42Q1.1-33.42 1.1-33.62L1.1-33.62ZM18.29-33.57L11.65-33.57Q11.04-33.57 11.04-32.91L11.04-32.91 11.04-3.05Q11.04-1.25 14.43-1.17L14.43-1.17Q15.43-1.15 16.53-1.15L16.53-1.15Q24.32-1.15 28.77-5.52 33.23-9.89 33.23-17.15 33.23-24.41 29.11-28.99 25-33.57 18.29-33.57L18.29-33.57ZM60.42-12.87L46.26-12.87Q45.85-12.87 45.85-11.08L45.85-11.08Q45.85-7.3 48.09-4.74 50.34-2.17 53.67-2.17 57-2.17 60.08-5.05L60.08-5.05Q60.13-5.1 60.2-5.1L60.2-5.1 60.32-5.1Q60.47-5.1 60.61-4.87 60.74-4.64 60.86-4.57L60.86-4.57Q58.03-1.12 54.2 0.2L54.2 0.2Q52.88 0.66 51.22 0.66 49.56 0.66 47.85-0.26 46.14-1.17 44.92-2.66L44.92-2.66Q42.33-5.76 42.33-10.39 42.33-15.01 45.15-18.82 47.97-22.63 52.9-22.63L52.9-22.63Q56.44-22.63 58.69-19.47 60.94-16.31 60.94-13.92L60.94-13.92Q60.94-12.87 60.42-12.87L60.42-12.87ZM46.53-15.5L46.53-15.21Q46.53-14.75 46.97-14.75L46.97-14.75 56.17-14.75Q56.81-14.75 56.81-15.5L56.81-15.5Q56.81-17.26 55.23-19.1 53.66-20.95 51.78-20.95L51.78-20.95Q49.95-20.95 48.45-19.29 46.95-17.63 46.53-15.5L46.53-15.5ZM79.88-17.5L79.88-17.5Q79.58-17.55 79.02-17.82L79.02-17.82Q77-18.75 75.85-18.75 74.7-18.75 73.44-17.32 72.19-15.89 72.19-14.75L72.19-14.75 72.19-3.71Q72.19-1.88 74.31-1.27L74.31-1.27Q75.24-1.03 76.04-0.92 76.85-0.81 77.08-0.71 77.31-0.61 77.31-0.33 77.31-0.05 77.07 0L77.07 0 64.84 0Q64.59-0.05 64.59-0.34L64.59-0.34Q64.59-0.78 65.74-0.93L65.74-0.93Q68.38-1.32 68.38-3.71L68.38-3.71 68.38-16.63Q68.38-17.65 67.26-18.04L67.26-18.04Q66.77-18.21 66.21-18.32 65.64-18.43 65.31-18.53 64.99-18.63 64.9-18.71 64.81-18.8 64.81-19.08 64.81-19.36 65.18-19.56L65.18-19.56 71.41-22.49Q71.7-22.63 71.77-22.63L71.77-22.63Q72.19-22.63 72.19-22.05L72.19-22.05 72.19-18.09Q72.19-17.8 72.33-17.8L72.33-17.8Q72.53-17.8 73.33-18.95L73.33-18.95Q75.65-22.19 77.17-22.19L77.17-22.19Q78.02-22.19 79.79-21.51 81.56-20.83 81.56-20.36L81.56-20.36Q81.56-19.8 81-18.65 80.44-17.5 79.88-17.5ZM115.45-7.69L115.45-7.69 115.4-12.84Q115.4-15.99 114.86-17.26 114.32-18.53 113.49-19.18 112.66-19.82 111.26-19.82 109.86-19.82 105.31-17.63L105.31-17.63Q104.7-17.26 104.68-16.94L104.68-16.94 104.68-3.81Q104.68-1.34 107.32-0.98L107.32-0.98Q108.46-0.81 108.46-0.43 108.46-0.05 108.22 0L108.22 0 97.33 0Q97.09-0.05 97.09-0.34L97.09-0.34Q97.09-0.81 98.23-0.98L98.23-0.98Q100.87-1.34 100.87-3.81L100.87-3.81 100.87-15.97Q100.87-19.8 96.14-19.8L96.14-19.8Q94.4-19.8 91.33-17.75L91.33-17.75Q90.54-17.24 90.18-16.8L90.18-16.8 90.18-3.81Q90.18-1.34 92.81-0.98L92.81-0.98Q93.96-0.81 93.96-0.43 93.96-0.05 93.72 0L93.72 0 82.83 0Q82.59-0.05 82.59-0.34L82.59-0.34Q82.59-0.81 83.73-0.98L83.73-0.98Q86.37-1.34 86.37-3.76L86.37-3.76 86.37-17.82Q86.37-18.85 85.25-19.24L85.25-19.24Q84.76-19.41 84.2-19.52 83.64-19.63 83.31-19.73 82.98-19.82 82.89-19.91 82.81-20 82.81-20.28 82.81-20.56 83.17-20.75L83.17-20.75 89.4-23.68Q89.69-23.83 89.76-23.83L89.76-23.83Q90.18-23.83 90.18-23.24L90.18-23.24 90.18-19.19Q90.2-19.04 90.36-19.04 90.52-19.04 91.17-19.38 91.81-19.73 92.86-20.35 93.91-20.97 95.63-21.8 97.36-22.63 99.28-22.63L99.28-22.63Q102.39-22.63 103.73-19.97L103.73-19.97Q104.24-18.9 104.66-19.06 105.07-19.21 105.95-19.65L105.95-19.65Q108.02-20.68 110.15-21.66 112.27-22.63 113.66-22.63L113.66-22.63Q119.3-22.63 119.3-12.35L119.3-12.35 119.08-5.22 119.08-3.81Q119.08-1.9 120.99-1.32L120.99-1.32Q121.79-1.05 122.54-0.94 123.28-0.83 123.52-0.73 123.75-0.63 123.75-0.34 123.75-0.05 123.5 0L123.5 0 111.74 0Q111.49-0.05 111.49-0.34L111.49-0.34Q111.49-0.81 112.64-0.98L112.64-0.98Q115.25-1.34 115.25-4L115.25-4Q115.45-5.22 115.45-7.69ZM160.05-8.35L156.68-0.93Q156.56-0.73 156.08-0.84 155.61-0.95 154.97-0.95 154.34-0.95 153.18-0.7 152.02-0.44 149.53 0.11 147.04 0.66 144.99 0.66L144.99 0.66Q140.35 0.66 135.99-1.53 131.63-3.71 129.02-7.73 126.41-11.74 126.41-17.04 126.41-22.34 129.02-26.64L129.02-26.64Q132.83-32.93 140.49-34.84L140.49-34.84Q142.93-35.45 145.38-35.45L145.38-35.45Q148.72-35.45 153.31-34.33L153.31-34.33Q154.7-33.98 155.67-33.62 156.63-33.25 156.85-33.25L156.85-33.25 157.58-33.45 158.34-33.45Q158.63-33.45 158.63-33.03L158.63-33.03 158.63-25.44Q158.63-25.2 158.19-25.2 157.75-25.2 157.68-25.31 157.61-25.42 157.53-25.57 157.46-25.73 157.38-25.9 157.29-26.07 157.2-26.22 157.12-26.37 157.09-26.44L157.09-26.44Q153.43-33.79 145.99-33.79L145.99-33.79Q139.27-33.79 135.49-29.52 131.7-25.24 131.7-18.2 131.7-11.16 135.87-6.1 140.03-1.05 147.18-1.05L147.18-1.05Q151.09-1.05 154.3-3.37 157.51-5.69 159.34-9.06L159.34-9.06Q159.39-9.2 159.63-9.2L159.63-9.2 159.95-9.2Q160.2-9.2 160.2-8.91 160.2-8.62 160.05-8.35L160.05-8.35ZM178.87-4.03Q178.87-3.39 179.47-3.02 180.07-2.64 180.85-2.64 181.63-2.64 182.15-3.04 182.68-3.44 182.87-3.44 183.07-3.44 183.07-2.92 183.07-2.39 182.58-2.03L182.58-2.03Q178.92 0.66 177.62 0.66L177.62 0.66Q176.06 0.66 175.09-2.59L175.09-2.59Q175.01-2.83 174.96-2.81L174.96-2.81Q171.94-0.54 171.15-0.07L171.15-0.07Q169.15 1.07 167.14 0.29 165.12-0.49 164.22-2.29L164.22-2.29Q163.78-3.22 163.78-4.27L163.78-4.27Q163.78-6.35 165.32-7.57 166.86-8.79 171.18-9.91L171.18-9.91Q172.64-10.3 173.79-10.91 174.94-11.52 175-11.69 175.06-11.87 175.06-12.01L175.06-12.01 175.06-16.7Q175.06-19.46 172.91-20.58L172.91-20.58Q172.2-20.95 171.22-20.95 170.23-20.95 169.21-20.17 168.2-19.38 168.2-17.94L168.2-17.94 168.32-16.99Q168.18-16.7 166.56-16.02 164.95-15.33 164.71-15.28L164.71-15.28Q164.32-15.28 164.32-16.22 164.32-17.16 164.88-18.31 165.44-19.46 166.47-20.41L166.47-20.41Q168.86-22.63 171.94-22.63 175.01-22.63 176.94-20.94 178.87-19.24 178.87-16.89L178.87-16.89 178.87-4.03ZM167.61-4.74Q167.61-3.56 168.52-2.7 169.42-1.83 170.58-1.83 171.74-1.83 173.4-2.82 175.06-3.81 175.06-4.86L175.06-4.86 175.06-9.81Q175.06-10.08 174.94-10.08 174.82-10.08 174.77-10.06L174.77-10.06 169.1-7.42Q168.22-6.79 167.92-6.35 167.61-5.91 167.61-4.74ZM200.23-17.5L200.23-17.5Q199.94-17.55 199.37-17.82L199.37-17.82Q197.35-18.75 196.2-18.75 195.05-18.75 193.8-17.32 192.54-15.89 192.54-14.75L192.54-14.75 192.54-3.71Q192.54-1.88 194.66-1.27L194.66-1.27Q195.59-1.03 196.4-0.92 197.2-0.81 197.43-0.71 197.67-0.61 197.67-0.33 197.67-0.05 197.42 0L197.42 0 185.19 0Q184.95-0.05 184.95-0.34L184.95-0.34Q184.95-0.78 186.09-0.93L186.09-0.93Q188.73-1.32 188.73-3.71L188.73-3.71 188.73-16.63Q188.73-17.65 187.61-18.04L187.61-18.04Q187.12-18.21 186.56-18.32 186-18.43 185.67-18.53 185.34-18.63 185.25-18.71 185.17-18.8 185.17-19.08 185.17-19.36 185.53-19.56L185.53-19.56 191.76-22.49Q192.05-22.63 192.12-22.63L192.12-22.63Q192.54-22.63 192.54-22.05L192.54-22.05 192.54-18.09Q192.54-17.8 192.69-17.8L192.69-17.8Q192.88-17.8 193.69-18.95L193.69-18.95Q196.01-22.19 197.52-22.19L197.52-22.19Q198.37-22.19 200.14-21.51 201.91-20.83 201.91-20.36L201.91-20.36Q201.91-19.8 201.35-18.65 200.79-17.5 200.23-17.5ZM221.71-12.87L207.55-12.87Q207.14-12.87 207.14-11.08L207.14-11.08Q207.14-7.3 209.38-4.74 211.63-2.17 214.96-2.17 218.29-2.17 221.37-5.05L221.37-5.05Q221.42-5.1 221.49-5.1L221.49-5.1 221.61-5.1Q221.76-5.1 221.89-4.87 222.03-4.64 222.15-4.57L222.15-4.57Q219.32-1.12 215.49 0.2L215.49 0.2Q214.17 0.66 212.51 0.66 210.85 0.66 209.14-0.26 207.43-1.17 206.21-2.66L206.21-2.66Q203.62-5.76 203.62-10.39 203.62-15.01 206.44-18.82 209.26-22.63 214.19-22.63L214.19-22.63Q217.73-22.63 219.98-19.47 222.22-16.31 222.22-13.92L222.22-13.92Q222.22-12.87 221.71-12.87L221.71-12.87ZM207.82-15.5L207.82-15.21Q207.82-14.75 208.26-14.75L208.26-14.75 217.46-14.75Q218.1-14.75 218.1-15.5L218.1-15.5Q218.1-17.26 216.52-19.1 214.95-20.95 213.07-20.95L213.07-20.95Q211.24-20.95 209.74-19.29 208.23-17.63 207.82-15.5L207.82-15.5ZM227.79-2.45Q227.79-3.76 228.72-4.72 229.64-5.69 230.96-5.69L230.96-5.69Q232.26-5.69 233.2-4.75 234.14-3.81 234.14-2.47 234.14-1.12 233.21-0.23 232.28 0.66 230.96 0.66L230.96 0.66Q229.67 0.66 228.73-0.24 227.79-1.15 227.79-2.45ZM250.29-0.78L250.29-0.2Q250.29 0 250.1 0L250.1 0 237.62 0Q237.43 0 237.43-0.2L237.43-0.2 237.43-0.78Q237.43-0.98 237.75-0.98L237.75-0.98Q241.09-1.12 242.26-4.54L242.26-4.54 252.22-33.37Q252.25-33.42 252.25-33.5L252.25-33.5 251.98-34.3Q251.98-34.42 252.08-34.42L252.08-34.42 256.96-34.42Q257.01-34.4 257.09-34.38 257.18-34.35 257.23-34.23L257.23-34.23 267.56-5.25Q267.9-4.59 268.1-4.05 268.31-3.52 268.58-3.08L268.58-3.08Q269.17-2.08 270.51-1.54L270.51-1.54Q271.63-0.98 272.56-0.98L272.56-0.98Q272.76-0.98 272.76-0.76L272.76-0.76 272.76-0.2Q272.76 0 272.56 0L272.56 0 257.62 0Q257.42 0 257.42-0.2L257.42-0.2 257.42-0.78Q257.42-0.98 258.33-1.03 259.23-1.07 259.82-1.12L259.82-1.12Q263.21-1.49 263.21-3.42L263.21-3.42Q263.21-3.56 263.16-3.76L263.16-3.76 259.47-14.16Q259.45-14.21 259.38-14.38L259.38-14.38Q259.08-15.21 258.35-15.21L258.35-15.21 249.68-15.21Q248.95-15.21 248.54-14.4L248.54-14.4Q248.46-14.23 248.46-14.21L248.46-14.21 244.8-3.49 244.8-3.27Q244.8-2.64 245.46-2.12L245.46-2.12Q246.95-0.98 249.46-0.98L249.46-0.98 250.1-0.98Q250.29-0.98 250.29-0.78L250.29-0.78ZM250.32-17.92L257.52-17.92Q257.96-17.92 257.96-18.29L257.96-18.29Q257.96-18.48 257.86-18.73L257.86-18.73 254.23-28.74Q253.98-29.39 253.86-29.39L253.86-29.39Q253.74-29.39 253.47-28.71L253.47-28.71 250.05-18.73Q249.95-18.48 249.95-18.2 249.95-17.92 250.32-17.92L250.32-17.92ZM279.03-4.47L279.03-30.52Q279.03-33.45 275.66-33.45L275.66-33.45Q275.12-33.45 275.12-33.64L275.12-33.64 275.12-34.23Q275.12-34.42 275.32-34.42L275.32-34.42 287.55-34.42Q287.74-34.42 287.74-34.23L287.74-34.23 287.74-33.64Q287.74-33.45 286.67-33.45 285.6-33.45 284.69-32.76 283.79-32.08 283.79-29.96L283.79-29.96 283.79-3.91Q283.79-0.98 287.18-0.98L287.18-0.98Q287.69-0.98 287.69-0.78L287.69-0.78 287.69-0.2Q287.69 0 287.5 0L287.5 0 275.27 0Q275.07 0 275.07-0.2L275.07-0.2 275.07-0.78Q275.07-0.98 276.15-0.98 277.22-0.98 278.12-1.66 279.03-2.34 279.03-4.47L279.03-4.47Z" fill="#16163b" data-fill-palette-color="primary"></path></g></svg></g></svg></g><g transform="matrix(1,0,0,1,0,61.58000518736843)"><svg viewBox="0 0 232.20979200000002 30.57224449864344" height="30.57224449864344" width="232.20979200000002"><g transform="matrix(1,0,0,1,0,0)"><svg width="232.20979200000002" viewBox="0.05 -33.89 341.9 45.02" height="30.57224449864344" data-palette-color="#151e72"><path d="M8.35 0L0.15 0 0.05-1.86 2.44-2.54 12.5-27.83 15.33-29.54 25.98-2.54 28.42-1.86 28.27 0 18.41 0 18.31-1.86 21.29-2.54 18.41-9.77 17.87-11.28 12.55-24.56 13.67-25.2 8.59-11.28 8.06-9.81 5.47-2.54 8.45-1.86 8.35 0ZM6.98-9.03L6.98-9.03 6.98-11.62Q7.91-11.57 9.52-11.52 11.13-11.47 13.48-11.47L13.48-11.47Q15.77-11.47 17.41-11.52 19.04-11.57 19.92-11.62L19.92-11.62 19.92-9.03Q18.26-9.08 16.63-9.11 14.99-9.13 13.48-9.13L13.48-9.13Q12.01-9.13 10.42-9.11 8.84-9.08 6.98-9.03ZM41.21 0L30.81 0 30.71-1.86 33.69-2.54Q33.79-2.78 33.81-3.66 33.84-4.54 33.86-6.05 33.88-7.57 33.88-9.72L33.88-9.72 33.88-18.9Q33.88-21.09 33.86-22.63 33.84-24.17 33.81-25.07 33.79-25.98 33.69-26.12L33.69-26.12 30.71-26.81 30.81-28.66 41.21-28.66 41.31-26.81 38.33-26.12Q38.23-25.98 38.16-25.17 38.08-24.37 38.06-22.85 38.03-21.34 38.03-18.9L38.03-18.9 38.03-9.72Q38.03-7.37 38.06-5.86 38.08-4.35 38.16-3.54 38.23-2.73 38.33-2.54L38.33-2.54 41.31-1.86 41.21 0ZM55.22-26.81L55.31-28.66 67.13-28.66Q74.85-28.66 79.17-24.98 83.49-21.29 83.49-14.65L83.49-14.65Q83.49-10.35 81.49-7.03 79.48-3.71 75.92-1.86 72.36 0 67.72 0L67.72 0 55.31 0 55.22-1.86 58.2-2.54Q58.29-2.98 58.37-5.03 58.44-7.08 58.44-9.72L58.44-9.72 58.44-18.9Q58.44-21.83 58.37-23.83 58.29-25.83 58.2-26.12L58.2-26.12 55.22-26.81ZM62.69-26.03L62.69-26.03Q62.69-25.54 62.66-24.78 62.64-24.02 62.61-22.66 62.59-21.29 62.59-18.9L62.59-18.9 62.59-9.72Q62.59-8.25 62.61-6.96 62.64-5.66 62.71-4.64 62.79-3.61 62.83-2.93L62.83-2.93Q64.4-2.73 65.64-2.61 66.89-2.49 68.06-2.49L68.06-2.49Q73.23-2.49 75.92-5.25 78.61-8.01 78.61-13.23L78.61-13.23Q78.61-16.41 77.82-18.85 77.04-21.29 75.51-22.97 73.97-24.66 71.75-25.51 69.52-26.37 66.59-26.37L66.59-26.37Q65.72-26.37 64.74-26.29 63.76-26.22 62.69-26.03ZM98.33 0.39L98.33 0.39Q95.5 0.39 93.2-0.88 90.91-2.15 89.59-4.52 88.27-6.88 88.27-10.11L88.27-10.11Q88.27-13.57 89.69-16.11 91.1-18.65 93.4-20.04 95.69-21.44 98.33-21.39L98.33-21.39Q102.14-21.34 104.29-18.87 106.44-16.41 106.44-11.82L106.44-11.82 106.44-10.94 91.45-10.94 91.45-13.09 103.21-13.09 102.68-12.45 102.68-13.48Q102.68-16.26 101.43-17.8 100.19-19.34 97.94-19.34L97.94-19.34Q96.57-19.34 95.3-18.53 94.03-17.72 93.25-16.09 92.47-14.45 92.47-11.96L92.47-11.96 92.47-11.38Q92.47-7.37 94.45-5.13 96.43-2.88 99.55-2.88L99.55-2.88Q101.31-2.88 102.65-3.54 103.99-4.2 105.26-5.76L105.26-5.76 106.48-4.64Q105.12-2.1 103.02-0.85 100.92 0.39 98.33 0.39ZM121.08 0L109.8 0 109.66-1.76 112.68-2.49Q112.73-2.73 112.78-3.34 112.83-3.96 112.85-5.05 112.88-6.15 112.88-7.71L112.88-7.71 112.93-11.52Q112.93-13.13 112.8-14.72 112.68-16.31 112.54-17.19L112.54-17.19 109.41-17.87 109.41-19.48 115.95-21.29 116.64-20.61 116.44-16.5 116.59-16.46Q118.05-19.29 119.54-20.29 121.03-21.29 122.4-21.29L122.4-21.29Q123.52-21.29 124.28-20.7 125.04-20.12 125.04-19.04L125.04-19.04Q125.04-17.92 124.23-17.29 123.43-16.65 122.2-16.65L122.2-16.65Q121.33-16.65 120.52-17.04 119.71-17.43 118.98-18.12L118.98-18.12 119.86-17.82Q118.98-17.24 118.15-16.16 117.32-15.09 116.59-13.57L116.59-13.57 116.64-9.03Q116.69-7.81 116.74-6.52 116.78-5.22 116.83-4.13 116.88-3.03 116.93-2.49L116.93-2.49 121.18-1.86 121.08 0ZM137.39 0L127.52 0 127.43-1.76 130.45-2.49Q130.5-2.83 130.53-3.37 130.55-3.91 130.6-4.93 130.65-5.96 130.65-7.71L130.65-7.71 130.7-11.52Q130.7-12.55 130.65-13.62 130.6-14.7 130.5-15.65 130.4-16.6 130.31-17.19L130.31-17.19 127.18-17.87 127.18-19.48 133.73-21.29 134.56-20.51 134.31-17.87 134.46-17.82Q135.97-19.73 137.58-20.56 139.19-21.39 140.95-21.39L140.95-21.39Q142.66-21.39 144.27-20.46 145.88-19.53 146.93-17.63 147.98-15.72 147.98-12.74L147.98-12.74 148.03-7.57Q148.03-5.81 148.11-4.42 148.18-3.03 148.32-2.49L148.32-2.49 151.25-1.76 151.11 0 141.59 0 141.44-1.76 144.13-2.49Q144.17-2.88 144.22-3.47 144.27-4.05 144.3-4.98 144.32-5.91 144.32-7.23L144.32-7.23 144.27-12.6Q144.27-14.7 143.61-15.97 142.95-17.24 141.88-17.82 140.81-18.41 139.58-18.41L139.58-18.41Q138.12-18.41 136.78-17.68 135.43-16.94 134.41-15.38L134.41-15.38 134.41-8.06Q134.41-5.81 134.48-4.42 134.56-3.03 134.65-2.49L134.65-2.49 137.53-1.76 137.39 0ZM164.78 0L155.06 0 154.92-1.76 157.7-2.49Q157.75-2.88 157.77-3.47 157.8-4.05 157.85-4.98 157.9-5.91 157.9-7.23L157.9-7.23 157.9-12.55Q157.9-14.7 157.16-15.97 156.43-17.24 155.33-17.82 154.23-18.41 153.11-18.41L153.11-18.41Q151.4-18.41 150.01-17.58 148.62-16.75 147.49-15.04L147.49-15.04 146.57-16.85Q148.28-19.19 150.2-20.29 152.13-21.39 154.28-21.39L154.28-21.39Q156.33-21.39 157.99-20.41 159.65-19.43 160.63-17.58 161.61-15.72 161.61-13.09L161.61-13.09 161.61-7.57Q161.61-5.81 161.68-4.42 161.75-3.03 161.85-2.49L161.85-2.49 164.88-1.76 164.78 0ZM175.71 0.39L175.71 0.39Q173.76 0.39 172.25-0.39 170.73-1.17 169.88-2.39 169.03-3.61 169.03-4.93L169.03-4.93Q169.03-6.54 170.08-7.62 171.13-8.69 173.62-9.52L173.62-9.52 181.04-12.01 181.04-14.5Q181.04-15.72 180.3-16.72 179.57-17.72 178.35-18.31 177.13-18.9 175.62-18.9L175.62-18.9Q174.4-18.9 173.96-18.38 173.52-17.87 173.42-16.36L173.42-16.36 173.32-14.31Q171.56-13.92 170.34-14.43 169.12-14.94 169.12-16.11L169.12-16.11Q169.12-16.94 169.86-17.77 170.59-18.6 171.76-19.36 172.93-20.12 174.27-20.65 175.62-21.19 176.94-21.39L176.94-21.39Q180.5-21.39 182.7-19.51 184.89-17.63 184.94-14.5L184.94-14.5 184.85-6.3Q184.85-5.42 184.92-4.52 184.99-3.61 185.14-3.17L185.14-3.17 188.26-2.59 188.26-1.07 185.87-0.2Q185.19 0.1 184.6 0.24 184.02 0.39 183.63 0.39L183.63 0.39Q182.11 0.39 181.67-1.32L181.67-1.32 181.13-3.22 181.87-3.22Q180.26-1.42 178.77-0.51 177.28 0.39 175.71 0.39ZM177.03-2.49L177.03-2.49Q178.16-2.49 179.16-3 180.16-3.52 181.04-4.59L181.04-4.59 181.04-9.72 175.57-8.25Q174.4-7.96 173.88-7.32 173.37-6.69 173.37-5.71L173.37-5.71Q173.37-4.49 174.47-3.49 175.57-2.49 177.03-2.49ZM205.25-4.25L206.13-3.03Q205.2-1.42 203.59-0.51 201.98 0.39 200.22 0.39L200.22 0.39Q197.29 0.39 195.37-1.42 193.44-3.22 193.44-6.84L193.44-6.84 193.58-18.51 190.17-18.51 190.17-19.53 196.46-25.24 197.39-25.24 197.29-19.63 197.25-7.62Q197.25-5.08 198.34-3.86 199.44-2.64 201.44-2.64L201.44-2.64Q202.57-2.64 203.52-3.1 204.47-3.56 205.25-4.25L205.25-4.25ZM204.67-18.51L195.54-18.51 195.54-20.95 204.67-20.95 204.67-18.51ZM218.04 0.39L218.04 0.39Q214.87 0.39 212.5-0.98 210.13-2.34 208.82-4.81 207.5-7.28 207.5-10.45L207.5-10.45Q207.5-13.77 208.94-16.21 210.38-18.65 212.84-20.02 215.31-21.39 218.24-21.39L218.24-21.39Q221.27-21.39 223.51-20.04 225.76-18.7 227.03-16.28 228.3-13.87 228.3-10.64L228.3-10.64Q228.3-7.57 226.93-5.05 225.56-2.54 223.24-1.07 220.92 0.39 218.04 0.39ZM218.53-1.9L218.53-1.9Q220.19-1.9 221.41-2.91 222.63-3.91 223.32-5.69 224-7.47 224-9.77L224-9.77Q224-13.96 222.27-16.58 220.53-19.19 217.7-19.19L217.7-19.19Q215.07-19.19 213.48-17.02 211.89-14.84 211.89-11.18L211.89-11.18Q211.89-8.45 212.75-6.35 213.6-4.25 215.11-3.08 216.63-1.9 218.53-1.9ZM242.06 0L231.66 0 231.57-1.81 234.74-2.49Q234.84-3.03 234.86-4.13 234.89-5.22 234.94-7.08 234.98-8.94 234.98-11.62L234.98-11.62 234.98-17.72Q234.98-19.53 234.96-21.48 234.94-23.44 234.91-25.2 234.89-26.95 234.84-28.2 234.79-29.44 234.79-29.83L234.79-29.83 231.18-30.32 231.08-31.88 238.06-33.89 238.99-33.2Q238.94-31.1 238.89-29.08 238.84-27.05 238.82-24.56 238.79-22.07 238.79-18.55L238.79-18.55 238.74-10.69Q238.74-7.81 238.82-5.49 238.89-3.17 238.99-2.49L238.99-2.49 242.16-1.81 242.06 0ZM255.98 0.39L255.98 0.39Q252.8 0.39 250.44-0.98 248.07-2.34 246.75-4.81 245.43-7.28 245.43-10.45L245.43-10.45Q245.43-13.77 246.87-16.21 248.31-18.65 250.78-20.02 253.24-21.39 256.17-21.39L256.17-21.39Q259.2-21.39 261.45-20.04 263.69-18.7 264.96-16.28 266.23-13.87 266.23-10.64L266.23-10.64Q266.23-7.57 264.87-5.05 263.5-2.54 261.18-1.07 258.86 0.39 255.98 0.39ZM256.47-1.9L256.47-1.9Q258.13-1.9 259.35-2.91 260.57-3.91 261.25-5.69 261.94-7.47 261.94-9.77L261.94-9.77Q261.94-13.96 260.2-16.58 258.47-19.19 255.64-19.19L255.64-19.19Q253-19.19 251.41-17.02 249.83-14.84 249.83-11.18L249.83-11.18Q249.83-8.45 250.68-6.35 251.54-4.25 253.05-3.08 254.56-1.9 256.47-1.9ZM279.61 11.13L279.61 11.13Q275.12 11.13 272.48 9.67 269.84 8.2 269.84 5.76L269.84 5.76Q269.84 4.1 271.16 2.69 272.48 1.27 275.41-0.2L275.41-0.2 277.26 0.2Q275.65 1.17 274.77 2.39 273.9 3.61 273.9 5.03L273.9 5.03Q273.9 6.98 275.46 8.06 277.02 9.13 279.8 9.13L279.8 9.13Q282.93 9.13 284.91 7.76 286.88 6.4 286.88 4.25L286.88 4.25Q286.88 2.59 285.71 1.78 284.54 0.98 281.76 0.78L281.76 0.78 276.53 0.34 275.8 0.15Q274.04 0.15 272.77-0.81 271.5-1.76 271.5-3.13L271.5-3.13Q271.5-4.44 272.77-5.71 274.04-6.98 276.29-7.96L276.29-7.96 276.92-6.98Q276-6.35 275.56-5.83 275.12-5.32 275.12-4.83L275.12-4.83Q275.12-4.15 275.73-3.69 276.34-3.22 277.46-3.08L277.46-3.08 283.76-2.44Q287.13-2.1 288.89-0.73 290.64 0.63 290.64 3.17L290.64 3.17Q290.64 5.42 289.18 7.23 287.71 9.03 285.22 10.08 282.73 11.13 279.61 11.13ZM280-6.05L280-6.05Q277.41-6.05 275.39-6.98 273.36-7.91 272.24-9.57 271.11-11.23 271.11-13.28L271.11-13.28Q271.11-15.63 272.28-17.43 273.46-19.24 275.46-20.29 277.46-21.34 279.95-21.34L279.95-21.34Q282.44-21.34 284.39-20.36 286.35-19.38 287.49-17.65 288.64-15.92 288.64-13.72L288.64-13.72Q288.64-11.57 287.49-9.84 286.35-8.11 284.37-7.08 282.39-6.05 280-6.05ZM280.24-8.01L280.24-8.01Q282.25-8.01 283.42-9.47 284.59-10.94 284.59-13.38L284.59-13.38Q284.59-16.16 283.3-17.8 282-19.43 279.9-19.43L279.9-19.43Q277.9-19.43 276.63-17.9 275.36-16.36 275.36-13.82L275.36-13.82Q275.36-11.28 276.7-9.64 278.05-8.01 280.24-8.01ZM291.57-20.95L291.57-17.82 285.76-18.21 283.86-20.17 291.57-20.95ZM304.26 0L293.72 0 293.62-1.81 296.89-2.49Q296.94-2.69 296.96-3.17 296.99-3.66 297.04-4.74 297.09-5.81 297.09-7.71L297.09-7.71 297.09-10.94Q297.09-12.99 296.99-14.65 296.89-16.31 296.74-17.19L296.74-17.19 293.47-17.87 293.47-19.48 300.41-21.29 301.14-20.61Q300.99-19.09 300.92-17.63 300.85-16.16 300.85-14.21L300.85-14.21 300.85-8.06Q300.85-5.81 300.92-4.35 300.99-2.88 301.09-2.49L301.09-2.49 304.36-1.81 304.26 0ZM298.99-26.81L298.99-26.81Q297.72-26.81 296.84-27.64 295.96-28.47 295.96-29.69L295.96-29.69Q295.96-30.86 296.84-31.71 297.72-32.57 298.99-32.57L298.99-32.57Q300.26-32.57 301.09-31.71 301.92-30.86 301.92-29.69L301.92-29.69Q301.92-28.47 301.09-27.64 300.26-26.81 298.99-26.81ZM315.05 0.39L315.05 0.39Q313.25 0.39 311.44-0.02 309.63-0.44 308.36-1.12L308.36-1.12 308.12-6.35 310.51-6.35 311.49-2.83Q313.1-1.66 315.39-1.66L315.39-1.66Q317.01-1.66 318.06-2.47 319.11-3.27 319.11-4.64L319.11-4.64Q319.11-5.96 318.18-6.88 317.25-7.81 314.56-8.94L314.56-8.94Q311.1-10.45 309.68-11.87 308.27-13.28 308.27-15.43L308.27-15.43Q308.27-17.19 309.32-18.53 310.37-19.87 312.22-20.63 314.08-21.39 316.52-21.39L316.52-21.39Q317.88-21.39 319.3-21.17 320.72-20.95 321.64-20.51L321.64-20.51 322.18-15.43 319.89-15.43 318.72-18.75Q318.23-19.04 317.54-19.21 316.86-19.38 316.08-19.38L316.08-19.38Q314.37-19.38 313.34-18.58 312.32-17.77 312.32-16.5L312.32-16.5Q312.32-15.04 313.44-14.14 314.56-13.23 317.4-11.91L317.4-11.91Q320.62-10.45 321.89-9.03 323.16-7.62 323.16-5.62L323.16-5.62Q323.16-2.98 320.86-1.29 318.57 0.39 315.05 0.39ZM341.08-4.25L341.95-3.03Q341.03-1.42 339.42-0.51 337.8 0.39 336.05 0.39L336.05 0.39Q333.12 0.39 331.19-1.42 329.26-3.22 329.26-6.84L329.26-6.84 329.41-18.51 325.99-18.51 325.99-19.53 332.29-25.24 333.21-25.24 333.12-19.63 333.07-7.62Q333.07-5.08 334.17-3.86 335.27-2.64 337.27-2.64L337.27-2.64Q338.39-2.64 339.34-3.1 340.29-3.56 341.08-4.25L341.08-4.25ZM340.49-18.51L331.36-18.51 331.36-20.95 340.49-20.95 340.49-18.51Z" opacity="1" transform="matrix(1,0,0,1,0,0)" fill="#151e72" class="slogan-text-1" data-fill-palette-color="secondary" id="text-1"></path></svg></g></svg></g></svg></g></svg></g><g><svg viewBox="0 0 127.36034607065513 127.3544090660684" height="127.3544090660684" width="127.36034607065513"><g><svg xmlns="http://www.w3.org/2000/svg" xmlns:xlink="http://www.w3.org/1999/xlink" version="1.1" x="0" y="0" viewBox="6.49 6.492 87.02005650966392 87.016" enable-background="new 0 0 100 100" xml:space="preserve" height="127.3544090660684" width="127.36034607065513" class="icon-icon-0" data-fill-palette-color="accent" id="icon-0"><g fill="#34b14b" data-fill-palette-color="accent"><path d="M23.173 67.998c-0.749-1.889-1.332-3.843-1.734-5.806-0.799-3.883-0.918-7.842-0.355-11.77 0.498-3.496 1.528-6.886 3.059-10.079 1.695-3.537 3.955-6.73 6.713-9.491 3.34-3.341 7.278-5.924 11.705-7.678 0.947-0.375 1.41-1.446 1.035-2.392-0.376-0.947-1.449-1.411-2.393-1.035-4.898 1.94-9.258 4.799-12.955 8.5-3.053 3.056-5.553 6.59-7.43 10.502-1.693 3.531-2.832 7.283-3.384 11.151-0.624 4.349-0.491 8.735 0.394 13.033 0.445 2.173 1.09 4.334 1.918 6.422 0.979 2.477 2.218 4.851 3.678 7.056 0.354 0.537 0.939 0.826 1.538 0.826 0.349 0 0.703-0.098 1.015-0.306 0.85-0.561 1.082-1.705 0.521-2.554C25.178 72.385 24.06 70.237 23.173 67.998z" fill="#34b14b" data-fill-palette-color="accent"></path><path d="M56.142 89.812c-0.014 0-0.029 0-0.044 0-2.978 0.073-5.961-0.249-8.873-0.948-3.505-0.844-6.845-2.223-9.924-4.098-0.869-0.528-2.004-0.253-2.534 0.616-0.527 0.869-0.253 2.004 0.617 2.534 3.406 2.072 7.101 3.597 10.979 4.531 2.93 0.704 5.926 1.061 8.923 1.061 0.301 0 0.601-0.004 0.9-0.011 1.018-0.024 1.823-0.869 1.799-1.887C57.96 90.607 57.141 89.812 56.142 89.812z" fill="#34b14b" data-fill-palette-color="accent"></path><path d="M90.809 41.204c-0.374-0.945-1.442-1.41-2.394-1.035-0.946 0.375-1.409 1.446-1.034 2.393 2.688 6.784 3.167 14.096 1.385 21.146-0.852 3.376-2.203 6.596-4.017 9.57-1.902 3.12-4.27 5.9-7.035 8.265-2.886 2.465-6.156 4.431-9.72 5.841-0.947 0.375-1.411 1.445-1.036 2.392 0.288 0.726 0.98 1.166 1.716 1.166 0.226 0 0.455-0.042 0.677-0.13 3.943-1.561 7.563-3.736 10.758-6.467 3.062-2.616 5.683-5.693 7.789-9.147 2.005-3.291 3.5-6.853 4.442-10.587C94.313 56.806 93.783 48.713 90.809 41.204z" fill="#34b14b" data-fill-palette-color="accent"></path><path d="M63.708 21.79c6.975 1.762 13.122 5.564 17.782 10.997 0.364 0.425 0.88 0.643 1.399 0.643 0.426 0 0.852-0.146 1.2-0.444 0.772-0.663 0.862-1.826 0.198-2.599-5.157-6.012-11.962-10.22-19.678-12.171-0.983-0.249-1.988 0.348-2.237 1.335C62.124 20.538 62.721 21.54 63.708 21.79z" fill="#34b14b" data-fill-palette-color="accent"></path><path d="M32.534 43.718c-0.939-0.395-2.02 0.045-2.415 0.983-1.411 3.353-2.125 6.912-2.125 10.578 0 1.019 0.823 1.843 1.843 1.843 1.018 0 1.843-0.824 1.843-1.843 0-3.173 0.618-6.25 1.838-9.148C33.913 45.193 33.472 44.112 32.534 43.718z" fill="#34b14b" data-fill-palette-color="accent"></path><path d="M40.612 78.291c2.264 1.445 4.721 2.544 7.299 3.266 2.387 0.668 4.863 1.007 7.366 1.007 1.019 0 1.842-0.825 1.842-1.844s-0.823-1.844-1.842-1.844c-2.166 0-4.31-0.292-6.372-0.869-2.23-0.624-4.353-1.573-6.311-2.823-2.736-1.748-5.049-3.999-6.873-6.69-0.57-0.844-1.715-1.066-2.559-0.494-0.844 0.57-1.064 1.717-0.493 2.56C34.776 73.671 37.448 76.271 40.612 78.291z" fill="#34b14b" data-fill-palette-color="accent"></path><path d="M56.384 45.483V31.73c2.098 0.096 4.181 0.451 6.173 1.095 2.543 0.824 4.914 2.068 7.046 3.7 2.655 2.032 4.895 4.659 6.473 7.596 0.978 1.817 1.711 3.757 2.182 5.762 0.409 1.756 0.617 3.571 0.617 5.396 0 1.727-0.187 3.45-0.557 5.124-0.54 2.438-1.462 4.765-2.74 6.914-1.466 2.468-3.35 4.626-5.596 6.419-0.796 0.635-0.926 1.794-0.291 2.59 0.363 0.457 0.901 0.694 1.443 0.694 0.401 0 0.808-0.132 1.147-0.403 2.596-2.07 4.77-4.565 6.464-7.415 1.48-2.487 2.547-5.18 3.172-8.003 0.428-1.935 0.645-3.926 0.645-5.92 0-2.105-0.241-4.203-0.716-6.235-0.544-2.322-1.392-4.565-2.522-6.668-1.825-3.395-4.411-6.431-7.481-8.779-2.465-1.886-5.207-3.325-8.149-4.278-2.36-0.765-4.827-1.193-7.309-1.292V7.843l-0.005-1.351h-1.102C28.376 6.492 6.49 28.377 6.49 55.279h2.212c0-25.312 20.297-45.972 45.47-46.562v19.31c-2.584 0.103-5.152 0.564-7.601 1.387-0.967 0.325-1.484 1.371-1.16 2.336s1.369 1.482 2.335 1.159c2.069-0.697 4.241-1.077 6.426-1.178v13.751c-4.926 0.55-8.757 4.724-8.757 9.796 0 5.446 4.416 9.862 9.862 9.862 5.447 0 9.862-4.416 9.862-9.862C65.14 50.207 61.31 46.034 56.384 45.483z" fill="#34b14b" data-fill-palette-color="accent"></path></g></svg></g></svg></g></svg></g></svg></g><defs></defs></svg><rect width="395.5199999999999" height="94.21495512198015" fill="none" stroke="none" visibility="hidden"></rect></g></svg></g></svg>