<svg xmlns="http://www.w3.org/2000/svg" version="1.1" xmlns:xlink="http://www.w3.org/1999/xlink" xmlns:svgjs="http://svgjs.dev/svgjs" width="2000" height="505" viewBox="0 0 2000 505"><g transform="matrix(1,0,0,1,-1.2121212121212466,0.7908378422995099)"><svg viewBox="0 0 396 100" data-background-color="#ffffff" preserveAspectRatio="xMidYMid meet" height="505" width="2000" xmlns="http://www.w3.org/2000/svg" xmlns:xlink="http://www.w3.org/1999/xlink"><g id="tight-bounds" transform="matrix(1,0,0,1,0.2400000000000091,-0.15660155293059574)"><svg viewBox="0 0 395.52 100.31320310586119" height="100.31320310586119" width="395.52"><g><svg viewBox="0 0 548.0859078396637 139.00751666813437" height="100.31320310586119" width="395.52"><g transform="matrix(1,0,0,1,152.56590783966374,19.211603244293542)"><svg viewBox="0 0 395.52 100.58431017954729" height="100.58431017954729" width="395.52"><g id="textblocktransform"><svg viewBox="0 0 395.52 100.58431017954729" height="100.58431017954729" width="395.52" id="textblock"><g><svg viewBox="0 0 395.52 57.388553054662374" height="57.388553054662374" width="395.52"><g transform="matrix(1,0,0,1,0,0)"><svg width="395.52" viewBox="2 -35.3 248.78 36.099999999999994" height="57.388553054662374" data-palette-color="#1d1a57"><path d="M25.95-31.85Q29-29.7 30.7-25.95 32.4-22.2 32.4-17.45L32.4-17.45Q32.4-12.7 30.7-8.8 29-4.9 25.95-2.7L25.95-2.7Q24-1.3 21.48-0.65 18.95 0 15.3 0L15.3 0 2 0 2-0.4 6.1-0.8 6.1-33.7 2-34.1 2-34.5 15.3-34.5Q22.1-34.5 25.95-31.85L25.95-31.85ZM24.15-3.55Q25.75-5.6 26.68-9.38 27.6-13.15 27.6-17.7L27.6-17.7Q27.6-22.15 26.73-25.55 25.85-28.95 24.15-30.95L24.15-30.95Q22.75-32.6 20.7-33.25 18.65-33.9 14.85-33.9L14.85-33.9 9.95-33.9 9.95-0.6 14.85-0.6Q18.85-0.6 20.85-1.25 22.85-1.9 24.15-3.55L24.15-3.55ZM53.15-5.1L53.6-5.7 53.8-5.6 53.6-5.05Q52.6-2.4 50.62-0.95 48.65 0.5 45.9 0.5L45.9 0.5Q43.2 0.5 41.1-0.9 39-2.3 37.82-4.8 36.65-7.3 36.65-10.55L36.65-10.55Q36.65-13.8 37.9-16.35 39.15-18.9 41.45-20.3 43.75-21.7 46.7-21.7L46.7-21.7Q50.2-21.7 52.07-19.63 53.95-17.55 54-13.6L54-13.6 53.7-13.35 40.2-13.35Q40.1-12.05 40.1-11.3L40.1-11.3Q40.1-6.75 41.95-4.38 43.8-2 47.1-2L47.1-2Q48.8-2 50.37-2.78 51.95-3.55 53.15-5.1L53.15-5.1ZM46.15-21.15Q43.8-21.15 42.25-19.2 40.7-17.25 40.25-13.9L40.25-13.9 49.95-14.25Q50.1-14.85 50.1-16.25L50.1-16.25Q50.1-18.95 49.07-20.05 48.05-21.15 46.15-21.15L46.15-21.15ZM68.45-21.7Q69.45-21.7 70.15-21.03 70.85-20.35 70.85-19.4L70.85-19.4Q70.85-18.6 70.3-18.05 69.75-17.5 68.95-17.5L68.95-17.5Q68.45-17.5 68.12-17.73 67.8-17.95 67.45-18.4L67.45-18.4Q67.1-18.8 66.82-19 66.55-19.2 66.15-19.2L66.15-19.2Q65.35-19.2 64.52-18.25 63.7-17.3 63.35-16.05L63.35-16.05 63.35-0.8 67.35-0.4 67.35 0 57.05 0 57.05-0.4 60.1-0.8 60.1-18.3 57.15-19.4 57.15-19.75 62.8-21.7 63.2-21.7 63.2-17.3Q66-21.7 68.45-21.7L68.45-21.7ZM100.39-0.8L103.49-0.4 103.49 0 94.09 0 94.09-0.4 97.14-0.8 97.14-13.55Q97.14-15.5 97.04-16.45 96.94-17.4 96.69-18.05L96.69-18.05Q95.94-19.85 93.69-19.85L93.69-19.85Q91.29-19.85 89.64-17.65L89.64-17.65Q89.74-15.95 89.74-13.55L89.74-13.55 89.74-0.8 92.84-0.4 92.84 0 83.39 0 83.39-0.4 86.49-0.8 86.49-13.55Q86.49-15.5 86.39-16.45 86.29-17.4 86.04-18.05L86.04-18.05Q85.29-19.85 83.04-19.85L83.04-19.85Q80.69-19.85 79.09-17.8L79.09-17.8 79.09-0.8 82.14-0.4 82.14 0 72.84 0 72.84-0.4 75.84-0.8 75.84-18.3 72.89-19.4 72.89-19.75 78.54-21.7 78.94-21.7 78.94-18.35Q81.89-21.7 85.09-21.7L85.09-21.7Q87.99-21.7 89.19-19.25L89.19-19.25Q89.39-18.85 89.54-18.25L89.54-18.25Q92.59-21.7 95.74-21.7L95.74-21.7Q98.64-21.7 99.84-19.25L99.84-19.25Q100.19-18.6 100.29-17.43 100.39-16.25 100.39-13.55L100.39-13.55 100.39-0.8ZM129.39-3.4Q127.94-1.8 125.82-0.85 123.69 0.1 121.44 0.1L121.44 0.1Q116.19 0.1 113.34-4.42 110.49-8.95 110.49-17.25L110.49-17.25Q110.49-25.6 113.34-30.15 116.19-34.7 121.49-34.7L121.49-34.7Q124.39-34.7 126.79-33.38 129.19-32.05 130.69-29.6L130.69-29.6Q132.19-27.1 132.89-23.25L132.89-23.25 133.59-23.45 133.09-34.7 132.44-34.7 131.24-32.3Q128.34-33.85 125.97-34.58 123.59-35.3 121.34-35.3L121.34-35.3Q117.04-35.3 113.44-32.9 109.84-30.5 107.77-26.35 105.69-22.2 105.69-17.25L105.69-17.25Q105.69-12.25 107.77-8.13 109.84-4 113.47-1.6 117.09 0.8 121.44 0.8L121.44 0.8Q123.89 0.8 126.52-0.15 129.14-1.1 131.39-2.75L131.39-2.75 133.09 0 133.74 0 133.74-11.5 133.09-11.6Q131.84-6.15 129.39-3.4L129.39-3.4ZM142.94 0.35Q141.04 0.35 139.81-0.98 138.59-2.3 138.59-4.4L138.59-4.4Q138.59-6.9 140.86-8.4 143.14-9.9 148.59-11L148.59-11 148.59-15.55Q148.59-18.45 147.94-19.58 147.29-20.7 145.69-20.7L145.69-20.7Q144.14-20.7 143.19-19.88 142.24-19.05 142.24-17.65L142.24-17.65 142.29-16.3Q142.29-15.05 141.81-14.33 141.34-13.6 140.49-13.6L140.49-13.6Q139.74-13.6 139.26-14.1 138.79-14.6 138.79-15.4L138.79-15.4Q138.79-16.6 139.96-18.03 141.14-19.45 142.99-20.4L142.99-20.4Q145.24-21.65 147.64-21.65L147.64-21.65Q149.04-21.65 150.01-21.1 150.99-20.55 151.44-19.55L151.44-19.55Q151.69-18.9 151.76-17.95 151.84-17 151.84-14.3L151.84-14.3 151.84-4.75Q151.84-2.95 152.19-2.27 152.54-1.6 153.44-1.6L153.44-1.6Q154.79-1.6 155.44-2.55L155.44-2.55 155.64-2.45Q155.04-1.2 154.04-0.53 153.04 0.15 151.89 0.15L151.89 0.15Q150.59 0.15 149.74-0.63 148.89-1.4 148.79-2.7L148.79-2.7 148.64-2.75Q147.49-1.3 145.99-0.48 144.49 0.35 142.94 0.35L142.94 0.35ZM145.09-1.55Q146.14-1.55 147.06-2.02 147.99-2.5 148.59-3.4L148.59-3.4 148.59-10.45Q145.99-9.8 144.56-9.15 143.14-8.5 142.54-7.6 141.94-6.7 141.94-5.35L141.94-5.35Q141.94-3.6 142.79-2.58 143.64-1.55 145.09-1.55L145.09-1.55ZM168.64-21.7Q169.64-21.7 170.34-21.03 171.04-20.35 171.04-19.4L171.04-19.4Q171.04-18.6 170.49-18.05 169.94-17.5 169.14-17.5L169.14-17.5Q168.64-17.5 168.31-17.73 167.99-17.95 167.64-18.4L167.64-18.4Q167.29-18.8 167.01-19 166.74-19.2 166.34-19.2L166.34-19.2Q165.54-19.2 164.71-18.25 163.89-17.3 163.54-16.05L163.54-16.05 163.54-0.8 167.54-0.4 167.54 0 157.24 0 157.24-0.4 160.29-0.8 160.29-18.3 157.34-19.4 157.34-19.75 162.99-21.7 163.39-21.7 163.39-17.3Q166.19-21.7 168.64-21.7L168.64-21.7ZM189.63-5.1L190.08-5.7 190.28-5.6 190.08-5.05Q189.08-2.4 187.11-0.95 185.13 0.5 182.38 0.5L182.38 0.5Q179.68 0.5 177.58-0.9 175.48-2.3 174.31-4.8 173.13-7.3 173.13-10.55L173.13-10.55Q173.13-13.8 174.38-16.35 175.63-18.9 177.93-20.3 180.23-21.7 183.18-21.7L183.18-21.7Q186.68-21.7 188.56-19.63 190.43-17.55 190.48-13.6L190.48-13.6 190.18-13.35 176.68-13.35Q176.58-12.05 176.58-11.3L176.58-11.3Q176.58-6.75 178.43-4.38 180.28-2 183.58-2L183.58-2Q185.28-2 186.86-2.78 188.43-3.55 189.63-5.1L189.63-5.1ZM182.63-21.15Q180.28-21.15 178.73-19.2 177.18-17.25 176.73-13.9L176.73-13.9 186.43-14.25Q186.58-14.85 186.58-16.25L186.58-16.25Q186.58-18.95 185.56-20.05 184.53-21.15 182.63-21.15L182.63-21.15ZM195.48-2.4Q195.48-3.5 196.21-4.23 196.93-4.95 198.08-4.95L198.08-4.95Q199.23-4.95 199.93-4.23 200.63-3.5 200.63-2.4L200.63-2.4Q200.63-1.3 199.93-0.55 199.23 0.2 198.08 0.2L198.08 0.2Q196.93 0.2 196.21-0.55 195.48-1.3 195.48-2.4L195.48-2.4ZM233.33-0.9L237.48-0.4 237.48 0 225.23 0 225.23-0.4 229.33-0.9 224.63-13.7 212.53-13.7 208.38-2.65Q208.18-2.1 208.18-1.75L208.18-1.75Q208.18-1.2 208.5-0.98 208.83-0.75 209.68-0.65L209.68-0.65 212.73-0.4 212.73 0 202.08 0 202.08-0.4 204.88-0.65Q206.13-0.75 206.65-1.15 207.18-1.55 207.58-2.65L207.58-2.65 219.83-35.3 220.73-35.3 233.33-0.9ZM212.83-14.5L224.33-14.5 218.73-29.75 218.53-29.75 212.83-14.5ZM238.73-34.1L238.73-34.5 250.78-34.5 250.78-34.1 246.68-33.7 246.68-0.8 250.78-0.4 250.78 0 238.73 0 238.73-0.4 242.83-0.8 242.83-33.7 238.73-34.1Z" opacity="1" transform="matrix(1,0,0,1,0,0)" fill="#1d1a57" class="wordmark-text-0" data-fill-palette-color="primary" id="text-0"></path></svg></g></svg></g><g transform="matrix(1,0,0,1,0,70.93661310559484)"><svg viewBox="0 0 232.209792 29.647697073952447" height="29.647697073952447" width="232.209792"><g transform="matrix(1,0,0,1,0,0)"><svg width="232.209792" viewBox="-0.35 -39.2 380.61 48.6" height="29.647697073952447" data-palette-color="#1d1a57"><path d="M16.15-35.65L16.15-35.65 28.35-4.2Q29.1-2.3 30.05-1.68 31-1.05 31.8-1L31.8-1 31.8 0Q30.8-0.1 29.35-0.13 27.9-0.15 26.45-0.15L26.45-0.15Q24.5-0.15 22.8-0.13 21.1-0.1 20.05 0L20.05 0 20.05-1Q22.6-1.1 23.3-1.88 24-2.65 23-5.2L23-5.2 13.7-30.05 14.5-30.7 5.8-8.1Q4.75-5.4 4.8-3.88 4.85-2.35 5.95-1.7 7.05-1.05 9.15-1L9.15-1 9.15 0Q7.75-0.1 6.23-0.13 4.7-0.15 3.4-0.15L3.4-0.15Q2.15-0.15 1.28-0.13 0.4-0.1-0.35 0L-0.35 0-0.35-1Q0.65-1.25 1.7-2.18 2.75-3.1 3.6-5.35L3.6-5.35 15.35-35.65Q15.55-35.65 15.75-35.65 15.95-35.65 16.15-35.65ZM7.85-14.4L22.25-14.4 22.25-13.4 7.35-13.4 7.85-14.4ZM45.35-35.4L45.35-35.4 45.35-34.4Q43.65-34.35 42.77-34.02 41.9-33.7 41.6-32.83 41.3-31.95 41.3-30.1L41.3-30.1 41.3-5.3Q41.3-3.5 41.6-2.6 41.9-1.7 42.77-1.4 43.65-1.1 45.35-1L45.35-1 45.35 0Q44.2-0.1 42.47-0.13 40.75-0.15 39-0.15L39-0.15Q37.05-0.15 35.35-0.13 33.65-0.1 32.6 0L32.6 0 32.6-1Q34.3-1.1 35.17-1.4 36.05-1.7 36.35-2.6 36.65-3.5 36.65-5.3L36.65-5.3 36.65-30.1Q36.65-31.95 36.35-32.83 36.05-33.7 35.17-34.02 34.3-34.35 32.6-34.4L32.6-34.4 32.6-35.4Q33.65-35.35 35.35-35.3 37.05-35.25 39-35.25L39-35.25Q40.75-35.25 42.47-35.3 44.2-35.35 45.35-35.4ZM75.64-35.4L75.64-35.4Q84.59-35.4 88.94-30.93 93.29-26.45 93.29-18.1L93.29-18.1Q93.29-12.65 91.17-8.58 89.04-4.5 84.99-2.25 80.94 0 75.19 0L75.19 0Q74.09 0 71.94-0.08 69.79-0.15 68.19-0.15L68.19-0.15Q66.44-0.15 64.74-0.13 63.04-0.1 61.99 0L61.99 0 61.99-1Q63.69-1.1 64.57-1.4 65.44-1.7 65.74-2.6 66.04-3.5 66.04-5.3L66.04-5.3 66.04-30.1Q66.04-31.95 65.74-32.83 65.44-33.7 64.57-34.02 63.69-34.35 61.99-34.4L61.99-34.4 61.99-35.4Q63.04-35.35 64.74-35.27 66.44-35.2 68.09-35.25L68.09-35.25Q69.84-35.3 72.04-35.35 74.24-35.4 75.64-35.4ZM74.39-34.5L74.39-34.5Q72.09-34.5 71.39-33.65 70.69-32.8 70.69-30.2L70.69-30.2 70.69-5.2Q70.69-2.6 71.42-1.75 72.14-0.9 74.44-0.9L74.44-0.9Q79.89-0.9 82.89-2.88 85.89-4.85 87.09-8.65 88.29-12.45 88.29-17.9L88.29-17.9Q88.29-26.3 85.22-30.4 82.14-34.5 74.39-34.5ZM109.64-26.45L109.64-26.45Q114.04-26.45 116.52-23.78 118.99-21.1 118.99-15.45L118.99-15.45 101.34-15.45 101.29-16.4 114.19-16.4Q114.29-18.85 113.79-20.93 113.29-23 112.22-24.25 111.14-25.5 109.44-25.5L109.44-25.5Q107.14-25.5 105.37-23.2 103.59-20.9 103.24-15.9L103.24-15.9 103.39-15.7Q103.29-14.95 103.24-14.05 103.19-13.15 103.19-12.25L103.19-12.25Q103.19-8.85 104.29-6.4 105.39-3.95 107.17-2.68 108.94-1.4 110.84-1.4L110.84-1.4Q113.09-1.4 114.99-2.5 116.89-3.6 118.19-6.4L118.19-6.4 119.19-6Q118.64-4.35 117.39-2.8 116.14-1.25 114.24-0.28 112.34 0.7 109.84 0.7L109.84 0.7Q106.24 0.7 103.67-0.95 101.09-2.6 99.72-5.53 98.34-8.45 98.34-12.25L98.34-12.25Q98.34-16.65 99.74-19.83 101.14-23 103.69-24.73 106.24-26.45 109.64-26.45ZM138.34-26.45L138.34-26.45Q139.69-26.45 140.71-25.9 141.74-25.35 142.31-24.48 142.89-23.6 142.89-22.5L142.89-22.5Q142.89-21.25 142.11-20.3 141.34-19.35 140.04-19.35L140.04-19.35Q138.99-19.35 138.19-20.03 137.39-20.7 137.39-21.95L137.39-21.95Q137.39-22.9 137.91-23.58 138.44-24.25 139.09-24.65L139.09-24.65Q138.74-25.15 138.04-25.15L138.04-25.15Q135.94-25.15 134.39-23.58 132.84-22 131.96-19.8 131.09-17.6 131.09-15.75L131.09-15.75 131.09-5.15Q131.09-2.7 132.51-1.88 133.94-1.05 136.39-1.05L136.39-1.05 136.39 0Q135.24-0.05 133.14-0.13 131.04-0.2 128.69-0.2L128.69-0.2Q126.99-0.2 125.31-0.13 123.64-0.05 122.79 0L122.79 0 122.79-1.05Q124.84-1.05 125.71-1.8 126.59-2.55 126.59-4.65L126.59-4.65 126.59-20.3Q126.59-22.55 125.79-23.63 124.99-24.7 122.79-24.7L122.79-24.7 122.79-25.75Q124.39-25.6 125.89-25.6L125.89-25.6Q127.34-25.6 128.66-25.78 129.99-25.95 131.09-26.3L131.09-26.3 131.09-20.05Q131.64-21.5 132.66-22.98 133.69-24.45 135.14-25.45 136.59-26.45 138.34-26.45ZM161.53-26.45L161.53-26.45Q163.29-26.45 164.59-25.95 165.89-25.45 166.74-24.55L166.74-24.55Q167.69-23.55 168.04-21.95 168.39-20.35 168.39-18L168.39-18 168.39-4.65Q168.39-2.55 169.26-1.8 170.14-1.05 172.19-1.05L172.19-1.05 172.19 0Q171.34-0.05 169.59-0.13 167.84-0.2 166.19-0.2L166.19-0.2Q164.54-0.2 162.96-0.13 161.39-0.05 160.59 0L160.59 0 160.59-1.05Q162.39-1.05 163.14-1.8 163.89-2.55 163.89-4.65L163.89-4.65 163.89-19.1Q163.89-20.65 163.69-21.95 163.49-23.25 162.69-24.05 161.89-24.85 160.09-24.85L160.09-24.85Q158.14-24.85 156.61-23.65 155.09-22.45 154.21-20.38 153.34-18.3 153.34-15.75L153.34-15.75 153.34-4.65Q153.34-2.55 154.09-1.8 154.84-1.05 156.64-1.05L156.64-1.05 156.64 0Q155.84-0.05 154.26-0.13 152.69-0.2 151.03-0.2L151.03-0.2Q149.39-0.2 147.64-0.13 145.89-0.05 145.03 0L145.03 0 145.03-1.05Q147.09-1.05 147.96-1.8 148.84-2.55 148.84-4.65L148.84-4.65 148.84-20.3Q148.84-22.55 148.03-23.63 147.24-24.7 145.03-24.7L145.03-24.7 145.03-25.75Q146.64-25.6 148.14-25.6L148.14-25.6Q149.59-25.6 150.91-25.78 152.24-25.95 153.34-26.3L153.34-26.3 153.34-20.4Q154.64-23.65 156.89-25.05 159.14-26.45 161.53-26.45ZM176.59-26.45L176.59-26.45Q178.34-26.45 179.64-25.95 180.94-25.45 181.79-24.55L181.79-24.55Q182.74-23.55 183.09-21.95 183.44-20.35 183.44-18L183.44-18 183.44-4.65Q183.44-2.55 184.31-1.8 185.19-1.05 187.24-1.05L187.24-1.05 187.24 0Q186.39-0.05 184.64-0.13 182.89-0.2 181.24-0.2L181.24-0.2Q179.59-0.2 178.01-0.13 176.44-0.05 175.64 0L175.64 0 175.64-1.05Q177.44-1.05 178.19-1.8 178.94-2.55 178.94-4.65L178.94-4.65 178.94-19.1Q178.94-20.65 178.74-21.95 178.54-23.25 177.74-24.05 176.94-24.85 175.14-24.85L175.14-24.85Q172.24-24.85 170.31-22.25 168.39-19.65 168.39-15.8L168.39-15.8 168.24-20.45Q169.59-23.9 171.89-25.18 174.19-26.45 176.59-26.45ZM196.13 0.35L196.13 0.35Q192.88 0.35 191.41-1.28 189.93-2.9 189.93-5.6L189.93-5.6Q189.93-7.7 190.96-9.08 191.98-10.45 193.58-11.33 195.18-12.2 196.96-12.83 198.73-13.45 200.33-14.05 201.93-14.65 202.96-15.4 203.98-16.15 203.98-17.3L203.98-17.3 203.98-20.4Q203.98-22.5 203.36-23.6 202.73-24.7 201.68-25.08 200.63-25.45 199.33-25.45L199.33-25.45Q198.08-25.45 196.66-25.1 195.23-24.75 194.38-23.65L194.38-23.65Q195.33-23.45 196.03-22.65 196.73-21.85 196.73-20.6L196.73-20.6Q196.73-19.35 195.93-18.63 195.13-17.9 193.88-17.9L193.88-17.9Q192.43-17.9 191.76-18.82 191.08-19.75 191.08-20.9L191.08-20.9Q191.08-22.2 191.73-23 192.38-23.8 193.38-24.5L193.38-24.5Q194.53-25.3 196.36-25.88 198.18-26.45 200.48-26.45L200.48-26.45Q202.53-26.45 203.98-25.98 205.43-25.5 206.38-24.6L206.38-24.6Q207.68-23.4 208.08-21.68 208.48-19.95 208.48-17.55L208.48-17.55 208.48-3.65Q208.48-2.45 208.83-1.88 209.18-1.3 210.03-1.3L210.03-1.3Q210.73-1.3 211.26-1.6 211.78-1.9 212.28-2.35L212.28-2.35 212.83-1.5Q211.78-0.7 210.83-0.18 209.88 0.35 208.28 0.35L208.28 0.35Q205.68 0.35 204.83-1 203.98-2.35 203.98-4.1L203.98-4.1Q202.38-1.45 200.36-0.55 198.33 0.35 196.13 0.35ZM198.33-1.65L198.33-1.65Q199.83-1.65 201.28-2.53 202.73-3.4 203.98-5.45L203.98-5.45 203.98-15.25Q203.23-14.15 201.66-13.5 200.08-12.85 198.41-12.08 196.73-11.3 195.53-9.98 194.33-8.65 194.33-6.2L194.33-6.2Q194.33-3.9 195.48-2.78 196.63-1.65 198.33-1.65ZM222.38-34.05L222.38-34.05 222.38-25.7 229.78-25.7 229.78-24.7 222.38-24.7 222.38-5.35Q222.38-3 223.23-2.05 224.08-1.1 225.58-1.1L225.58-1.1Q227.08-1.1 228.18-2.33 229.28-3.55 230.08-6.45L230.08-6.45 231.08-6.2Q230.58-3.3 229.11-1.3 227.63 0.7 224.58 0.7L224.58 0.7Q222.88 0.7 221.78 0.28 220.68-0.15 219.83-0.95L219.83-0.95Q218.73-2.1 218.31-3.7 217.88-5.3 217.88-7.95L217.88-7.95 217.88-24.7 213.08-24.7 213.08-25.7 217.88-25.7 217.88-33.35Q219.13-33.4 220.28-33.55 221.43-33.7 222.38-34.05ZM244.28-26.45L244.28-26.45Q247.48-26.45 250.03-25.05 252.58-23.65 254.1-20.65 255.63-17.65 255.63-12.85L255.63-12.85Q255.63-8.05 254.1-5.08 252.58-2.1 250.03-0.7 247.48 0.7 244.28 0.7L244.28 0.7Q241.13 0.7 238.55-0.7 235.98-2.1 234.45-5.08 232.93-8.05 232.93-12.85L232.93-12.85Q232.93-17.65 234.45-20.65 235.98-23.65 238.55-25.05 241.13-26.45 244.28-26.45ZM244.28-25.45L244.28-25.45Q241.43-25.45 239.6-22.5 237.78-19.55 237.78-12.85L237.78-12.85Q237.78-6.15 239.6-3.23 241.43-0.3 244.28-0.3L244.28-0.3Q247.13-0.3 248.95-3.23 250.78-6.15 250.78-12.85L250.78-12.85Q250.78-19.55 248.95-22.5 247.13-25.45 244.28-25.45ZM266.88-39.2L266.88-39.2 266.88-4.65Q266.88-2.55 267.75-1.8 268.63-1.05 270.68-1.05L270.68-1.05 270.68 0Q269.83-0.05 268.1-0.13 266.38-0.2 264.63-0.2L264.63-0.2Q262.93-0.2 261.18-0.13 259.43-0.05 258.58 0L258.58 0 258.58-1.05Q260.63-1.05 261.5-1.8 262.38-2.55 262.38-4.65L262.38-4.65 262.38-33.2Q262.38-35.45 261.58-36.52 260.78-37.6 258.58-37.6L258.58-37.6 258.58-38.65Q260.18-38.5 261.68-38.5L261.68-38.5Q263.13-38.5 264.45-38.68 265.78-38.85 266.88-39.2ZM284.97-26.45L284.97-26.45Q288.17-26.45 290.72-25.05 293.27-23.65 294.8-20.65 296.32-17.65 296.32-12.85L296.32-12.85Q296.32-8.05 294.8-5.08 293.27-2.1 290.72-0.7 288.17 0.7 284.97 0.7L284.97 0.7Q281.82 0.7 279.25-0.7 276.67-2.1 275.15-5.08 273.62-8.05 273.62-12.85L273.62-12.85Q273.62-17.65 275.15-20.65 276.67-23.65 279.25-25.05 281.82-26.45 284.97-26.45ZM284.97-25.45L284.97-25.45Q282.12-25.45 280.3-22.5 278.47-19.55 278.47-12.85L278.47-12.85Q278.47-6.15 280.3-3.23 282.12-0.3 284.97-0.3L284.97-0.3Q287.82-0.3 289.65-3.23 291.47-6.15 291.47-12.85L291.47-12.85Q291.47-19.55 289.65-22.5 287.82-25.45 284.97-25.45ZM309.32 9.4L309.32 9.4Q306.67 9.4 304.32 8.85 301.97 8.3 300.55 7.13 299.12 5.95 299.12 4.15L299.12 4.15Q299.12 2.4 300.52 1.15 301.92-0.1 304.32-0.75L304.32-0.75 304.62 0.05Q303.52 0.4 302.87 1.45 302.22 2.5 302.22 3.8L302.22 3.8Q302.22 6.1 304.35 7.33 306.47 8.55 309.87 8.55L309.87 8.55Q312.12 8.55 314.27 7.98 316.42 7.4 317.82 6.05 319.22 4.7 319.22 2.5L319.22 2.5Q319.22 0.85 318.05-0.23 316.87-1.3 313.42-1.3L313.42-1.3 309.72-1.3Q308.12-1.3 306.62-1.55 305.12-1.8 304.17-2.6 303.22-3.4 303.22-5.05L303.22-5.05Q303.22-6.75 304.62-8.33 306.02-9.9 309.77-11.55L309.77-11.55 310.37-11.1Q308.67-10.2 307.42-9.28 306.17-8.35 306.17-7.1L306.17-7.1Q306.17-5.5 308.57-5.5L308.57-5.5 314.82-5.5Q317.92-5.5 320.3-4.13 322.67-2.75 322.67 0.4L322.67 0.4Q322.67 2.75 321.17 4.8 319.67 6.85 316.69 8.13 313.72 9.4 309.32 9.4ZM309.57-10.65L309.57-10.65Q305.87-10.65 303.35-12.55 300.82-14.45 300.82-18.55L300.82-18.55Q300.82-22.7 303.35-24.58 305.87-26.45 309.57-26.45L309.57-26.45Q313.27-26.45 315.8-24.58 318.32-22.7 318.32-18.55L318.32-18.55Q318.32-14.45 315.8-12.55 313.27-10.65 309.57-10.65ZM309.57-11.55L309.57-11.55Q311.47-11.55 312.55-13.05 313.62-14.55 313.62-18.55L313.62-18.55Q313.62-22.55 312.55-24.05 311.47-25.55 309.57-25.55L309.57-25.55Q307.72-25.55 306.62-24.05 305.52-22.55 305.52-18.55L305.52-18.55Q305.52-14.55 306.62-13.05 307.72-11.55 309.57-11.55ZM316.77-22.3L316.77-22.3 315.87-22.65Q316.57-24.35 318.27-25.65 319.97-26.95 321.82-26.95L321.82-26.95Q323.12-26.95 323.92-26.23 324.72-25.5 324.72-24.05L324.72-24.05Q324.72-22.5 323.9-21.88 323.07-21.25 322.22-21.25L322.22-21.25Q321.47-21.25 320.82-21.78 320.17-22.3 320.07-23.45 319.97-24.6 320.77-26.4L320.77-26.4 321.42-26.25Q319.32-25.45 318.42-24.58 317.52-23.7 316.77-22.3ZM332.22-38.25L332.22-38.25Q333.52-38.25 334.47-37.3 335.42-36.35 335.42-35.05L335.42-35.05Q335.42-33.75 334.47-32.8 333.52-31.85 332.22-31.85L332.22-31.85Q330.92-31.85 329.97-32.8 329.02-33.75 329.02-35.05L329.02-35.05Q329.02-36.35 329.97-37.3 330.92-38.25 332.22-38.25ZM334.82-26.3L334.82-26.3 334.82-4.65Q334.82-2.55 335.69-1.8 336.57-1.05 338.62-1.05L338.62-1.05 338.62 0Q337.77-0.05 336.04-0.13 334.32-0.2 332.57-0.2L332.57-0.2Q330.87-0.2 329.12-0.13 327.37-0.05 326.52 0L326.52 0 326.52-1.05Q328.57-1.05 329.44-1.8 330.32-2.55 330.32-4.65L330.32-4.65 330.32-20.3Q330.32-22.55 329.52-23.63 328.72-24.7 326.52-24.7L326.52-24.7 326.52-25.75Q328.12-25.6 329.62-25.6L329.62-25.6Q331.07-25.6 332.39-25.78 333.72-25.95 334.82-26.3ZM350.11-26.45L350.11-26.45Q352.11-26.45 353.51-25.8 354.91-25.15 355.56-24.6L355.56-24.6Q357.21-23.25 357.56-26.4L357.56-26.4 358.71-26.4Q358.61-25 358.56-23.08 358.51-21.15 358.51-17.9L358.51-17.9 357.36-17.9Q357.06-19.75 356.34-21.5 355.61-23.25 354.21-24.38 352.81-25.5 350.56-25.5L350.56-25.5Q348.81-25.5 347.64-24.53 346.46-23.55 346.46-21.65L346.46-21.65Q346.46-20.15 347.36-19.07 348.26-18 349.71-17.07 351.16-16.15 352.86-15.05L352.86-15.05Q355.71-13.2 357.71-11.3 359.71-9.4 359.71-6.3L359.71-6.3Q359.71-4 358.51-2.45 357.31-0.9 355.39-0.1 353.46 0.7 351.16 0.7L351.16 0.7Q350.06 0.7 349.09 0.53 348.11 0.35 347.21 0L347.21 0Q346.71-0.25 346.19-0.6 345.66-0.95 345.16-1.35L345.16-1.35Q344.66-1.75 344.26-1.33 343.86-0.9 343.66 0.35L343.66 0.35 342.51 0.35Q342.61-1.25 342.66-3.55 342.71-5.85 342.71-9.65L342.71-9.65 343.86-9.65Q344.21-6.85 344.86-4.75 345.51-2.65 346.91-1.48 348.31-0.3 350.81-0.3L350.81-0.3Q352.31-0.3 353.79-1.35 355.26-2.4 355.26-5.05L355.26-5.05Q355.26-7.25 353.66-8.65 352.06-10.05 349.61-11.6L349.61-11.6Q347.81-12.75 346.24-13.9 344.66-15.05 343.69-16.5 342.71-17.95 342.71-20L342.71-20Q342.71-22.25 343.74-23.68 344.76-25.1 346.46-25.78 348.16-26.45 350.11-26.45ZM371.56-34.05L371.56-34.05 371.56-25.7 378.96-25.7 378.96-24.7 371.56-24.7 371.56-5.35Q371.56-3 372.41-2.05 373.26-1.1 374.76-1.1L374.76-1.1Q376.26-1.1 377.36-2.33 378.46-3.55 379.26-6.45L379.26-6.45 380.26-6.2Q379.76-3.3 378.29-1.3 376.81 0.7 373.76 0.7L373.76 0.7Q372.06 0.7 370.96 0.28 369.86-0.15 369.01-0.95L369.01-0.95Q367.91-2.1 367.49-3.7 367.06-5.3 367.06-7.95L367.06-7.95 367.06-24.7 362.26-24.7 362.26-25.7 367.06-25.7 367.06-33.35Q368.31-33.4 369.46-33.55 370.61-33.7 371.56-34.05Z" opacity="1" transform="matrix(1,0,0,1,0,0)" fill="#1d1a57" class="slogan-text-1" data-fill-palette-color="secondary" id="text-1"></path></svg></g></svg></g></svg></g></svg></g><g><svg viewBox="0 0 139.01784778873127 139.00751666813437" height="139.00751666813437" width="139.01784778873127"><g><svg xmlns="http://www.w3.org/2000/svg" xmlns:xlink="http://www.w3.org/1999/xlink" version="1.1" x="0" y="0" viewBox="4.989000000000004 4.992 90.02269004219298 90.016" enable-background="new 0 0 100 100" xml:space="preserve" height="139.00751666813437" width="139.01784778873127" class="icon-icon-0" data-fill-palette-color="accent" id="icon-0"><g fill="#5f5d9f" data-fill-palette-color="accent"><path d="M22.804 67.806c-0.75-1.896-1.336-3.857-1.74-5.829-0.802-3.897-0.922-7.871-0.357-11.814 0.502-3.508 1.535-6.914 3.072-10.119 1.702-3.551 3.97-6.756 6.738-9.528 3.354-3.354 7.307-5.946 11.75-7.708 0.658-0.259 1.175-0.76 1.455-1.41 0.281-0.649 0.292-1.368 0.032-2.027-0.403-1.016-1.369-1.673-2.462-1.673-0.335 0-0.664 0.063-0.974 0.187-5.12 2.028-9.677 5.018-13.546 8.887-3.193 3.196-5.807 6.89-7.77 10.982-1.77 3.693-2.96 7.615-3.537 11.658-0.651 4.548-0.513 9.134 0.411 13.628 0.466 2.271 1.14 4.53 2.005 6.714 1.025 2.589 2.318 5.071 3.845 7.377 0.491 0.744 1.317 1.188 2.21 1.188 0.521 0 1.025-0.151 1.459-0.438 1.217-0.806 1.553-2.451 0.747-3.669C24.818 72.21 23.695 70.054 22.804 67.806zM24.561 76.618c-0.505 0.336-1.239 0.185-1.572-0.321-1.468-2.218-2.713-4.607-3.7-7.099-0.832-2.103-1.48-4.274-1.93-6.461-0.889-4.324-1.021-8.733-0.396-13.109 0.556-3.892 1.701-7.667 3.405-11.221 1.887-3.936 4.401-7.489 7.475-10.565 3.721-3.723 8.106-6.6 13.033-8.55 0.135-0.053 0.273-0.081 0.416-0.081 0.461 0 0.885 0.289 1.055 0.719 0.112 0.281 0.107 0.59-0.013 0.867-0.12 0.278-0.342 0.494-0.624 0.605-4.638 1.837-8.764 4.542-12.264 8.043-2.891 2.893-5.256 6.238-7.032 9.943-1.604 3.345-2.683 6.898-3.205 10.559-0.589 4.115-0.464 8.265 0.372 12.333 0.422 2.058 1.033 4.104 1.816 6.081 0.93 2.347 2.102 4.595 3.483 6.685C25.226 75.568 25.082 76.273 24.561 76.618z" fill="#5f5d9f" data-fill-palette-color="accent"></path><path d="M55.86 89.705h-0.002c-2.982 0.076-5.985-0.251-8.906-0.953-3.519-0.847-6.871-2.231-9.965-4.114-0.416-0.251-0.891-0.386-1.374-0.386-0.933 0-1.779 0.476-2.265 1.271-0.758 1.247-0.361 2.88 0.886 3.638 3.563 2.168 7.425 3.762 11.479 4.738 3.058 0.736 6.196 1.109 9.33 1.109 0.313 0 0.627-0.005 0.941-0.012 0.707-0.017 1.365-0.308 1.854-0.819 0.488-0.513 0.747-1.184 0.73-1.89C58.533 90.839 57.371 89.705 55.86 89.705zM56.742 93.134c-0.209 0.22-0.49 0.345-0.794 0.351-3.307 0.085-6.645-0.277-9.881-1.056-3.901-0.938-7.617-2.474-11.047-4.559-0.533-0.326-0.704-1.025-0.379-1.559 0.208-0.342 0.57-0.547 0.972-0.547 0.206 0 0.41 0.058 0.587 0.167 3.228 1.963 6.727 3.408 10.398 4.292 2.771 0.665 5.613 1.003 8.449 1.003 0.282 0 0.564-0.003 0.874-0.011 0.621 0 1.119 0.487 1.134 1.109C57.063 92.627 56.952 92.914 56.742 93.134z" fill="#5f5d9f" data-fill-palette-color="accent"></path><path d="M92.187 40.322c-0.404-1.018-1.37-1.675-2.463-1.675-0.333 0-0.663 0.063-0.976 0.188-0.656 0.261-1.172 0.762-1.453 1.41-0.281 0.649-0.292 1.368-0.031 2.025 2.698 6.811 3.179 14.15 1.391 21.229-0.855 3.388-2.212 6.621-4.033 9.607-1.91 3.133-4.286 5.925-7.063 8.297-2.896 2.475-6.179 4.447-9.757 5.864-0.657 0.259-1.175 0.76-1.455 1.409-0.281 0.648-0.293 1.368-0.032 2.025 0.401 1.017 1.369 1.675 2.462 1.675 0.333 0 0.662-0.063 0.974-0.188 4.122-1.632 7.907-3.907 11.248-6.761 3.202-2.736 5.941-5.954 8.144-9.564 2.098-3.44 3.66-7.166 4.646-11.069C95.851 56.636 95.297 48.172 92.187 40.322zM92.32 64.426c-0.947 3.756-2.452 7.339-4.471 10.65-2.117 3.475-4.754 6.57-7.834 9.201-3.215 2.747-6.855 4.936-10.822 6.506-0.578 0.227-1.247-0.068-1.473-0.638-0.112-0.281-0.106-0.59 0.014-0.868s0.342-0.493 0.624-0.604c3.734-1.479 7.16-3.538 10.183-6.121 2.899-2.477 5.379-5.388 7.372-8.658 1.9-3.116 3.315-6.489 4.208-10.025 1.865-7.387 1.364-15.049-1.45-22.155-0.112-0.282-0.108-0.591 0.013-0.868 0.119-0.278 0.342-0.494 0.625-0.605 0.132-0.053 0.273-0.081 0.415-0.081 0.469 0 0.884 0.283 1.056 0.719C93.771 48.433 94.305 56.575 92.32 64.426z" fill="#5f5d9f" data-fill-palette-color="accent"></path><path d="M63.497 21.417c7.003 1.771 13.176 5.588 17.854 11.041 0.505 0.586 1.235 0.923 2.01 0.923 0.631 0 1.243-0.227 1.722-0.638 0.538-0.461 0.862-1.102 0.917-1.807 0.054-0.706-0.17-1.391-0.631-1.927-5.393-6.286-12.506-10.686-20.574-12.726-0.213-0.055-0.432-0.081-0.648-0.081-1.215 0-2.27 0.822-2.566 1.999-0.174 0.685-0.068 1.398 0.294 2.005S62.812 21.243 63.497 21.417zM63.047 18.573c0.126-0.505 0.578-0.857 1.099-0.857 0.094 0 0.187 0.012 0.278 0.035 7.764 1.962 14.608 6.197 19.797 12.244 0.197 0.23 0.292 0.523 0.27 0.825-0.021 0.303-0.163 0.577-0.394 0.774-0.456 0.392-1.206 0.334-1.599-0.122-4.881-5.691-11.322-9.675-18.631-11.522-0.293-0.074-0.54-0.258-0.695-0.519S62.972 18.866 63.047 18.573z" fill="#5f5d9f" data-fill-palette-color="accent"></path><path d="M31.585 55.037c0-3.151 0.614-6.211 1.826-9.09 0.566-1.345-0.068-2.9-1.414-3.467-0.328-0.137-0.672-0.208-1.025-0.208-1.068 0-2.026 0.636-2.441 1.622-1.486 3.532-2.24 7.282-2.24 11.144 0 1.46 1.188 2.647 2.647 2.647S31.585 56.497 31.585 55.037zM28.938 56.172c-0.626 0-1.134-0.509-1.134-1.135 0-3.66 0.713-7.211 2.122-10.558 0.177-0.421 0.589-0.695 1.046-0.695 0.151 0 0.299 0.031 0.439 0.088 0.576 0.243 0.848 0.91 0.605 1.487-1.291 3.067-1.944 6.322-1.944 9.677C30.072 55.663 29.563 56.172 28.938 56.172z" fill="#5f5d9f" data-fill-palette-color="accent"></path><path d="M39.584 79.279c2.385 1.523 4.973 2.683 7.691 3.442 2.513 0.703 5.123 1.06 7.759 1.06 1.46 0 2.647-1.188 2.647-2.647 0-1.459-1.188-2.646-2.647-2.646-2.153 0-4.284-0.29-6.332-0.863-2.214-0.62-4.323-1.564-6.27-2.808-2.721-1.736-5.02-3.974-6.831-6.648-0.493-0.729-1.313-1.165-2.194-1.165-0.529 0-1.043 0.159-1.482 0.457-0.586 0.396-0.981 0.997-1.115 1.692-0.133 0.693 0.012 1.397 0.408 1.982C33.437 74.413 36.251 77.154 39.584 79.279zM32.295 69.438c0.058-0.299 0.228-0.557 0.479-0.726 0.188-0.128 0.407-0.196 0.634-0.196 0.377 0 0.729 0.188 0.941 0.5 1.928 2.847 4.375 5.229 7.27 7.077 2.073 1.322 4.319 2.328 6.677 2.986C50.476 79.69 52.743 80 55.034 80c0.626 0 1.135 0.508 1.135 1.134s-0.509 1.135-1.135 1.135c-2.498 0-4.971-0.338-7.351-1.003-2.575-0.721-5.026-1.818-7.286-3.26-3.158-2.015-5.824-4.611-7.928-7.72C32.3 70.036 32.237 69.734 32.295 69.438z" fill="#5f5d9f" data-fill-palette-color="accent"></path><path d="M56.169 44.989V31.642c2.077 0.097 4.14 0.448 6.101 1.083 2.526 0.817 4.881 2.055 7.001 3.676 2.639 2.018 4.864 4.629 6.434 7.549 0.972 1.807 1.7 3.733 2.166 5.725 0.407 1.747 0.614 3.553 0.614 5.362 0 1.716-0.187 3.43-0.555 5.094-0.535 2.423-1.451 4.733-2.722 6.869-1.457 2.451-3.328 4.597-5.562 6.379-1.14 0.911-1.328 2.579-0.417 3.721 0.505 0.634 1.26 0.996 2.069 0.996 0.598 0 1.184-0.205 1.65-0.579 2.733-2.18 5.024-4.808 6.81-7.811 1.558-2.62 2.683-5.457 3.341-8.433 0.449-2.04 0.68-4.139 0.68-6.236 0-2.22-0.254-4.429-0.755-6.567-0.571-2.448-1.467-4.812-2.656-7.027-1.924-3.576-4.648-6.775-7.881-9.247-2.597-1.987-5.486-3.504-8.587-4.507-2.486-0.806-5.101-1.257-7.731-1.358V4.992h-1.135c-27.595 0-50.045 22.451-50.045 50.045h2.269c0-25.964 20.819-47.157 46.642-47.763v19.058c-2.738 0.105-5.461 0.589-8.038 1.457-0.67 0.225-1.212 0.699-1.526 1.333-0.314 0.633-0.363 1.351-0.138 2.021 0.362 1.078 1.371 1.801 2.51 1.801 0.286 0 0.569-0.045 0.843-0.137 2.036-0.685 4.186-1.061 6.35-1.164v13.346c-5.053 0.564-8.981 4.846-8.981 10.048 0 5.587 4.529 10.116 10.116 10.116S65.15 60.624 65.15 55.037C65.15 49.835 61.222 45.553 56.169 44.989zM63.435 29.128c2.938 0.95 5.673 2.387 8.134 4.27 3.063 2.342 5.645 5.372 7.467 8.762 1.129 2.098 1.975 4.336 2.517 6.655 0.475 2.025 0.715 4.12 0.715 6.223 0 1.988-0.217 3.978-0.644 5.911-0.625 2.816-1.689 5.503-3.164 7.984-1.692 2.846-3.863 5.336-6.453 7.403-0.476 0.378-1.218 0.293-1.594-0.179-0.391-0.49-0.311-1.205 0.179-1.597 2.376-1.895 4.367-4.179 5.917-6.787 1.353-2.274 2.328-4.735 2.899-7.315 0.392-1.772 0.59-3.596 0.59-5.421 0-1.926-0.22-3.847-0.655-5.707-0.495-2.121-1.271-4.171-2.305-6.097-1.672-3.107-4.04-5.885-6.848-8.034-2.255-1.727-4.765-3.043-7.454-3.914-2.113-0.685-4.319-1.061-6.566-1.161v-2.263C58.641 27.963 61.099 28.371 63.435 29.128zM47.069 31.373c-0.586 0.197-1.244-0.134-1.438-0.713-0.097-0.287-0.075-0.595 0.06-0.866s0.366-0.474 0.654-0.571c2.422-0.814 4.98-1.255 7.555-1.36v2.264C51.557 30.231 49.261 30.635 47.069 31.373z" fill="#5f5d9f" data-fill-palette-color="accent"></path></g></svg></g></svg></g></svg></g><defs></defs></svg><rect width="395.52" height="100.31320310586119" fill="none" stroke="none" visibility="hidden"></rect></g></svg></g></svg>