<svg width="225" height="190" viewBox="0 0 225 190" fill="none" xmlns="http://www.w3.org/2000/svg">
<path d="M17.4551 159H15.6973L11.0127 152.769L9.66797 153.964V159H8.17383V146.15H9.66797V152.522L15.4951 146.15H17.2617L12.0938 151.731L17.4551 159ZM23.0801 159.176C21.6562 159.176 20.5312 158.742 19.7051 157.875C18.8848 157.008 18.4746 155.804 18.4746 154.263C18.4746 152.71 18.8555 151.477 19.6172 150.562C20.3848 149.648 21.4131 149.191 22.7021 149.191C23.9092 149.191 24.8643 149.59 25.5674 150.387C26.2705 151.178 26.6221 152.224 26.6221 153.524V154.447H19.9863C20.0156 155.578 20.2998 156.437 20.8389 157.022C21.3838 157.608 22.1484 157.901 23.1328 157.901C24.1699 157.901 25.1953 157.685 26.209 157.251V158.552C25.6934 158.774 25.2041 158.933 24.7412 159.026C24.2842 159.126 23.7305 159.176 23.0801 159.176ZM22.6846 150.413C21.9111 150.413 21.293 150.665 20.8301 151.169C20.373 151.673 20.1035 152.37 20.0215 153.261H25.0576C25.0576 152.341 24.8525 151.638 24.4424 151.151C24.0322 150.659 23.4463 150.413 22.6846 150.413ZM33.1875 159.176C31.7637 159.176 30.6387 158.742 29.8125 157.875C28.9922 157.008 28.582 155.804 28.582 154.263C28.582 152.71 28.9629 151.477 29.7246 150.562C30.4922 149.648 31.5205 149.191 32.8096 149.191C34.0166 149.191 34.9717 149.59 35.6748 150.387C36.3779 151.178 36.7295 152.224 36.7295 153.524V154.447H30.0938C30.123 155.578 30.4072 156.437 30.9463 157.022C31.4912 157.608 32.2559 157.901 33.2402 157.901C34.2773 157.901 35.3027 157.685 36.3164 157.251V158.552C35.8008 158.774 35.3115 158.933 34.8486 159.026C34.3916 159.126 33.8379 159.176 33.1875 159.176ZM32.792 150.413C32.0186 150.413 31.4004 150.665 30.9375 151.169C30.4805 151.673 30.2109 152.37 30.1289 153.261H35.165C35.165 152.341 34.96 151.638 34.5498 151.151C34.1396 150.659 33.5537 150.413 32.792 150.413ZM43.708 159.176C43.0811 159.176 42.5068 159.062 41.9854 158.833C41.4697 158.599 41.0361 158.241 40.6846 157.761H40.5791C40.6494 158.323 40.6846 158.856 40.6846 159.36V163.324H39.2256V149.367H40.4121L40.6143 150.686H40.6846C41.0596 150.158 41.4961 149.777 41.9941 149.543C42.4922 149.309 43.0635 149.191 43.708 149.191C44.9854 149.191 45.9697 149.628 46.6611 150.501C47.3584 151.374 47.707 152.599 47.707 154.175C47.707 155.757 47.3525 156.987 46.6436 157.866C45.9404 158.739 44.9619 159.176 43.708 159.176ZM43.4971 150.431C42.5127 150.431 41.8008 150.703 41.3613 151.248C40.9219 151.793 40.6963 152.66 40.6846 153.85V154.175C40.6846 155.528 40.9102 156.498 41.3613 157.084C41.8125 157.664 42.5361 157.954 43.5322 157.954C44.3643 157.954 45.0146 157.617 45.4834 156.943C45.958 156.27 46.1953 155.341 46.1953 154.157C46.1953 152.956 45.958 152.036 45.4834 151.397C45.0146 150.753 44.3525 150.431 43.4971 150.431ZM54.6855 146.634C54.6855 145.761 55.1719 145.324 56.1445 145.324C57.1172 145.324 57.6035 145.761 57.6035 146.634C57.6035 147.05 57.4805 147.375 57.2344 147.609C56.9941 147.838 56.6309 147.952 56.1445 147.952C55.1719 147.952 54.6855 147.513 54.6855 146.634ZM57.4805 159H54.7998V149.174H57.4805V159ZM69.3721 159H66.6914V153.261C66.6914 152.552 66.5654 152.021 66.3135 151.67C66.0615 151.312 65.6602 151.134 65.1094 151.134C64.3594 151.134 63.8174 151.386 63.4834 151.89C63.1494 152.388 62.9824 153.217 62.9824 154.377V159H60.3018V149.174H62.3496L62.71 150.431H62.8594C63.1582 149.956 63.5684 149.599 64.0898 149.358C64.6172 149.112 65.2148 148.989 65.8828 148.989C67.0254 148.989 67.8926 149.3 68.4844 149.921C69.0762 150.536 69.3721 151.427 69.3721 152.593V159ZM82.2393 151.187H79.9189V159H77.2383V151.187H75.7617V149.895L77.2383 149.174V148.453C77.2383 147.334 77.5137 146.517 78.0645 146.001C78.6152 145.485 79.4971 145.228 80.71 145.228C81.6357 145.228 82.459 145.365 83.1797 145.641L82.4941 147.609C81.9551 147.439 81.457 147.354 81 147.354C80.6191 147.354 80.3438 147.469 80.1738 147.697C80.0039 147.92 79.9189 148.207 79.9189 148.559V149.174H82.2393V151.187ZM85.9219 154.069C85.9219 155.042 86.0801 155.777 86.3965 156.275C86.7188 156.773 87.2402 157.022 87.9609 157.022C88.6758 157.022 89.1885 156.776 89.499 156.284C89.8154 155.786 89.9736 155.048 89.9736 154.069C89.9736 153.097 89.8154 152.367 89.499 151.881C89.1826 151.395 88.6641 151.151 87.9434 151.151C87.2285 151.151 86.7129 151.395 86.3965 151.881C86.0801 152.361 85.9219 153.091 85.9219 154.069ZM92.7158 154.069C92.7158 155.669 92.2939 156.92 91.4502 157.822C90.6064 158.725 89.4316 159.176 87.9258 159.176C86.9824 159.176 86.1504 158.971 85.4297 158.561C84.709 158.145 84.1553 157.55 83.7686 156.776C83.3818 156.003 83.1885 155.101 83.1885 154.069C83.1885 152.464 83.6074 151.216 84.4453 150.325C85.2832 149.435 86.4609 148.989 87.9785 148.989C88.9219 148.989 89.7539 149.194 90.4746 149.604C91.1953 150.015 91.749 150.604 92.1357 151.371C92.5225 152.139 92.7158 153.038 92.7158 154.069ZM98.9209 159.176C95.8623 159.176 94.333 157.497 94.333 154.14C94.333 152.47 94.749 151.195 95.5811 150.316C96.4131 149.432 97.6055 148.989 99.1582 148.989C100.295 148.989 101.314 149.212 102.217 149.657L101.426 151.731C101.004 151.562 100.611 151.424 100.248 151.318C99.8848 151.207 99.5215 151.151 99.1582 151.151C97.7637 151.151 97.0664 152.142 97.0664 154.122C97.0664 156.044 97.7637 157.005 99.1582 157.005C99.6738 157.005 100.151 156.938 100.591 156.803C101.03 156.662 101.47 156.445 101.909 156.152V158.446C101.476 158.722 101.036 158.912 100.591 159.018C100.151 159.123 99.5947 159.176 98.9209 159.176ZM111.155 159L110.795 157.743H110.654C110.367 158.2 109.96 158.555 109.433 158.807C108.905 159.053 108.305 159.176 107.631 159.176C106.477 159.176 105.606 158.868 105.021 158.253C104.435 157.632 104.142 156.741 104.142 155.581V149.174H106.822V154.913C106.822 155.622 106.948 156.155 107.2 156.513C107.452 156.864 107.854 157.04 108.404 157.04C109.154 157.04 109.696 156.791 110.03 156.293C110.364 155.789 110.531 154.957 110.531 153.797V149.174H113.212V159H111.155ZM122.88 156.082C122.88 157.09 122.528 157.857 121.825 158.385C121.128 158.912 120.082 159.176 118.688 159.176C117.973 159.176 117.363 159.126 116.859 159.026C116.355 158.933 115.884 158.792 115.444 158.604V156.39C115.942 156.624 116.502 156.82 117.123 156.979C117.75 157.137 118.301 157.216 118.775 157.216C119.748 157.216 120.234 156.935 120.234 156.372C120.234 156.161 120.17 155.991 120.041 155.862C119.912 155.728 119.689 155.578 119.373 155.414C119.057 155.244 118.635 155.048 118.107 154.825C117.352 154.509 116.795 154.216 116.438 153.946C116.086 153.677 115.828 153.369 115.664 153.023C115.506 152.672 115.427 152.241 115.427 151.731C115.427 150.858 115.764 150.185 116.438 149.71C117.117 149.229 118.078 148.989 119.32 148.989C120.504 148.989 121.655 149.247 122.774 149.763L121.966 151.696C121.474 151.485 121.014 151.312 120.586 151.178C120.158 151.043 119.722 150.976 119.276 150.976C118.485 150.976 118.09 151.189 118.09 151.617C118.09 151.857 118.216 152.065 118.468 152.241C118.726 152.417 119.285 152.678 120.146 153.023C120.914 153.334 121.477 153.624 121.834 153.894C122.191 154.163 122.455 154.474 122.625 154.825C122.795 155.177 122.88 155.596 122.88 156.082ZM135.712 159L135.422 157.629H135.352C134.871 158.232 134.391 158.643 133.91 158.859C133.436 159.07 132.841 159.176 132.126 159.176C131.171 159.176 130.421 158.93 129.876 158.438C129.337 157.945 129.067 157.245 129.067 156.337C129.067 154.392 130.623 153.372 133.734 153.278L135.369 153.226V152.628C135.369 151.872 135.205 151.315 134.877 150.958C134.555 150.595 134.036 150.413 133.321 150.413C132.519 150.413 131.61 150.659 130.597 151.151L130.148 150.035C130.623 149.777 131.142 149.575 131.704 149.429C132.272 149.282 132.841 149.209 133.409 149.209C134.558 149.209 135.407 149.464 135.958 149.974C136.515 150.483 136.793 151.301 136.793 152.426V159H135.712ZM132.416 157.972C133.324 157.972 134.036 157.723 134.552 157.225C135.073 156.727 135.334 156.029 135.334 155.133V154.263L133.875 154.324C132.715 154.365 131.877 154.547 131.361 154.869C130.852 155.186 130.597 155.681 130.597 156.354C130.597 156.882 130.755 157.283 131.071 157.559C131.394 157.834 131.842 157.972 132.416 157.972ZM146.399 159V152.769C146.399 151.983 146.221 151.397 145.863 151.011C145.506 150.624 144.946 150.431 144.185 150.431C143.177 150.431 142.438 150.703 141.97 151.248C141.501 151.793 141.267 152.692 141.267 153.946V159H139.808V149.367H140.994L141.231 150.686H141.302C141.601 150.211 142.02 149.845 142.559 149.587C143.098 149.323 143.698 149.191 144.36 149.191C145.521 149.191 146.394 149.473 146.979 150.035C147.565 150.592 147.858 151.485 147.858 152.716V159H146.399ZM157.421 157.708H157.342C156.668 158.687 155.66 159.176 154.318 159.176C153.059 159.176 152.077 158.745 151.374 157.884C150.677 157.022 150.328 155.798 150.328 154.21C150.328 152.622 150.68 151.389 151.383 150.51C152.086 149.631 153.064 149.191 154.318 149.191C155.625 149.191 156.627 149.666 157.324 150.615H157.438L157.377 149.921L157.342 149.244V145.324H158.801V159H157.614L157.421 157.708ZM154.503 157.954C155.499 157.954 156.22 157.685 156.665 157.146C157.116 156.601 157.342 155.725 157.342 154.518V154.21C157.342 152.845 157.113 151.872 156.656 151.292C156.205 150.706 155.481 150.413 154.485 150.413C153.63 150.413 152.974 150.747 152.517 151.415C152.065 152.077 151.84 153.015 151.84 154.228C151.84 155.458 152.065 156.387 152.517 157.014C152.968 157.641 153.63 157.954 154.503 157.954ZM170.429 159.176C169.034 159.176 167.953 158.748 167.186 157.893C166.424 157.031 166.043 155.815 166.043 154.245C166.043 152.634 166.43 151.389 167.203 150.51C167.982 149.631 169.09 149.191 170.525 149.191C170.988 149.191 171.451 149.241 171.914 149.341C172.377 149.44 172.74 149.558 173.004 149.692L172.556 150.932C172.233 150.803 171.882 150.697 171.501 150.615C171.12 150.527 170.783 150.483 170.49 150.483C168.533 150.483 167.555 151.731 167.555 154.228C167.555 155.411 167.792 156.319 168.267 156.952C168.747 157.585 169.456 157.901 170.394 157.901C171.196 157.901 172.02 157.729 172.863 157.383V158.675C172.219 159.009 171.407 159.176 170.429 159.176ZM179.227 159.176C177.803 159.176 176.678 158.742 175.852 157.875C175.031 157.008 174.621 155.804 174.621 154.263C174.621 152.71 175.002 151.477 175.764 150.562C176.531 149.648 177.56 149.191 178.849 149.191C180.056 149.191 181.011 149.59 181.714 150.387C182.417 151.178 182.769 152.224 182.769 153.524V154.447H176.133C176.162 155.578 176.446 156.437 176.985 157.022C177.53 157.608 178.295 157.901 179.279 157.901C180.316 157.901 181.342 157.685 182.355 157.251V158.552C181.84 158.774 181.351 158.933 180.888 159.026C180.431 159.126 179.877 159.176 179.227 159.176ZM178.831 150.413C178.058 150.413 177.439 150.665 176.977 151.169C176.52 151.673 176.25 152.37 176.168 153.261H181.204C181.204 152.341 180.999 151.638 180.589 151.151C180.179 150.659 179.593 150.413 178.831 150.413ZM191.856 159V152.769C191.856 151.983 191.678 151.397 191.32 151.011C190.963 150.624 190.403 150.431 189.642 150.431C188.634 150.431 187.896 150.703 187.427 151.248C186.958 151.793 186.724 152.692 186.724 153.946V159H185.265V149.367H186.451L186.688 150.686H186.759C187.058 150.211 187.477 149.845 188.016 149.587C188.555 149.323 189.155 149.191 189.817 149.191C190.978 149.191 191.851 149.473 192.437 150.035C193.022 150.592 193.315 151.485 193.315 152.716V159H191.856ZM199.433 157.972C199.69 157.972 199.939 157.954 200.18 157.919C200.42 157.878 200.61 157.837 200.751 157.796V158.912C200.593 158.988 200.358 159.05 200.048 159.097C199.743 159.149 199.468 159.176 199.222 159.176C197.358 159.176 196.427 158.194 196.427 156.231V150.501H195.047V149.798L196.427 149.191L197.042 147.135H197.886V149.367H200.681V150.501H197.886V156.17C197.886 156.75 198.023 157.195 198.299 157.506C198.574 157.816 198.952 157.972 199.433 157.972ZM206.754 159.176C205.33 159.176 204.205 158.742 203.379 157.875C202.559 157.008 202.148 155.804 202.148 154.263C202.148 152.71 202.529 151.477 203.291 150.562C204.059 149.648 205.087 149.191 206.376 149.191C207.583 149.191 208.538 149.59 209.241 150.387C209.944 151.178 210.296 152.224 210.296 153.524V154.447H203.66C203.689 155.578 203.974 156.437 204.513 157.022C205.058 157.608 205.822 157.901 206.807 157.901C207.844 157.901 208.869 157.685 209.883 157.251V158.552C209.367 158.774 208.878 158.933 208.415 159.026C207.958 159.126 207.404 159.176 206.754 159.176ZM206.358 150.413C205.585 150.413 204.967 150.665 204.504 151.169C204.047 151.673 203.777 152.37 203.695 153.261H208.731C208.731 152.341 208.526 151.638 208.116 151.151C207.706 150.659 207.12 150.413 206.358 150.413ZM217.187 149.191C217.614 149.191 217.998 149.227 218.338 149.297L218.136 150.65C217.737 150.562 217.386 150.519 217.081 150.519C216.302 150.519 215.634 150.835 215.077 151.468C214.526 152.101 214.251 152.889 214.251 153.832V159H212.792V149.367H213.996L214.163 151.151H214.233C214.591 150.524 215.021 150.041 215.525 149.701C216.029 149.361 216.583 149.191 217.187 149.191ZM42.7852 179.175C42.7852 180.745 42.3896 181.973 41.5986 182.857C40.8076 183.736 39.7148 184.176 38.3203 184.176C37.459 184.176 36.6943 183.974 36.0264 183.569C35.3584 183.165 34.8428 182.585 34.4795 181.829C34.1162 181.073 33.9346 180.188 33.9346 179.175C33.9346 177.604 34.3271 176.383 35.1123 175.51C35.8975 174.631 36.9873 174.191 38.3818 174.191C39.7295 174.191 40.7988 174.64 41.5898 175.536C42.3867 176.433 42.7852 177.646 42.7852 179.175ZM35.4463 179.175C35.4463 180.405 35.6924 181.343 36.1846 181.987C36.6768 182.632 37.4004 182.954 38.3555 182.954C39.3105 182.954 40.0342 182.635 40.5264 181.996C41.0244 181.352 41.2734 180.411 41.2734 179.175C41.2734 177.95 41.0244 177.021 40.5264 176.389C40.0342 175.75 39.3047 175.431 38.3379 175.431C37.3828 175.431 36.6621 175.744 36.1758 176.371C35.6895 176.998 35.4463 177.933 35.4463 179.175ZM51.9434 184V177.769C51.9434 176.983 51.7646 176.397 51.4072 176.011C51.0498 175.624 50.4902 175.431 49.7285 175.431C48.7207 175.431 47.9824 175.703 47.5137 176.248C47.0449 176.793 46.8105 177.692 46.8105 178.946V184H45.3516V174.367H46.5381L46.7754 175.686H46.8457C47.1445 175.211 47.5635 174.845 48.1025 174.587C48.6416 174.323 49.2422 174.191 49.9043 174.191C51.0645 174.191 51.9375 174.473 52.5234 175.035C53.1094 175.592 53.4023 176.485 53.4023 177.716V184H51.9434ZM57.8672 184H56.4082V170.324H57.8672V184ZM59.4316 174.367H60.9961L63.1055 179.86C63.5684 181.114 63.8555 182.02 63.9668 182.576H64.0371C64.1133 182.277 64.2715 181.768 64.5117 181.047C64.7578 180.32 65.5547 178.094 66.9023 174.367H68.4668L64.3271 185.336C63.917 186.42 63.4365 187.188 62.8857 187.639C62.3408 188.096 61.6699 188.324 60.873 188.324C60.4277 188.324 59.9883 188.274 59.5547 188.175V187.006C59.877 187.076 60.2373 187.111 60.6357 187.111C61.6377 187.111 62.3525 186.549 62.7803 185.424L63.3164 184.053L59.4316 174.367ZM77.8184 182.972C78.0762 182.972 78.3252 182.954 78.5654 182.919C78.8057 182.878 78.9961 182.837 79.1367 182.796V183.912C78.9785 183.988 78.7441 184.05 78.4336 184.097C78.1289 184.149 77.8535 184.176 77.6074 184.176C75.7441 184.176 74.8125 183.194 74.8125 181.231V175.501H73.4326V174.798L74.8125 174.191L75.4277 172.135H76.2715V174.367H79.0664V175.501H76.2715V181.17C76.2715 181.75 76.4092 182.195 76.6846 182.506C76.96 182.816 77.3379 182.972 77.8184 182.972ZM87.6621 184V177.769C87.6621 176.983 87.4834 176.397 87.126 176.011C86.7686 175.624 86.209 175.431 85.4473 175.431C84.4336 175.431 83.6924 175.706 83.2236 176.257C82.7607 176.808 82.5293 177.71 82.5293 178.964V184H81.0703V170.324H82.5293V174.464C82.5293 174.962 82.5059 175.375 82.459 175.703H82.5469C82.834 175.24 83.2412 174.877 83.7686 174.613C84.3018 174.344 84.9082 174.209 85.5879 174.209C86.7656 174.209 87.6475 174.49 88.2334 175.053C88.8252 175.609 89.1211 176.497 89.1211 177.716V184H87.6621ZM96.1963 184.176C94.7725 184.176 93.6475 183.742 92.8213 182.875C92.001 182.008 91.5908 180.804 91.5908 179.263C91.5908 177.71 91.9717 176.477 92.7334 175.562C93.501 174.648 94.5293 174.191 95.8184 174.191C97.0254 174.191 97.9805 174.59 98.6836 175.387C99.3867 176.178 99.7383 177.224 99.7383 178.524V179.447H93.1025C93.1318 180.578 93.416 181.437 93.9551 182.022C94.5 182.608 95.2646 182.901 96.249 182.901C97.2861 182.901 98.3115 182.685 99.3252 182.251V183.552C98.8096 183.774 98.3203 183.933 97.8574 184.026C97.4004 184.126 96.8467 184.176 96.1963 184.176ZM95.8008 175.413C95.0273 175.413 94.4092 175.665 93.9463 176.169C93.4893 176.673 93.2197 177.37 93.1377 178.261H98.1738C98.1738 177.341 97.9688 176.638 97.5586 176.151C97.1484 175.659 96.5625 175.413 95.8008 175.413ZM113.124 181.372C113.124 182.269 112.79 182.96 112.122 183.446C111.454 183.933 110.517 184.176 109.31 184.176C108.032 184.176 107.036 183.974 106.321 183.569V182.216C106.784 182.45 107.279 182.635 107.807 182.77C108.34 182.904 108.853 182.972 109.345 182.972C110.106 182.972 110.692 182.852 111.103 182.611C111.513 182.365 111.718 181.993 111.718 181.495C111.718 181.12 111.554 180.801 111.226 180.537C110.903 180.268 110.271 179.951 109.327 179.588C108.431 179.254 107.792 178.964 107.411 178.718C107.036 178.466 106.755 178.182 106.567 177.865C106.386 177.549 106.295 177.171 106.295 176.731C106.295 175.946 106.614 175.328 107.253 174.877C107.892 174.42 108.768 174.191 109.881 174.191C110.918 174.191 111.932 174.402 112.922 174.824L112.403 176.011C111.437 175.612 110.561 175.413 109.775 175.413C109.084 175.413 108.562 175.521 108.211 175.738C107.859 175.955 107.684 176.254 107.684 176.635C107.684 176.893 107.748 177.112 107.877 177.294C108.012 177.476 108.226 177.648 108.519 177.812C108.812 177.977 109.374 178.214 110.206 178.524C111.349 178.94 112.119 179.359 112.518 179.781C112.922 180.203 113.124 180.733 113.124 181.372ZM116.947 179.069C117.199 178.712 117.583 178.243 118.099 177.663L121.21 174.367H122.941L119.039 178.472L123.214 184H121.447L118.046 179.447L116.947 180.396V184H115.506V170.324H116.947V177.575C116.947 177.897 116.924 178.396 116.877 179.069H116.947ZM126.422 184H124.963V174.367H126.422V184ZM124.84 171.757C124.84 171.423 124.922 171.18 125.086 171.027C125.25 170.869 125.455 170.79 125.701 170.79C125.936 170.79 126.138 170.869 126.308 171.027C126.478 171.186 126.562 171.429 126.562 171.757C126.562 172.085 126.478 172.331 126.308 172.495C126.138 172.653 125.936 172.732 125.701 172.732C125.455 172.732 125.25 172.653 125.086 172.495C124.922 172.331 124.84 172.085 124.84 171.757ZM136.107 184V177.769C136.107 176.983 135.929 176.397 135.571 176.011C135.214 175.624 134.654 175.431 133.893 175.431C132.885 175.431 132.146 175.703 131.678 176.248C131.209 176.793 130.975 177.692 130.975 178.946V184H129.516V174.367H130.702L130.939 175.686H131.01C131.309 175.211 131.728 174.845 132.267 174.587C132.806 174.323 133.406 174.191 134.068 174.191C135.229 174.191 136.102 174.473 136.688 175.035C137.273 175.592 137.566 176.485 137.566 177.716V184H136.107ZM157.526 184V177.733C157.526 176.966 157.362 176.392 157.034 176.011C156.706 175.624 156.196 175.431 155.505 175.431C154.597 175.431 153.926 175.691 153.492 176.213C153.059 176.734 152.842 177.537 152.842 178.621V184H151.383V177.733C151.383 176.966 151.219 176.392 150.891 176.011C150.562 175.624 150.05 175.431 149.353 175.431C148.438 175.431 147.768 175.706 147.34 176.257C146.918 176.802 146.707 177.698 146.707 178.946V184H145.248V174.367H146.435L146.672 175.686H146.742C147.018 175.217 147.404 174.851 147.902 174.587C148.406 174.323 148.969 174.191 149.59 174.191C151.096 174.191 152.08 174.736 152.543 175.826H152.613C152.9 175.322 153.316 174.924 153.861 174.631C154.406 174.338 155.027 174.191 155.725 174.191C156.814 174.191 157.629 174.473 158.168 175.035C158.713 175.592 158.985 176.485 158.985 177.716V184H157.526ZM167.924 184L167.634 182.629H167.563C167.083 183.232 166.603 183.643 166.122 183.859C165.647 184.07 165.053 184.176 164.338 184.176C163.383 184.176 162.633 183.93 162.088 183.438C161.549 182.945 161.279 182.245 161.279 181.337C161.279 179.392 162.835 178.372 165.946 178.278L167.581 178.226V177.628C167.581 176.872 167.417 176.315 167.089 175.958C166.767 175.595 166.248 175.413 165.533 175.413C164.73 175.413 163.822 175.659 162.809 176.151L162.36 175.035C162.835 174.777 163.354 174.575 163.916 174.429C164.484 174.282 165.053 174.209 165.621 174.209C166.77 174.209 167.619 174.464 168.17 174.974C168.727 175.483 169.005 176.301 169.005 177.426V184H167.924ZM164.628 182.972C165.536 182.972 166.248 182.723 166.764 182.225C167.285 181.727 167.546 181.029 167.546 180.133V179.263L166.087 179.324C164.927 179.365 164.089 179.547 163.573 179.869C163.063 180.186 162.809 180.681 162.809 181.354C162.809 181.882 162.967 182.283 163.283 182.559C163.605 182.834 164.054 182.972 164.628 182.972ZM176.414 174.191C176.842 174.191 177.226 174.227 177.565 174.297L177.363 175.65C176.965 175.562 176.613 175.519 176.309 175.519C175.529 175.519 174.861 175.835 174.305 176.468C173.754 177.101 173.479 177.889 173.479 178.832V184H172.02V174.367H173.224L173.391 176.151H173.461C173.818 175.524 174.249 175.041 174.753 174.701C175.257 174.361 175.811 174.191 176.414 174.191ZM180.809 179.069C181.061 178.712 181.444 178.243 181.96 177.663L185.071 174.367H186.803L182.9 178.472L187.075 184H185.309L181.907 179.447L180.809 180.396V184H179.367V170.324H180.809V177.575C180.809 177.897 180.785 178.396 180.738 179.069H180.809ZM188.613 183.068C188.613 182.676 188.701 182.38 188.877 182.181C189.059 181.976 189.316 181.873 189.65 181.873C189.99 181.873 190.254 181.976 190.441 182.181C190.635 182.38 190.731 182.676 190.731 183.068C190.731 183.449 190.635 183.742 190.441 183.947C190.248 184.152 189.984 184.255 189.65 184.255C189.352 184.255 189.103 184.164 188.903 183.982C188.71 183.795 188.613 183.49 188.613 183.068Z" fill="#13204B"/>
<g clip-path="url(#clip0_1306_3300)">
<path d="M86.1029 85.5261C85.9384 85.5261 84.306 85.4889 82.9159 84.1208C81.6252 82.8503 80.9707 80.8848 80.9707 78.2796V43.4432C80.9707 43.0775 81.2671 42.7811 81.6328 42.7811C81.9985 42.7811 82.2949 43.0775 82.2949 43.4432V78.2796C82.2949 80.517 82.8161 82.165 83.8444 83.1771C84.8688 84.1855 86.075 84.2024 86.1037 84.2024C86.1041 84.2024 86.1041 84.2024 86.1041 84.2024L95.5863 84.202C95.952 84.202 96.2484 84.4988 96.2484 84.864C96.2484 85.2297 95.952 85.5261 95.5863 85.5261H86.1147C86.1126 85.5261 86.1084 85.5261 86.1029 85.5261Z" fill="#848998"/>
<path d="M114.972 85.5261H106.962C106.596 85.5261 106.3 85.2297 106.3 84.864C106.3 84.4988 106.596 84.202 106.962 84.202H114.972C115.337 84.202 115.634 84.4988 115.634 84.864C115.634 85.2297 115.337 85.5261 114.972 85.5261Z" fill="#848998"/>
<path d="M81.6328 28.1699C81.2671 28.1699 80.9707 27.8735 80.9707 27.5078V7.24638C80.9707 4.64119 81.6252 2.67565 82.9159 1.40561C84.3564 -0.012825 86.0504 -0.000108719 86.1253 0.000312805L103.988 -0.000141144C104.353 -0.000141144 104.65 0.296659 104.65 0.661943C104.65 1.02765 104.353 1.32403 103.988 1.32403H86.1147C86.1143 1.32403 86.1143 1.32403 86.1139 1.32403C86.05 1.32403 84.8565 1.33799 83.8249 2.36831C82.8094 3.38257 82.2949 5.02381 82.2949 7.24638V27.5078C82.2949 27.8735 81.9985 28.1699 81.6328 28.1699Z" fill="#848998"/>
<path d="M121.459 24.9484C121.093 24.9484 120.796 24.652 120.796 24.2863V7.24643C120.796 5.00907 120.275 3.36106 119.247 2.34892C118.215 1.33297 116.981 1.31859 116.987 1.32409H99.1035C98.7382 1.32409 98.4414 1.02771 98.4414 0.662001C98.4414 0.296717 98.7382 -8.39233e-05 99.1035 -8.39233e-05H116.977C117.031 0.00118446 118.735 -0.0123444 120.175 1.40567C121.466 2.67571 122.121 4.64124 122.121 7.24643V24.2863C122.121 24.652 121.824 24.9484 121.459 24.9484Z" fill="#848998"/>
<path d="M121.459 38.85C121.093 38.85 120.797 38.5536 120.797 38.1879V35.2754C120.797 34.9096 121.093 34.6133 121.459 34.6133C121.824 34.6133 122.121 34.9096 122.121 35.2754V38.1879C122.121 38.5536 121.824 38.85 121.459 38.85Z" fill="#848998"/>
<path d="M121.459 53.6779C121.093 53.6779 120.797 53.3815 120.797 53.0158V46.6465C120.797 46.2808 121.093 45.9844 121.459 45.9844C121.824 45.9844 122.121 46.2808 122.121 46.6465V53.0158C122.121 53.3815 121.824 53.6779 121.459 53.6779Z" fill="#848998"/>
<path d="M113.913 75.4644H83.5406C83.3211 75.4644 83.1436 75.2868 83.1436 75.0674V10.4594C83.1436 10.2395 83.3211 10.0619 83.5406 10.0619H119.552C119.771 10.0619 119.949 10.2395 119.949 10.4594V59.503C119.949 59.7225 119.771 59.9004 119.552 59.9004C119.332 59.9004 119.155 59.7225 119.155 59.503V10.8563H83.938V74.6699H113.913C114.132 74.6699 114.31 74.8479 114.31 75.0674C114.31 75.2868 114.132 75.4644 113.913 75.4644Z" fill="#848998"/>
<path d="M64.5297 123.184C64.468 123.184 64.4059 123.174 64.3446 123.151C64.0706 123.048 63.9315 122.744 64.0334 122.47C64.1281 122.216 73.4374 97.0283 70.6174 87.2067C70.34 86.7166 68.6929 83.5716 67.5797 76.139C67.2064 73.6459 66.7143 71.1925 66.2386 68.8202C65.1711 63.4991 64.3281 59.2958 65.3939 57.4309C66.724 55.1026 69.0341 47.0114 69.2087 44.5787C69.248 44.0329 69.2319 43.4917 69.2163 42.9687C69.163 41.1842 69.1081 39.3396 71.3738 37.7541C72.1149 37.2354 73.1393 35.6554 74.2233 33.9825C76.2336 30.881 78.5116 27.3655 80.9971 27.1338C81.9251 27.0484 82.7957 27.4213 83.5803 28.2458C83.6742 28.3443 83.7266 28.4749 83.7266 28.611V39.1142C83.7266 39.1311 83.7258 39.1481 83.7241 39.1646C82.9677 47.1374 74.0817 46.5336 73.9937 46.5269C73.702 46.5041 73.4847 46.2495 73.5071 45.9578C73.5299 45.6669 73.7785 45.4488 74.0758 45.4708C74.3992 45.4962 81.9945 45.9955 82.6675 39.0889V28.8305C82.1572 28.3477 81.6402 28.1371 81.0956 28.1887C79.1212 28.3726 76.8983 31.8026 75.112 34.5587C73.9206 36.397 72.8915 37.985 71.9813 38.6221C70.1836 39.8795 70.2242 41.229 70.2749 42.937C70.2914 43.4866 70.3083 44.0549 70.2652 44.6544C70.08 47.2342 67.7256 55.4848 66.3135 57.9564C65.4446 59.4767 66.3346 63.9138 67.277 68.6118C67.7551 70.9971 68.2502 73.4632 68.6274 75.9822C69.7824 83.6954 71.5437 86.6934 71.5615 86.7226C71.5843 86.7615 71.6033 86.8042 71.616 86.8473C74.5911 96.9619 65.418 121.787 65.0261 122.84C64.9466 123.053 64.7445 123.184 64.5297 123.184Z" fill="#848998"/>
<path d="M109.411 90.8802C109.283 90.8802 109.155 90.8342 109.053 90.7403C108.837 90.542 108.824 90.2072 109.022 89.992L113.655 84.9609C113.854 84.7461 114.189 84.7321 114.404 84.9304C114.619 85.1283 114.633 85.4636 114.435 85.6788L109.801 90.7094C109.697 90.8227 109.554 90.8802 109.411 90.8802Z" fill="#848998"/>
<path d="M114.662 123.184C114.54 123.184 114.417 123.142 114.317 123.056C113.518 122.367 106.49 116.254 105.938 113.859C105.414 111.589 100.736 99.6601 99.7077 97.4591L99.6058 97.2414C98.9429 95.8251 98.6947 95.2949 98.4301 93.7966C98.3747 93.482 98.0766 92.6593 97.7312 91.7068C96.0536 87.0807 94.5527 82.4216 96.1864 80.7165C96.2354 80.6662 97.3642 79.5255 99.4363 79.6722C102.201 79.8646 105.211 82.1645 108.382 86.5078C108.404 86.5374 108.422 86.5691 108.437 86.6025C108.52 86.7868 110.457 91.0962 110.931 93.5298C112.14 95.8618 114.213 99.2035 115.117 99.4618C115.398 99.5426 115.561 99.8356 115.48 100.117C115.4 100.398 115.108 100.56 114.826 100.48C113.146 100 110.473 94.9541 109.955 93.9471C109.931 93.901 109.915 93.852 109.905 93.8012C109.505 91.6391 107.715 87.5829 107.494 87.0874C103.821 82.0719 101.066 80.8619 99.3995 80.7313C97.8166 80.6104 96.9808 81.42 96.9457 81.4547C95.6359 82.822 97.7236 88.579 98.7269 91.3457C99.1184 92.4263 99.4016 93.2072 99.4731 93.6127C99.7136 94.9732 99.9107 95.3947 100.565 96.7924L100.667 97.011C101.706 99.2336 106.436 111.31 106.97 113.621C107.33 115.181 111.974 119.638 115.008 122.253C115.23 122.444 115.254 122.779 115.064 123C114.959 123.122 114.811 123.184 114.662 123.184Z" fill="#848998"/>
<path d="M115.721 106.415C115.46 106.415 115.232 106.22 115.197 105.954C115.172 105.76 114.577 101.153 115.197 96.4597C115.751 92.2712 114.843 83.3213 114.447 80.2265C114.191 78.231 112.677 71.2893 109.842 63.6594C108.99 61.6042 101.643 43.3708 107.62 40.6304C107.845 40.5002 108.822 40.011 110.172 40.4862C112.556 41.3267 114.654 44.5677 116.408 50.1202C116.649 50.7467 122.584 66.1906 123.027 67.6944L123.073 67.8542C125.224 75.2225 127.803 78.7607 129.588 80.432C129.802 80.632 129.813 80.9668 129.613 81.1803C129.414 81.3943 129.078 81.4052 128.864 81.2053C126.983 79.444 124.275 75.7493 122.056 68.151L122.01 67.9933C121.58 66.5305 115.47 50.6304 115.409 50.4698C113.345 43.9403 111.232 41.9828 109.82 41.4852C108.819 41.1322 108.166 41.5372 108.16 41.5415C108.136 41.5575 108.11 41.5719 108.083 41.5842C103.763 43.5116 108.599 57.893 110.828 63.2721C114.016 71.852 115.322 78.721 115.497 80.0917C115.512 80.2046 116.932 91.4163 116.247 96.5984C115.647 101.149 116.241 105.769 116.247 105.816C116.285 106.105 116.082 106.371 115.791 106.41C115.768 106.413 115.745 106.415 115.721 106.415Z" fill="#848998"/>
<path d="M142.641 84.349C142.377 84.349 142.148 84.1511 142.116 83.8822C141.952 82.5196 139.996 80.8226 138.567 79.5834C137.922 79.0232 137.364 78.5395 137.03 78.1455L136.82 77.8965C135.653 76.5098 132.102 72.29 129.569 71.3408C127.193 70.4483 125.047 73.8885 125.025 73.9232C124.872 74.1722 124.546 74.2513 124.297 74.0986C124.048 73.946 123.969 73.6205 124.122 73.371C124.227 73.1981 126.744 69.1504 129.942 70.349C132.733 71.3958 136.291 75.6228 137.63 77.2145L137.838 77.461C138.119 77.7929 138.649 78.2516 139.261 78.7831C140.907 80.2108 142.955 81.9878 143.167 83.7558C143.202 84.0463 142.995 84.3101 142.705 84.3448C142.683 84.3473 142.662 84.349 142.641 84.349Z" fill="#848998"/>
<path d="M160.47 122.302C160.181 122.302 159.945 122.07 159.941 121.78L159.499 92.3888C159.418 84.7892 151.623 84.7021 151.291 84.7021C151.079 84.7021 150.889 84.5766 150.805 84.3825C149.311 80.9246 146.104 81.2417 145.968 81.2561C145.92 81.262 145.869 81.2603 145.82 81.2527L139.375 80.183C139.086 80.1348 138.891 79.8621 138.939 79.5738C138.987 79.2855 139.258 79.0897 139.548 79.1379L145.931 80.1974C146.516 80.161 149.921 80.1078 151.638 83.6587C153.314 83.7737 160.476 84.7148 160.558 92.3752L161 121.764C161.004 122.057 160.771 122.297 160.478 122.302C160.475 122.302 160.473 122.302 160.47 122.302Z" fill="#848998"/>
<path d="M125.431 38.0996C125.138 38.0996 124.901 37.8625 124.901 37.5699V35.8931C124.901 35.7304 124.976 35.5765 125.104 35.4758C126.923 34.0527 127.195 31.0256 127.197 30.9952C127.761 25.4491 124.515 24.8141 124.482 24.8082C124.455 24.8031 122.52 24.4488 121.556 25.3087C121.136 25.6837 120.959 26.2465 121.016 27.0282C121.019 27.065 121.018 27.1018 121.013 27.1385C120.806 28.6534 120.554 32.8939 121.848 34.306C122.143 34.6282 122.487 34.7668 122.934 34.7465C123.23 34.7262 123.474 34.9575 123.488 35.2496C123.502 35.5418 123.277 35.7899 122.985 35.8043C122.225 35.8411 121.578 35.5782 121.067 35.0209C119.252 33.0398 119.848 27.8691 119.956 27.0493C119.888 25.9581 120.19 25.1058 120.854 24.5156C122.212 23.309 124.574 23.7474 124.674 23.7664C124.708 23.7724 128.912 24.587 128.252 31.092C128.242 31.2201 127.964 34.3867 125.96 36.1417V37.5699C125.96 37.8625 125.723 38.0996 125.431 38.0996Z" fill="#848998"/>
<path d="M129.226 51.074C129.07 51.074 128.916 51.0059 128.812 50.8753C128.629 50.647 128.666 50.3138 128.894 50.1312C130.35 48.966 131.645 45.2658 129.799 41.0223C128.16 37.2553 123.576 38.6332 123.382 38.6932C123.33 38.7093 123.277 38.7173 123.224 38.7173C122.323 38.7173 121.633 38.9845 121.173 39.5113C120.232 40.5898 120.458 42.4742 120.461 42.4928C120.5 42.7828 120.297 43.0496 120.007 43.0889C119.718 43.1278 119.45 42.9253 119.411 42.6357C119.398 42.5397 119.106 40.2689 120.375 38.8145C121.031 38.0645 121.961 37.676 123.142 37.6591C125.129 37.0625 129.175 36.9319 130.77 40.6C132.641 44.901 131.597 49.3254 129.556 50.9582C129.459 51.0364 129.342 51.074 129.226 51.074Z" fill="#848998"/>
<path d="M124.419 47.2358C123.165 47.2358 121.83 47.0096 120.86 46.1497C119.973 45.3633 119.529 44.1558 119.539 42.5615C119.541 42.3421 119.701 42.1747 119.939 42.1671C120.159 42.1683 120.335 42.3472 120.334 42.5666C120.325 43.922 120.679 44.9274 121.388 45.5553C122.741 46.7556 125.163 46.4486 126.61 46.2647L126.705 46.2524C128.546 46.0195 128.858 45.4525 128.861 45.4466C128.932 45.2394 129.153 45.1422 129.361 45.2137C129.568 45.2855 129.673 45.524 129.601 45.7316C129.544 45.8982 129.138 46.7454 126.804 47.0405L126.71 47.0524C126.074 47.1335 125.265 47.2358 124.419 47.2358Z" fill="#848998"/>
<path d="M124.054 72.9297C123.957 72.9297 123.86 72.9035 123.773 72.8485C123.525 72.6929 123.45 72.3661 123.606 72.1184C123.642 72.0613 127.247 66.3372 130.819 61.9014C134.109 57.8156 129.913 52.4281 129.87 52.374C127.709 49.5997 123.569 52.4497 123.527 52.4788C123.503 52.4962 123.476 52.5114 123.449 52.5245C122.282 53.072 121.569 53.795 121.33 54.6731C120.939 56.1025 121.886 57.5138 121.896 57.5277C121.929 57.578 122.507 58.446 123.828 58.6954C125.332 58.9812 127.245 58.3318 129.359 56.8217C129.597 56.6517 129.928 56.7067 130.098 56.9447C130.268 57.1827 130.213 57.5133 129.975 57.6833C127.57 59.4011 125.422 60.0902 123.595 59.7291C121.828 59.3808 121.043 58.1598 121.01 58.1082C120.97 58.0507 119.79 56.2898 120.308 54.394C120.63 53.2141 121.522 52.2692 122.958 51.5851C124.699 50.3831 128.504 48.8962 130.702 51.7195C130.748 51.7766 135.459 57.8283 131.644 62.566C128.11 66.9537 124.538 72.6249 124.503 72.6819C124.402 72.8418 124.23 72.9297 124.054 72.9297Z" fill="#848998"/>
<path d="M121.459 64.6663C121.093 64.6663 120.797 64.3699 120.797 64.0042V58.1791C120.797 57.8134 121.093 57.517 121.459 57.517C121.824 57.517 122.121 57.8134 122.121 58.1791V64.0042C122.121 64.3699 121.824 64.6663 121.459 64.6663Z" fill="#848998"/>
<path d="M81.6325 58.5763C81.4232 58.5763 81.2516 58.4144 81.2364 58.2089C81.181 57.9168 80.4479 55.8735 79.7799 54.0813C79.7583 54.0246 79.7507 53.9637 79.757 53.9028C79.7617 53.8534 80.2504 48.8768 79.8099 44.6579C79.7871 44.4397 79.9456 44.2444 80.1638 44.2216C80.3861 44.1987 80.5772 44.3572 80.6001 44.5754C81.0157 48.5551 80.6212 53.1795 80.5561 53.8893C82.0295 57.8466 82.0295 58.0965 82.0295 58.1793C82.0295 58.3987 81.8519 58.5763 81.6325 58.5763Z" fill="#848998"/>
<path d="M76.6003 34.5317C75.8292 34.5317 75.0737 33.8752 75.039 33.8447C74.984 33.7965 74.979 33.7132 75.0272 33.6578C75.0754 33.6033 75.1595 33.5978 75.2136 33.646C75.2221 33.6532 76.0579 34.377 76.7754 34.2519C77.0641 34.1998 77.3 34.0083 77.4759 33.6824C77.5905 33.4706 77.7233 33.2342 77.8653 32.9822C78.6496 31.5887 79.8346 29.4828 79.3404 28.6804C79.3019 28.6183 79.3214 28.5367 79.3839 28.4982C79.4465 28.4593 79.5277 28.4796 79.5657 28.5418C80.142 29.477 79.0077 31.4923 78.0962 33.112C77.9549 33.3627 77.8226 33.5978 77.7089 33.8083C77.4928 34.2087 77.1939 34.4459 76.821 34.5127C76.7479 34.5254 76.6739 34.5317 76.6003 34.5317Z" fill="#848998"/>
<path d="M75.1267 57.8262C75.0718 57.8262 75.0206 57.7919 75.0016 57.7374C74.9775 57.6685 75.0138 57.5928 75.0832 57.5687C75.1178 57.5564 78.5999 56.319 80.0382 53.8757C80.075 53.8127 80.1561 53.7911 80.2196 53.8283C80.2826 53.8655 80.3037 53.9467 80.2665 54.0097C78.7783 56.538 75.317 57.7678 75.1703 57.819C75.1559 57.8236 75.1411 57.8262 75.1267 57.8262Z" fill="#848998"/>
<path d="M97.6283 88.5414C97.5983 88.5414 97.5687 88.5312 97.5438 88.5109C97.4876 88.4648 97.4795 88.3812 97.526 88.3245C98.6312 86.9826 100.817 86.2757 101.381 86.1112C101.222 85.5734 101.091 85.0927 100.975 84.6649C100.376 82.4651 100.173 81.7244 98.5602 81.6496C96.6242 81.5583 96.1435 83.0482 96.1389 83.0638C96.1177 83.1331 96.0433 83.1716 95.9736 83.1513C95.9034 83.1297 95.8645 83.0562 95.8856 82.986C95.8911 82.9691 96.4255 81.2868 98.5724 81.3849C100.378 81.4686 100.628 82.384 101.23 84.5955C101.356 85.0555 101.498 85.5764 101.673 86.1645C101.683 86.1987 101.679 86.2359 101.661 86.2672C101.644 86.2981 101.614 86.3214 101.58 86.3302C101.553 86.3374 98.9237 87.0439 97.7302 88.4932C97.704 88.5249 97.6664 88.5414 97.6283 88.5414Z" fill="#848998"/>
<path d="M89.9493 87.394C89.9252 87.394 89.9007 87.3873 89.8787 87.3733C89.817 87.334 89.7988 87.2524 89.8381 87.1907C89.8441 87.181 90.4524 86.22 90.7962 85.2746C90.8215 85.2061 90.8981 85.1706 90.9657 85.1956C91.0346 85.2205 91.0701 85.2962 91.0452 85.3651C90.6909 86.3384 90.0872 87.2926 90.0614 87.3328C90.0364 87.3725 89.9933 87.394 89.9493 87.394Z" fill="#848998"/>
<path d="M108.823 46.9915C108.617 46.9915 108.436 46.9073 108.284 46.7416C107.709 46.1133 107.676 44.3482 107.823 43.0275C108.011 41.3359 110.266 41.4107 110.287 41.409C110.36 41.4124 110.416 41.4741 110.413 41.5468C110.41 41.62 110.343 41.6733 110.276 41.6741C110.193 41.6699 108.247 41.6111 108.086 43.0566C107.934 44.4222 107.997 46.036 108.479 46.5632C108.583 46.6761 108.71 46.7302 108.834 46.7264C109.228 46.7179 110.023 46.3632 110.864 45.9878C112.039 45.4644 113.254 44.9228 113.896 45.0636C113.968 45.0792 114.013 45.1494 113.997 45.2208C113.982 45.2927 113.91 45.3392 113.84 45.3219C113.28 45.1997 112.055 45.7468 110.972 46.2296C110.068 46.633 109.287 46.9813 108.84 46.991C108.834 46.9915 108.829 46.9915 108.823 46.9915Z" fill="#848998"/>
<path d="M122.118 39.2042C122.741 39.7602 124.461 41.4099 124.688 42.8846L126.883 42.4559C126.854 41.9096 126.608 39.4634 124.564 38.8525L122.118 39.2042ZM124.574 43.1742C124.545 43.1742 124.517 43.1653 124.494 43.148C124.464 43.1251 124.445 43.0909 124.442 43.0533C124.297 41.363 121.753 39.2376 121.728 39.2165C121.687 39.1827 121.671 39.129 121.685 39.0787C121.699 39.028 121.742 38.9908 121.793 38.9832L124.555 38.5866C124.573 38.5832 124.592 38.5849 124.611 38.5904C127.123 39.3155 127.152 42.5316 127.152 42.5641C127.152 42.6275 127.107 42.6821 127.045 42.6939L124.599 43.1721C124.591 43.1738 124.582 43.1742 124.574 43.1742Z" fill="#848998"/>
<path d="M124.573 55.9503C124.554 55.9503 124.535 55.9461 124.518 55.9381C124.478 55.9199 124.45 55.8839 124.443 55.8412C124.215 54.5602 122.453 53.1333 122.435 53.1189C122.378 53.0737 122.369 52.99 122.415 52.9333C122.46 52.8762 122.545 52.8669 122.601 52.9126C122.673 52.9705 124.306 54.2922 124.663 55.6138L126.104 54.7864C126.154 54.4017 126.322 52.3693 124.323 51.577C124.255 51.5504 124.221 51.473 124.248 51.4054C124.275 51.3373 124.353 51.3043 124.42 51.331C126.788 52.2695 126.36 54.8663 126.356 54.8921C126.349 54.931 126.325 54.9644 126.291 54.9842L124.639 55.933C124.619 55.9448 124.596 55.9503 124.573 55.9503Z" fill="#848998"/>
<mask id="mask0_1306_3300" style="mask-type:alpha" maskUnits="userSpaceOnUse" x="85" y="22" width="33" height="35">
<path d="M107.5 56.5L106.5 52L115 46.5L118 53.5V22.5H85.5V56.5H107.5Z" fill="#C4C4C4"/>
</mask>
<g mask="url(#mask0_1306_3300)">
<rect x="86.5" y="24.5" width="30" height="30" rx="3.5" stroke="#FF6767" stroke-dasharray="2 2"/>
</g>
</g>
<defs>
<clipPath id="clip0_1306_3300">
<rect width="125" height="100" fill="white" transform="translate(50)"/>
</clipPath>
</defs>
</svg>
