<svg width="225" height="215" viewBox="0 0 225 215" fill="none" xmlns="http://www.w3.org/2000/svg">
<path d="M28.5293 159H27.0352V147.478H22.9658V146.15H32.5986V147.478H28.5293V159ZM40.9131 159V152.769C40.9131 151.983 40.7344 151.397 40.377 151.011C40.0195 150.624 39.46 150.431 38.6982 150.431C37.6846 150.431 36.9434 150.706 36.4746 151.257C36.0117 151.808 35.7803 152.71 35.7803 153.964V159H34.3213V145.324H35.7803V149.464C35.7803 149.962 35.7568 150.375 35.71 150.703H35.7979C36.085 150.24 36.4922 149.877 37.0195 149.613C37.5527 149.344 38.1592 149.209 38.8389 149.209C40.0166 149.209 40.8984 149.49 41.4844 150.053C42.0762 150.609 42.3721 151.497 42.3721 152.716V159H40.9131ZM49.4473 159.176C48.0234 159.176 46.8984 158.742 46.0723 157.875C45.252 157.008 44.8418 155.804 44.8418 154.263C44.8418 152.71 45.2227 151.477 45.9844 150.562C46.752 149.648 47.7803 149.191 49.0693 149.191C50.2764 149.191 51.2314 149.59 51.9346 150.387C52.6377 151.178 52.9893 152.224 52.9893 153.524V154.447H46.3535C46.3828 155.578 46.667 156.437 47.2061 157.022C47.751 157.608 48.5156 157.901 49.5 157.901C50.5371 157.901 51.5625 157.685 52.5762 157.251V158.552C52.0605 158.774 51.5713 158.933 51.1084 159.026C50.6514 159.126 50.0977 159.176 49.4473 159.176ZM49.0518 150.413C48.2783 150.413 47.6602 150.665 47.1973 151.169C46.7402 151.673 46.4707 152.37 46.3887 153.261H51.4248C51.4248 152.341 51.2197 151.638 50.8096 151.151C50.3994 150.659 49.8135 150.413 49.0518 150.413ZM66.375 156.372C66.375 157.269 66.041 157.96 65.373 158.446C64.7051 158.933 63.7676 159.176 62.5605 159.176C61.2832 159.176 60.2871 158.974 59.5723 158.569V157.216C60.0352 157.45 60.5303 157.635 61.0576 157.77C61.5908 157.904 62.1035 157.972 62.5957 157.972C63.3574 157.972 63.9434 157.852 64.3535 157.611C64.7637 157.365 64.9688 156.993 64.9688 156.495C64.9688 156.12 64.8047 155.801 64.4766 155.537C64.1543 155.268 63.5215 154.951 62.5781 154.588C61.6816 154.254 61.043 153.964 60.6621 153.718C60.2871 153.466 60.0059 153.182 59.8184 152.865C59.6367 152.549 59.5459 152.171 59.5459 151.731C59.5459 150.946 59.8652 150.328 60.5039 149.877C61.1426 149.42 62.0186 149.191 63.1318 149.191C64.1689 149.191 65.1826 149.402 66.1729 149.824L65.6543 151.011C64.6875 150.612 63.8115 150.413 63.0264 150.413C62.335 150.413 61.8135 150.521 61.4619 150.738C61.1104 150.955 60.9346 151.254 60.9346 151.635C60.9346 151.893 60.999 152.112 61.1279 152.294C61.2627 152.476 61.4766 152.648 61.7695 152.812C62.0625 152.977 62.625 153.214 63.457 153.524C64.5996 153.94 65.3701 154.359 65.7686 154.781C66.1729 155.203 66.375 155.733 66.375 156.372ZM81.0352 159V152.733C81.0352 151.966 80.8711 151.392 80.543 151.011C80.2148 150.624 79.7051 150.431 79.0137 150.431C78.1055 150.431 77.4346 150.691 77.001 151.213C76.5674 151.734 76.3506 152.537 76.3506 153.621V159H74.8916V152.733C74.8916 151.966 74.7275 151.392 74.3994 151.011C74.0713 150.624 73.5586 150.431 72.8613 150.431C71.9473 150.431 71.2764 150.706 70.8486 151.257C70.4268 151.802 70.2158 152.698 70.2158 153.946V159H68.7568V149.367H69.9434L70.1807 150.686H70.251C70.5264 150.217 70.9131 149.851 71.4111 149.587C71.915 149.323 72.4775 149.191 73.0986 149.191C74.6045 149.191 75.5889 149.736 76.0518 150.826H76.1221C76.4092 150.322 76.8252 149.924 77.3701 149.631C77.915 149.338 78.5361 149.191 79.2334 149.191C80.3232 149.191 81.1377 149.473 81.6768 150.035C82.2217 150.592 82.4941 151.485 82.4941 152.716V159H81.0352ZM91.4326 159L91.1426 157.629H91.0723C90.5918 158.232 90.1113 158.643 89.6309 158.859C89.1562 159.07 88.5615 159.176 87.8467 159.176C86.8916 159.176 86.1416 158.93 85.5967 158.438C85.0576 157.945 84.7881 157.245 84.7881 156.337C84.7881 154.392 86.3438 153.372 89.4551 153.278L91.0898 153.226V152.628C91.0898 151.872 90.9258 151.315 90.5977 150.958C90.2754 150.595 89.7568 150.413 89.042 150.413C88.2393 150.413 87.3311 150.659 86.3174 151.151L85.8691 150.035C86.3438 149.777 86.8623 149.575 87.4248 149.429C87.9932 149.282 88.5615 149.209 89.1299 149.209C90.2783 149.209 91.1279 149.464 91.6787 149.974C92.2354 150.483 92.5137 151.301 92.5137 152.426V159H91.4326ZM88.1367 157.972C89.0449 157.972 89.7568 157.723 90.2725 157.225C90.7939 156.727 91.0547 156.029 91.0547 155.133V154.263L89.5957 154.324C88.4355 154.365 87.5977 154.547 87.082 154.869C86.5723 155.186 86.3174 155.681 86.3174 156.354C86.3174 156.882 86.4756 157.283 86.792 157.559C87.1143 157.834 87.5625 157.972 88.1367 157.972ZM96.9873 159H95.5283V145.324H96.9873V159ZM101.54 159H100.081V145.324H101.54V159ZM108.703 159.176C107.279 159.176 106.154 158.742 105.328 157.875C104.508 157.008 104.098 155.804 104.098 154.263C104.098 152.71 104.479 151.477 105.24 150.562C106.008 149.648 107.036 149.191 108.325 149.191C109.532 149.191 110.487 149.59 111.19 150.387C111.894 151.178 112.245 152.224 112.245 153.524V154.447H105.609C105.639 155.578 105.923 156.437 106.462 157.022C107.007 157.608 107.771 157.901 108.756 157.901C109.793 157.901 110.818 157.685 111.832 157.251V158.552C111.316 158.774 110.827 158.933 110.364 159.026C109.907 159.126 109.354 159.176 108.703 159.176ZM108.308 150.413C107.534 150.413 106.916 150.665 106.453 151.169C105.996 151.673 105.727 152.37 105.645 153.261H110.681C110.681 152.341 110.476 151.638 110.065 151.151C109.655 150.659 109.069 150.413 108.308 150.413ZM120.955 156.372C120.955 157.269 120.621 157.96 119.953 158.446C119.285 158.933 118.348 159.176 117.141 159.176C115.863 159.176 114.867 158.974 114.152 158.569V157.216C114.615 157.45 115.11 157.635 115.638 157.77C116.171 157.904 116.684 157.972 117.176 157.972C117.938 157.972 118.523 157.852 118.934 157.611C119.344 157.365 119.549 156.993 119.549 156.495C119.549 156.12 119.385 155.801 119.057 155.537C118.734 155.268 118.102 154.951 117.158 154.588C116.262 154.254 115.623 153.964 115.242 153.718C114.867 153.466 114.586 153.182 114.398 152.865C114.217 152.549 114.126 152.171 114.126 151.731C114.126 150.946 114.445 150.328 115.084 149.877C115.723 149.42 116.599 149.191 117.712 149.191C118.749 149.191 119.763 149.402 120.753 149.824L120.234 151.011C119.268 150.612 118.392 150.413 117.606 150.413C116.915 150.413 116.394 150.521 116.042 150.738C115.69 150.955 115.515 151.254 115.515 151.635C115.515 151.893 115.579 152.112 115.708 152.294C115.843 152.476 116.057 152.648 116.35 152.812C116.643 152.977 117.205 153.214 118.037 153.524C119.18 153.94 119.95 154.359 120.349 154.781C120.753 155.203 120.955 155.733 120.955 156.372ZM126.448 157.972C126.706 157.972 126.955 157.954 127.195 157.919C127.436 157.878 127.626 157.837 127.767 157.796V158.912C127.608 158.988 127.374 159.05 127.063 159.097C126.759 159.149 126.483 159.176 126.237 159.176C124.374 159.176 123.442 158.194 123.442 156.231V150.501H122.062V149.798L123.442 149.191L124.058 147.135H124.901V149.367H127.696V150.501H124.901V156.17C124.901 156.75 125.039 157.195 125.314 157.506C125.59 157.816 125.968 157.972 126.448 157.972ZM138.858 159.176C138.231 159.176 137.657 159.062 137.136 158.833C136.62 158.599 136.187 158.241 135.835 157.761H135.729C135.8 158.323 135.835 158.856 135.835 159.36V163.324H134.376V149.367H135.562L135.765 150.686H135.835C136.21 150.158 136.646 149.777 137.145 149.543C137.643 149.309 138.214 149.191 138.858 149.191C140.136 149.191 141.12 149.628 141.812 150.501C142.509 151.374 142.857 152.599 142.857 154.175C142.857 155.757 142.503 156.987 141.794 157.866C141.091 158.739 140.112 159.176 138.858 159.176ZM138.647 150.431C137.663 150.431 136.951 150.703 136.512 151.248C136.072 151.793 135.847 152.66 135.835 153.85V154.175C135.835 155.528 136.061 156.498 136.512 157.084C136.963 157.664 137.687 157.954 138.683 157.954C139.515 157.954 140.165 157.617 140.634 156.943C141.108 156.27 141.346 155.341 141.346 154.157C141.346 152.956 141.108 152.036 140.634 151.397C140.165 150.753 139.503 150.431 138.647 150.431ZM153.729 154.175C153.729 155.745 153.334 156.973 152.543 157.857C151.752 158.736 150.659 159.176 149.265 159.176C148.403 159.176 147.639 158.974 146.971 158.569C146.303 158.165 145.787 157.585 145.424 156.829C145.061 156.073 144.879 155.188 144.879 154.175C144.879 152.604 145.271 151.383 146.057 150.51C146.842 149.631 147.932 149.191 149.326 149.191C150.674 149.191 151.743 149.64 152.534 150.536C153.331 151.433 153.729 152.646 153.729 154.175ZM146.391 154.175C146.391 155.405 146.637 156.343 147.129 156.987C147.621 157.632 148.345 157.954 149.3 157.954C150.255 157.954 150.979 157.635 151.471 156.996C151.969 156.352 152.218 155.411 152.218 154.175C152.218 152.95 151.969 152.021 151.471 151.389C150.979 150.75 150.249 150.431 149.282 150.431C148.327 150.431 147.606 150.744 147.12 151.371C146.634 151.998 146.391 152.933 146.391 154.175ZM162.51 156.372C162.51 157.269 162.176 157.96 161.508 158.446C160.84 158.933 159.902 159.176 158.695 159.176C157.418 159.176 156.422 158.974 155.707 158.569V157.216C156.17 157.45 156.665 157.635 157.192 157.77C157.726 157.904 158.238 157.972 158.73 157.972C159.492 157.972 160.078 157.852 160.488 157.611C160.898 157.365 161.104 156.993 161.104 156.495C161.104 156.12 160.939 155.801 160.611 155.537C160.289 155.268 159.656 154.951 158.713 154.588C157.816 154.254 157.178 153.964 156.797 153.718C156.422 153.466 156.141 153.182 155.953 152.865C155.771 152.549 155.681 152.171 155.681 151.731C155.681 150.946 156 150.328 156.639 149.877C157.277 149.42 158.153 149.191 159.267 149.191C160.304 149.191 161.317 149.402 162.308 149.824L161.789 151.011C160.822 150.612 159.946 150.413 159.161 150.413C158.47 150.413 157.948 150.521 157.597 150.738C157.245 150.955 157.069 151.254 157.069 151.635C157.069 151.893 157.134 152.112 157.263 152.294C157.397 152.476 157.611 152.648 157.904 152.812C158.197 152.977 158.76 153.214 159.592 153.524C160.734 153.94 161.505 154.359 161.903 154.781C162.308 155.203 162.51 155.733 162.51 156.372ZM171.105 156.372C171.105 157.269 170.771 157.96 170.104 158.446C169.436 158.933 168.498 159.176 167.291 159.176C166.014 159.176 165.018 158.974 164.303 158.569V157.216C164.766 157.45 165.261 157.635 165.788 157.77C166.321 157.904 166.834 157.972 167.326 157.972C168.088 157.972 168.674 157.852 169.084 157.611C169.494 157.365 169.699 156.993 169.699 156.495C169.699 156.12 169.535 155.801 169.207 155.537C168.885 155.268 168.252 154.951 167.309 154.588C166.412 154.254 165.773 153.964 165.393 153.718C165.018 153.466 164.736 153.182 164.549 152.865C164.367 152.549 164.276 152.171 164.276 151.731C164.276 150.946 164.596 150.328 165.234 149.877C165.873 149.42 166.749 149.191 167.862 149.191C168.899 149.191 169.913 149.402 170.903 149.824L170.385 151.011C169.418 150.612 168.542 150.413 167.757 150.413C167.065 150.413 166.544 150.521 166.192 150.738C165.841 150.955 165.665 151.254 165.665 151.635C165.665 151.893 165.729 152.112 165.858 152.294C165.993 152.476 166.207 152.648 166.5 152.812C166.793 152.977 167.355 153.214 168.188 153.524C169.33 153.94 170.101 154.359 170.499 154.781C170.903 155.203 171.105 155.733 171.105 156.372ZM174.946 159H173.487V149.367H174.946V159ZM173.364 146.757C173.364 146.423 173.446 146.18 173.61 146.027C173.774 145.869 173.979 145.79 174.226 145.79C174.46 145.79 174.662 145.869 174.832 146.027C175.002 146.186 175.087 146.429 175.087 146.757C175.087 147.085 175.002 147.331 174.832 147.495C174.662 147.653 174.46 147.732 174.226 147.732C173.979 147.732 173.774 147.653 173.61 147.495C173.446 147.331 173.364 147.085 173.364 146.757ZM182.522 149.209C183.788 149.209 184.77 149.643 185.467 150.51C186.17 151.371 186.521 152.593 186.521 154.175C186.521 155.757 186.167 156.987 185.458 157.866C184.755 158.739 183.776 159.176 182.522 159.176C181.896 159.176 181.321 159.062 180.8 158.833C180.284 158.599 179.851 158.241 179.499 157.761H179.394L179.086 159H178.04V145.324H179.499V148.646C179.499 149.391 179.476 150.059 179.429 150.65H179.499C180.179 149.689 181.187 149.209 182.522 149.209ZM182.312 150.431C181.315 150.431 180.598 150.718 180.158 151.292C179.719 151.86 179.499 152.821 179.499 154.175C179.499 155.528 179.725 156.498 180.176 157.084C180.627 157.664 181.351 157.954 182.347 157.954C183.243 157.954 183.911 157.629 184.351 156.979C184.79 156.322 185.01 155.382 185.01 154.157C185.01 152.903 184.79 151.969 184.351 151.354C183.911 150.738 183.231 150.431 182.312 150.431ZM190.538 159H189.079V145.324H190.538V159ZM197.701 159.176C196.277 159.176 195.152 158.742 194.326 157.875C193.506 157.008 193.096 155.804 193.096 154.263C193.096 152.71 193.477 151.477 194.238 150.562C195.006 149.648 196.034 149.191 197.323 149.191C198.53 149.191 199.485 149.59 200.188 150.387C200.892 151.178 201.243 152.224 201.243 153.524V154.447H194.607C194.637 155.578 194.921 156.437 195.46 157.022C196.005 157.608 196.77 157.901 197.754 157.901C198.791 157.901 199.816 157.685 200.83 157.251V158.552C200.314 158.774 199.825 158.933 199.362 159.026C198.905 159.126 198.352 159.176 197.701 159.176ZM197.306 150.413C196.532 150.413 195.914 150.665 195.451 151.169C194.994 151.673 194.725 152.37 194.643 153.261H199.679C199.679 152.341 199.474 151.638 199.063 151.151C198.653 150.659 198.067 150.413 197.306 150.413ZM11.1006 182.708H11.0215C10.3477 183.687 9.33984 184.176 7.99805 184.176C6.73828 184.176 5.75684 183.745 5.05371 182.884C4.35645 182.022 4.00781 180.798 4.00781 179.21C4.00781 177.622 4.35938 176.389 5.0625 175.51C5.76562 174.631 6.74414 174.191 7.99805 174.191C9.30469 174.191 10.3066 174.666 11.0039 175.615H11.1182L11.0566 174.921L11.0215 174.244V170.324H12.4805V184H11.2939L11.1006 182.708ZM8.18262 182.954C9.17871 182.954 9.89941 182.685 10.3447 182.146C10.7959 181.601 11.0215 180.725 11.0215 179.518V179.21C11.0215 177.845 10.793 176.872 10.3359 176.292C9.88477 175.706 9.16113 175.413 8.16504 175.413C7.30957 175.413 6.65332 175.747 6.19629 176.415C5.74512 177.077 5.51953 178.015 5.51953 179.228C5.51953 180.458 5.74512 181.387 6.19629 182.014C6.64746 182.641 7.30957 182.954 8.18262 182.954ZM17.042 184H15.583V174.367H17.042V184ZM15.46 171.757C15.46 171.423 15.542 171.18 15.7061 171.027C15.8701 170.869 16.0752 170.79 16.3213 170.79C16.5557 170.79 16.7578 170.869 16.9277 171.027C17.0977 171.186 17.1826 171.429 17.1826 171.757C17.1826 172.085 17.0977 172.331 16.9277 172.495C16.7578 172.653 16.5557 172.732 16.3213 172.732C16.0752 172.732 15.8701 172.653 15.7061 172.495C15.542 172.331 15.46 172.085 15.46 171.757ZM26.3496 181.372C26.3496 182.269 26.0156 182.96 25.3477 183.446C24.6797 183.933 23.7422 184.176 22.5352 184.176C21.2578 184.176 20.2617 183.974 19.5469 183.569V182.216C20.0098 182.45 20.5049 182.635 21.0322 182.77C21.5654 182.904 22.0781 182.972 22.5703 182.972C23.332 182.972 23.918 182.852 24.3281 182.611C24.7383 182.365 24.9434 181.993 24.9434 181.495C24.9434 181.12 24.7793 180.801 24.4512 180.537C24.1289 180.268 23.4961 179.951 22.5527 179.588C21.6562 179.254 21.0176 178.964 20.6367 178.718C20.2617 178.466 19.9805 178.182 19.793 177.865C19.6113 177.549 19.5205 177.171 19.5205 176.731C19.5205 175.946 19.8398 175.328 20.4785 174.877C21.1172 174.42 21.9932 174.191 23.1064 174.191C24.1436 174.191 25.1572 174.402 26.1475 174.824L25.6289 176.011C24.6621 175.612 23.7861 175.413 23.001 175.413C22.3096 175.413 21.7881 175.521 21.4365 175.738C21.085 175.955 20.9092 176.254 20.9092 176.635C20.9092 176.893 20.9736 177.112 21.1025 177.294C21.2373 177.476 21.4512 177.648 21.7441 177.812C22.0371 177.977 22.5996 178.214 23.4316 178.524C24.5742 178.94 25.3447 179.359 25.7432 179.781C26.1475 180.203 26.3496 180.733 26.3496 181.372ZM31.8428 182.972C32.1006 182.972 32.3496 182.954 32.5898 182.919C32.8301 182.878 33.0205 182.837 33.1611 182.796V183.912C33.0029 183.988 32.7686 184.05 32.458 184.097C32.1533 184.149 31.8779 184.176 31.6318 184.176C29.7686 184.176 28.8369 183.194 28.8369 181.231V175.501H27.457V174.798L28.8369 174.191L29.4521 172.135H30.2959V174.367H33.0908V175.501H30.2959V181.17C30.2959 181.75 30.4336 182.195 30.709 182.506C30.9844 182.816 31.3623 182.972 31.8428 182.972ZM41.0186 184L40.7285 182.629H40.6582C40.1777 183.232 39.6973 183.643 39.2168 183.859C38.7422 184.07 38.1475 184.176 37.4326 184.176C36.4775 184.176 35.7275 183.93 35.1826 183.438C34.6436 182.945 34.374 182.245 34.374 181.337C34.374 179.392 35.9297 178.372 39.041 178.278L40.6758 178.226V177.628C40.6758 176.872 40.5117 176.315 40.1836 175.958C39.8613 175.595 39.3428 175.413 38.6279 175.413C37.8252 175.413 36.917 175.659 35.9033 176.151L35.4551 175.035C35.9297 174.777 36.4482 174.575 37.0107 174.429C37.5791 174.282 38.1475 174.209 38.7158 174.209C39.8643 174.209 40.7139 174.464 41.2646 174.974C41.8213 175.483 42.0996 176.301 42.0996 177.426V184H41.0186ZM37.7227 182.972C38.6309 182.972 39.3428 182.723 39.8584 182.225C40.3799 181.727 40.6406 181.029 40.6406 180.133V179.263L39.1816 179.324C38.0215 179.365 37.1836 179.547 36.668 179.869C36.1582 180.186 35.9033 180.681 35.9033 181.354C35.9033 181.882 36.0615 182.283 36.3779 182.559C36.7002 182.834 37.1484 182.972 37.7227 182.972ZM51.7061 184V177.769C51.7061 176.983 51.5273 176.397 51.1699 176.011C50.8125 175.624 50.2529 175.431 49.4912 175.431C48.4834 175.431 47.7451 175.703 47.2764 176.248C46.8076 176.793 46.5732 177.692 46.5732 178.946V184H45.1143V174.367H46.3008L46.5381 175.686H46.6084C46.9072 175.211 47.3262 174.845 47.8652 174.587C48.4043 174.323 49.0049 174.191 49.667 174.191C50.8271 174.191 51.7002 174.473 52.2861 175.035C52.8721 175.592 53.165 176.485 53.165 177.716V184H51.7061ZM60.0205 184.176C58.626 184.176 57.5449 183.748 56.7773 182.893C56.0156 182.031 55.6348 180.815 55.6348 179.245C55.6348 177.634 56.0215 176.389 56.7949 175.51C57.5742 174.631 58.6816 174.191 60.1172 174.191C60.5801 174.191 61.043 174.241 61.5059 174.341C61.9688 174.44 62.332 174.558 62.5957 174.692L62.1475 175.932C61.8252 175.803 61.4736 175.697 61.0928 175.615C60.7119 175.527 60.375 175.483 60.082 175.483C58.125 175.483 57.1465 176.731 57.1465 179.228C57.1465 180.411 57.3838 181.319 57.8584 181.952C58.3389 182.585 59.0479 182.901 59.9854 182.901C60.7881 182.901 61.6113 182.729 62.4551 182.383V183.675C61.8105 184.009 60.999 184.176 60.0205 184.176ZM68.8184 184.176C67.3945 184.176 66.2695 183.742 65.4434 182.875C64.623 182.008 64.2129 180.804 64.2129 179.263C64.2129 177.71 64.5938 176.477 65.3555 175.562C66.123 174.648 67.1514 174.191 68.4404 174.191C69.6475 174.191 70.6025 174.59 71.3057 175.387C72.0088 176.178 72.3604 177.224 72.3604 178.524V179.447H65.7246C65.7539 180.578 66.0381 181.437 66.5771 182.022C67.1221 182.608 67.8867 182.901 68.8711 182.901C69.9082 182.901 70.9336 182.685 71.9473 182.251V183.552C71.4316 183.774 70.9424 183.933 70.4795 184.026C70.0225 184.126 69.4688 184.176 68.8184 184.176ZM68.4229 175.413C67.6494 175.413 67.0312 175.665 66.5684 176.169C66.1113 176.673 65.8418 177.37 65.7598 178.261H70.7959C70.7959 177.341 70.5908 176.638 70.1807 176.151C69.7705 175.659 69.1846 175.413 68.4229 175.413ZM78.7061 179.069C78.7061 177.517 78.9316 176.063 79.3828 174.71C79.8398 173.356 80.4961 172.17 81.3516 171.15H83.5488C82.7227 172.281 82.0986 173.523 81.6768 174.877C81.2549 176.23 81.0439 177.622 81.0439 179.052C81.0439 180.487 81.2578 181.876 81.6855 183.218C82.1191 184.554 82.7344 185.764 83.5312 186.848H81.3516C80.4902 185.852 79.834 184.688 79.3828 183.358C78.9316 182.028 78.7061 180.599 78.7061 179.069ZM93.7881 184H84.8057V182.11L88.0312 178.85C88.9863 177.871 89.6104 177.194 89.9033 176.819C90.1963 176.438 90.4072 176.087 90.5361 175.765C90.665 175.442 90.7295 175.108 90.7295 174.763C90.7295 174.247 90.5859 173.863 90.2988 173.611C90.0176 173.359 89.6396 173.233 89.165 173.233C88.667 173.233 88.1836 173.348 87.7148 173.576C87.2461 173.805 86.7568 174.13 86.2471 174.552L84.7705 172.803C85.4033 172.264 85.9277 171.883 86.3438 171.66C86.7598 171.438 87.2139 171.268 87.7061 171.15C88.1982 171.027 88.749 170.966 89.3584 170.966C90.1611 170.966 90.8701 171.112 91.4854 171.405C92.1006 171.698 92.5781 172.108 92.918 172.636C93.2578 173.163 93.4277 173.767 93.4277 174.446C93.4277 175.038 93.3223 175.595 93.1113 176.116C92.9062 176.632 92.584 177.162 92.1445 177.707C91.7109 178.252 90.9434 179.028 89.8418 180.036L88.1895 181.592V181.715H93.7881V184ZM94.9043 180.273V178.076H99.624V180.273H94.9043ZM110.162 181.337H108.615V184H105.961V181.337H100.477V179.447L106.11 171.15H108.615V179.228H110.162V181.337ZM105.961 179.228V177.048C105.961 176.685 105.976 176.157 106.005 175.466C106.034 174.774 106.058 174.373 106.075 174.262H106.005C105.788 174.742 105.527 175.211 105.223 175.668L102.867 179.228H105.961ZM114.073 171.15L113.713 175.791H111.981L111.621 171.15H114.073ZM117.782 171.15L117.422 175.791H115.69L115.33 171.15H117.782ZM127.178 179.069C127.178 180.042 127.336 180.777 127.652 181.275C127.975 181.773 128.496 182.022 129.217 182.022C129.932 182.022 130.444 181.776 130.755 181.284C131.071 180.786 131.229 180.048 131.229 179.069C131.229 178.097 131.071 177.367 130.755 176.881C130.438 176.395 129.92 176.151 129.199 176.151C128.484 176.151 127.969 176.395 127.652 176.881C127.336 177.361 127.178 178.091 127.178 179.069ZM133.972 179.069C133.972 180.669 133.55 181.92 132.706 182.822C131.862 183.725 130.688 184.176 129.182 184.176C128.238 184.176 127.406 183.971 126.686 183.561C125.965 183.145 125.411 182.55 125.024 181.776C124.638 181.003 124.444 180.101 124.444 179.069C124.444 177.464 124.863 176.216 125.701 175.325C126.539 174.435 127.717 173.989 129.234 173.989C130.178 173.989 131.01 174.194 131.73 174.604C132.451 175.015 133.005 175.604 133.392 176.371C133.778 177.139 133.972 178.038 133.972 179.069ZM141.671 173.989C142.034 173.989 142.336 174.016 142.576 174.068L142.374 176.582C142.157 176.523 141.894 176.494 141.583 176.494C140.728 176.494 140.06 176.714 139.579 177.153C139.104 177.593 138.867 178.208 138.867 178.999V184H136.187V174.174H138.217L138.612 175.826H138.744C139.049 175.275 139.459 174.833 139.975 174.499C140.496 174.159 141.062 173.989 141.671 173.989ZM153.026 175.791C154.269 175.791 155.256 176.14 155.988 176.837C156.727 177.534 157.096 178.489 157.096 179.702C157.096 181.138 156.653 182.242 155.769 183.016C154.884 183.789 153.618 184.176 151.972 184.176C150.542 184.176 149.388 183.944 148.509 183.481V181.135C148.972 181.381 149.511 181.583 150.126 181.741C150.741 181.894 151.324 181.97 151.875 181.97C153.533 181.97 154.362 181.29 154.362 179.931C154.362 178.636 153.504 177.988 151.787 177.988C151.477 177.988 151.134 178.021 150.759 178.085C150.384 178.144 150.079 178.208 149.845 178.278L148.764 177.698L149.247 171.15H156.217V173.453H151.629L151.392 175.976L151.699 175.914C152.057 175.832 152.499 175.791 153.026 175.791ZM158.449 180.273V178.076H163.169V180.273H158.449ZM171.149 184H168.434V176.564L168.46 175.343L168.504 174.007C168.053 174.458 167.739 174.754 167.563 174.895L166.087 176.081L164.777 174.446L168.917 171.15H171.149V184ZM183.63 177.575C183.63 179.819 183.261 181.48 182.522 182.559C181.79 183.637 180.659 184.176 179.13 184.176C177.647 184.176 176.528 183.619 175.772 182.506C175.022 181.393 174.647 179.749 174.647 177.575C174.647 175.308 175.014 173.638 175.746 172.565C176.479 171.487 177.606 170.948 179.13 170.948C180.612 170.948 181.731 171.511 182.487 172.636C183.249 173.761 183.63 175.407 183.63 177.575ZM177.346 177.575C177.346 179.151 177.48 180.282 177.75 180.968C178.025 181.647 178.485 181.987 179.13 181.987C179.763 181.987 180.22 181.642 180.501 180.95C180.782 180.259 180.923 179.134 180.923 177.575C180.923 175.999 180.779 174.868 180.492 174.183C180.211 173.491 179.757 173.146 179.13 173.146C178.491 173.146 178.034 173.491 177.759 174.183C177.483 174.868 177.346 175.999 177.346 177.575ZM194.353 184.176C191.294 184.176 189.765 182.497 189.765 179.14C189.765 177.47 190.181 176.195 191.013 175.316C191.845 174.432 193.037 173.989 194.59 173.989C195.727 173.989 196.746 174.212 197.648 174.657L196.857 176.731C196.436 176.562 196.043 176.424 195.68 176.318C195.316 176.207 194.953 176.151 194.59 176.151C193.195 176.151 192.498 177.142 192.498 179.122C192.498 181.044 193.195 182.005 194.59 182.005C195.105 182.005 195.583 181.938 196.022 181.803C196.462 181.662 196.901 181.445 197.341 181.152V183.446C196.907 183.722 196.468 183.912 196.022 184.018C195.583 184.123 195.026 184.176 194.353 184.176ZM208.424 184H205.743V178.261C205.743 177.552 205.623 177.021 205.383 176.67C205.148 176.312 204.776 176.134 204.267 176.134C203.581 176.134 203.083 176.386 202.772 176.89C202.462 177.394 202.307 178.223 202.307 179.377V184H199.626V174.174H201.674L202.034 175.431H202.184C202.447 174.979 202.828 174.628 203.326 174.376C203.824 174.118 204.396 173.989 205.04 173.989C206.511 173.989 207.507 174.47 208.028 175.431H208.266C208.529 174.974 208.916 174.619 209.426 174.367C209.941 174.115 210.521 173.989 211.166 173.989C212.279 173.989 213.12 174.276 213.688 174.851C214.263 175.419 214.55 176.333 214.55 177.593V184H211.86V178.261C211.86 177.552 211.74 177.021 211.5 176.67C211.266 176.312 210.894 176.134 210.384 176.134C209.728 176.134 209.235 176.368 208.907 176.837C208.585 177.306 208.424 178.05 208.424 179.069V184ZM221.282 179.069C221.282 180.61 221.054 182.046 220.597 183.376C220.146 184.706 219.492 185.863 218.637 186.848H216.457C217.248 185.77 217.86 184.562 218.294 183.227C218.728 181.885 218.944 180.493 218.944 179.052C218.944 177.622 218.733 176.23 218.312 174.877C217.89 173.523 217.266 172.281 216.439 171.15H218.637C219.498 172.176 220.154 173.368 220.605 174.728C221.057 176.081 221.282 177.528 221.282 179.069ZM48.7354 200.501H46.2832V209H44.8242V200.501H43.1016V199.842L44.8242 199.314V198.778C44.8242 196.411 45.8584 195.228 47.9268 195.228C48.4365 195.228 49.0342 195.33 49.7197 195.535L49.3418 196.704C48.7793 196.522 48.2988 196.432 47.9004 196.432C47.3496 196.432 46.9424 196.616 46.6787 196.985C46.415 197.349 46.2832 197.935 46.2832 198.743V199.367H48.7354V200.501ZM58.8076 204.175C58.8076 205.745 58.4121 206.973 57.6211 207.857C56.8301 208.736 55.7373 209.176 54.3428 209.176C53.4814 209.176 52.7168 208.974 52.0488 208.569C51.3809 208.165 50.8652 207.585 50.502 206.829C50.1387 206.073 49.957 205.188 49.957 204.175C49.957 202.604 50.3496 201.383 51.1348 200.51C51.9199 199.631 53.0098 199.191 54.4043 199.191C55.752 199.191 56.8213 199.64 57.6123 200.536C58.4092 201.433 58.8076 202.646 58.8076 204.175ZM51.4688 204.175C51.4688 205.405 51.7148 206.343 52.207 206.987C52.6992 207.632 53.4229 207.954 54.3779 207.954C55.333 207.954 56.0566 207.635 56.5488 206.996C57.0469 206.352 57.2959 205.411 57.2959 204.175C57.2959 202.95 57.0469 202.021 56.5488 201.389C56.0566 200.75 55.3271 200.431 54.3604 200.431C53.4053 200.431 52.6846 200.744 52.1982 201.371C51.7119 201.998 51.4688 202.933 51.4688 204.175ZM65.7686 199.191C66.1963 199.191 66.5801 199.227 66.9199 199.297L66.7178 200.65C66.3193 200.562 65.9678 200.519 65.6631 200.519C64.8838 200.519 64.2158 200.835 63.6592 201.468C63.1084 202.101 62.833 202.889 62.833 203.832V209H61.374V199.367H62.5781L62.7451 201.151H62.8154C63.1729 200.524 63.6035 200.041 64.1074 199.701C64.6113 199.361 65.165 199.191 65.7686 199.191ZM79.3213 209L79.0312 207.629H78.9609C78.4805 208.232 78 208.643 77.5195 208.859C77.0449 209.07 76.4502 209.176 75.7354 209.176C74.7803 209.176 74.0303 208.93 73.4854 208.438C72.9463 207.945 72.6768 207.245 72.6768 206.337C72.6768 204.392 74.2324 203.372 77.3438 203.278L78.9785 203.226V202.628C78.9785 201.872 78.8145 201.315 78.4863 200.958C78.1641 200.595 77.6455 200.413 76.9307 200.413C76.1279 200.413 75.2197 200.659 74.2061 201.151L73.7578 200.035C74.2324 199.777 74.751 199.575 75.3135 199.429C75.8818 199.282 76.4502 199.209 77.0186 199.209C78.167 199.209 79.0166 199.464 79.5674 199.974C80.124 200.483 80.4023 201.301 80.4023 202.426V209H79.3213ZM76.0254 207.972C76.9336 207.972 77.6455 207.723 78.1611 207.225C78.6826 206.727 78.9434 206.029 78.9434 205.133V204.263L77.4844 204.324C76.3242 204.365 75.4863 204.547 74.9707 204.869C74.4609 205.186 74.2061 205.681 74.2061 206.354C74.2061 206.882 74.3643 207.283 74.6807 207.559C75.0029 207.834 75.4512 207.972 76.0254 207.972ZM91.9424 209.176C90.5479 209.176 89.4668 208.748 88.6992 207.893C87.9375 207.031 87.5566 205.815 87.5566 204.245C87.5566 202.634 87.9434 201.389 88.7168 200.51C89.4961 199.631 90.6035 199.191 92.0391 199.191C92.502 199.191 92.9648 199.241 93.4277 199.341C93.8906 199.44 94.2539 199.558 94.5176 199.692L94.0693 200.932C93.7471 200.803 93.3955 200.697 93.0146 200.615C92.6338 200.527 92.2969 200.483 92.0039 200.483C90.0469 200.483 89.0684 201.731 89.0684 204.228C89.0684 205.411 89.3057 206.319 89.7803 206.952C90.2607 207.585 90.9697 207.901 91.9072 207.901C92.71 207.901 93.5332 207.729 94.377 207.383V208.675C93.7324 209.009 92.9209 209.176 91.9424 209.176ZM98.1299 209H96.6709V195.324H98.1299V209ZM105.293 209.176C103.869 209.176 102.744 208.742 101.918 207.875C101.098 207.008 100.688 205.804 100.688 204.263C100.688 202.71 101.068 201.477 101.83 200.562C102.598 199.648 103.626 199.191 104.915 199.191C106.122 199.191 107.077 199.59 107.78 200.387C108.483 201.178 108.835 202.224 108.835 203.524V204.447H102.199C102.229 205.578 102.513 206.437 103.052 207.022C103.597 207.608 104.361 207.901 105.346 207.901C106.383 207.901 107.408 207.685 108.422 207.251V208.552C107.906 208.774 107.417 208.933 106.954 209.026C106.497 209.126 105.943 209.176 105.293 209.176ZM104.897 200.413C104.124 200.413 103.506 200.665 103.043 201.169C102.586 201.673 102.316 202.37 102.234 203.261H107.271C107.271 202.341 107.065 201.638 106.655 201.151C106.245 200.659 105.659 200.413 104.897 200.413ZM117.255 209L116.965 207.629H116.895C116.414 208.232 115.934 208.643 115.453 208.859C114.979 209.07 114.384 209.176 113.669 209.176C112.714 209.176 111.964 208.93 111.419 208.438C110.88 207.945 110.61 207.245 110.61 206.337C110.61 204.392 112.166 203.372 115.277 203.278L116.912 203.226V202.628C116.912 201.872 116.748 201.315 116.42 200.958C116.098 200.595 115.579 200.413 114.864 200.413C114.062 200.413 113.153 200.659 112.14 201.151L111.691 200.035C112.166 199.777 112.685 199.575 113.247 199.429C113.815 199.282 114.384 199.209 114.952 199.209C116.101 199.209 116.95 199.464 117.501 199.974C118.058 200.483 118.336 201.301 118.336 202.426V209H117.255ZM113.959 207.972C114.867 207.972 115.579 207.723 116.095 207.225C116.616 206.727 116.877 206.029 116.877 205.133V204.263L115.418 204.324C114.258 204.365 113.42 204.547 112.904 204.869C112.395 205.186 112.14 205.681 112.14 206.354C112.14 206.882 112.298 207.283 112.614 207.559C112.937 207.834 113.385 207.972 113.959 207.972ZM125.745 199.191C126.173 199.191 126.557 199.227 126.896 199.297L126.694 200.65C126.296 200.562 125.944 200.519 125.64 200.519C124.86 200.519 124.192 200.835 123.636 201.468C123.085 202.101 122.81 202.889 122.81 203.832V209H121.351V199.367H122.555L122.722 201.151H122.792C123.149 200.524 123.58 200.041 124.084 199.701C124.588 199.361 125.142 199.191 125.745 199.191ZM137.716 200.501H135.264V209H133.805V200.501H132.082V199.842L133.805 199.314V198.778C133.805 196.411 134.839 195.228 136.907 195.228C137.417 195.228 138.015 195.33 138.7 195.535L138.322 196.704C137.76 196.522 137.279 196.432 136.881 196.432C136.33 196.432 135.923 196.616 135.659 196.985C135.396 197.349 135.264 197.935 135.264 198.743V199.367H137.716V200.501ZM143.868 199.191C144.296 199.191 144.68 199.227 145.02 199.297L144.817 200.65C144.419 200.562 144.067 200.519 143.763 200.519C142.983 200.519 142.315 200.835 141.759 201.468C141.208 202.101 140.933 202.889 140.933 203.832V209H139.474V199.367H140.678L140.845 201.151H140.915C141.272 200.524 141.703 200.041 142.207 199.701C142.711 199.361 143.265 199.191 143.868 199.191ZM152.745 209L152.455 207.629H152.385C151.904 208.232 151.424 208.643 150.943 208.859C150.469 209.07 149.874 209.176 149.159 209.176C148.204 209.176 147.454 208.93 146.909 208.438C146.37 207.945 146.101 207.245 146.101 206.337C146.101 204.392 147.656 203.372 150.768 203.278L152.402 203.226V202.628C152.402 201.872 152.238 201.315 151.91 200.958C151.588 200.595 151.069 200.413 150.354 200.413C149.552 200.413 148.644 200.659 147.63 201.151L147.182 200.035C147.656 199.777 148.175 199.575 148.737 199.429C149.306 199.282 149.874 199.209 150.442 199.209C151.591 199.209 152.44 199.464 152.991 199.974C153.548 200.483 153.826 201.301 153.826 202.426V209H152.745ZM149.449 207.972C150.357 207.972 151.069 207.723 151.585 207.225C152.106 206.727 152.367 206.029 152.367 205.133V204.263L150.908 204.324C149.748 204.365 148.91 204.547 148.395 204.869C147.885 205.186 147.63 205.681 147.63 206.354C147.63 206.882 147.788 207.283 148.104 207.559C148.427 207.834 148.875 207.972 149.449 207.972ZM169.119 209V202.733C169.119 201.966 168.955 201.392 168.627 201.011C168.299 200.624 167.789 200.431 167.098 200.431C166.189 200.431 165.519 200.691 165.085 201.213C164.651 201.734 164.435 202.537 164.435 203.621V209H162.976V202.733C162.976 201.966 162.812 201.392 162.483 201.011C162.155 200.624 161.643 200.431 160.945 200.431C160.031 200.431 159.36 200.706 158.933 201.257C158.511 201.802 158.3 202.698 158.3 203.946V209H156.841V199.367H158.027L158.265 200.686H158.335C158.61 200.217 158.997 199.851 159.495 199.587C159.999 199.323 160.562 199.191 161.183 199.191C162.688 199.191 163.673 199.736 164.136 200.826H164.206C164.493 200.322 164.909 199.924 165.454 199.631C165.999 199.338 166.62 199.191 167.317 199.191C168.407 199.191 169.222 199.473 169.761 200.035C170.306 200.592 170.578 201.485 170.578 202.716V209H169.119ZM177.662 209.176C176.238 209.176 175.113 208.742 174.287 207.875C173.467 207.008 173.057 205.804 173.057 204.263C173.057 202.71 173.438 201.477 174.199 200.562C174.967 199.648 175.995 199.191 177.284 199.191C178.491 199.191 179.446 199.59 180.149 200.387C180.853 201.178 181.204 202.224 181.204 203.524V204.447H174.568C174.598 205.578 174.882 206.437 175.421 207.022C175.966 207.608 176.73 207.901 177.715 207.901C178.752 207.901 179.777 207.685 180.791 207.251V208.552C180.275 208.774 179.786 208.933 179.323 209.026C178.866 209.126 178.312 209.176 177.662 209.176ZM177.267 200.413C176.493 200.413 175.875 200.665 175.412 201.169C174.955 201.673 174.686 202.37 174.604 203.261H179.64C179.64 202.341 179.435 201.638 179.024 201.151C178.614 200.659 178.028 200.413 177.267 200.413Z" fill="#13204B"/>
<path d="M100.5 36.5L57.5 80.5" stroke="#FF6767" stroke-dasharray="2 2"/>
<path d="M144.659 78.5978C144.479 78.5978 144.296 78.5778 144.112 78.5314C143.764 78.4446 143.552 78.0917 143.64 77.7435C143.727 77.3952 144.077 77.1822 144.427 77.2706C145.073 77.43 145.975 76.8152 146.267 76.5657L154.975 67.5688C155.987 65.9398 153.507 63.743 153.482 63.7214C153.466 63.7085 153.452 63.6948 153.438 63.6807L94.9125 3.40436C92.7797 1.39723 91.0763 1.57366 91.0053 1.58197C90.9754 1.58529 90.9385 1.58653 90.9082 1.58736L75.7587 1.30133C75.0948 1.49021 74.6694 1.82481 74.4595 2.32171C73.9408 3.54799 74.789 5.55551 75.2014 6.30814L111.531 45.8126C111.773 46.0766 111.756 46.4879 111.492 46.7308C111.229 46.9741 110.818 46.957 110.574 46.6926L74.1931 7.13175C74.1603 7.09605 74.1313 7.05661 74.1072 7.01427C74.0358 6.88932 72.3706 3.93156 73.2615 1.81817C73.6425 0.914444 74.4006 0.309601 75.5147 0.0206757C75.5724 0.00572968 75.6292 0.00115967 75.6902 -8.39233e-05L90.8937 0.286774C91.2949 0.252319 93.3967 0.193375 95.8237 2.47821L154.351 62.7554C154.682 63.0468 157.706 65.8157 156.026 68.3355C156.005 68.3683 155.98 68.399 155.953 68.4272L147.181 77.4902C147.17 77.5018 147.158 77.5131 147.146 77.5238C147.007 77.6471 145.898 78.5978 144.659 78.5978Z" fill="#848998"/>
<path d="M121.98 58.843C121.814 58.843 121.648 58.7795 121.521 58.6529L117.782 54.9122C117.528 54.6586 117.528 54.2468 117.782 53.9931C118.036 53.7391 118.448 53.7391 118.701 53.9931L122.44 57.7334C122.693 57.987 122.693 58.3989 122.44 58.6529C122.313 58.7795 122.146 58.843 121.98 58.843Z" fill="#848998"/>
<path d="M135.067 72.941C134.893 72.941 134.72 72.8717 134.592 72.7343L128.696 66.4041C128.451 66.1417 128.466 65.7303 128.728 65.4858C128.991 65.2417 129.402 65.255 129.647 65.5182L135.542 71.848C135.787 72.1108 135.773 72.5218 135.51 72.7667C135.385 72.8833 135.226 72.941 135.067 72.941Z" fill="#848998"/>
<path d="M126.151 55.4182C126.048 55.4182 125.946 55.3775 125.87 55.2974C124.008 53.3468 80.2455 7.4897 77.6774 4.34929C76.5122 2.92459 76.1002 1.87598 76.418 1.14329C76.6521 0.602802 77.2222 0.424713 77.5218 0.404785C77.7405 0.390255 77.9222 0.552986 77.9367 0.768017C77.9508 0.981392 77.7903 1.16655 77.5774 1.18274C77.567 1.18357 77.2326 1.21803 77.1313 1.45755C77.0488 1.65432 76.9944 2.28282 78.2807 3.85572C80.8302 6.97289 125.977 54.2812 126.433 54.7586C126.582 54.9147 126.577 55.1613 126.421 55.3103C126.345 55.3821 126.248 55.4182 126.151 55.4182Z" fill="#848998"/>
<path d="M139.38 69.5162C139.278 69.5162 139.176 69.476 139.099 69.3963L131.766 61.7717C131.616 61.6164 131.621 61.3698 131.776 61.2204C131.931 61.0709 132.177 61.0759 132.327 61.2312L139.661 68.8558C139.81 69.011 139.805 69.258 139.65 69.407C139.575 69.4801 139.477 69.5162 139.38 69.5162Z" fill="#848998"/>
<path d="M146.913 75.6003C145.919 75.6003 145.437 75.0212 145.404 74.9801C145.269 74.8116 145.296 74.5667 145.464 74.4318C145.632 74.2981 145.874 74.3251 146.009 74.4882C146.057 74.5434 147.002 75.5655 149.349 73.7111C149.518 73.5774 149.764 73.6061 149.897 73.7755C150.03 73.9448 150.001 74.1897 149.832 74.3234C148.586 75.3081 147.62 75.6003 146.913 75.6003Z" fill="#848998"/>
<path d="M114.072 69.6461C113.982 69.6461 113.892 69.6229 113.809 69.5743C113.597 69.4502 108.627 66.4924 108.058 62.7302C107.53 59.2456 107.513 54.1363 107.512 53.7174C107.491 53.4306 107.34 50.8854 108.463 49.2009C109.916 47.021 112.103 44.0944 114.314 43.8507C115.077 43.7656 115.768 44.0089 116.361 44.5714C116.734 44.8894 121.288 49.0058 117.618 56.1845L117.708 57.8877L120.147 60.227C120.355 60.4254 120.362 60.7546 120.164 60.9617C119.964 61.1693 119.635 61.1764 119.429 60.9775L116.84 58.4963C116.744 58.4046 116.687 58.28 116.68 58.148L116.573 56.0981C116.568 56.0052 116.588 55.9126 116.631 55.83C120.151 49.0896 115.872 45.5117 115.687 45.3626C115.676 45.3539 115.665 45.3435 115.654 45.3336C115.286 44.9811 114.887 44.835 114.428 44.8844C113.111 45.0297 111.395 46.6761 109.327 49.7779C108.361 51.2287 108.548 53.6302 108.55 53.6543C108.551 53.6684 108.552 53.683 108.552 53.6975C108.552 53.751 108.559 59.0941 109.086 62.5745C109.581 65.8457 114.288 68.6498 114.336 68.6776C114.582 68.8233 114.665 69.1417 114.52 69.3896C114.423 69.554 114.25 69.6461 114.072 69.6461Z" fill="#848998"/>
<path d="M127.984 83.2406C127.91 83.2406 127.834 83.2244 127.761 83.1904L117.085 78.1192C117.062 78.1088 117.041 78.0968 117.02 78.0827C116.865 77.9797 113.225 75.5205 113.774 72.0651C113.817 71.8002 113.856 71.5399 113.895 71.2838C114.195 69.3236 114.454 67.6307 115.441 65.6568C116.52 63.4965 120.665 59.4137 121.024 59.0617C121.433 58.5744 126.775 52.3413 130.279 54.2094C130.3 54.221 130.321 54.2347 130.341 54.2492C130.439 54.321 132.733 56.0413 132.729 59.07C132.725 61.9394 130.678 64.9083 126.645 67.8976C126.529 68.9516 126.029 72.6728 124.635 73.7459C124.407 73.9211 124.081 73.8779 123.906 73.6508C123.731 73.4234 123.773 73.0966 124.001 72.9215C124.891 72.2361 125.475 69.2738 125.634 67.5672C125.647 67.419 125.724 67.2837 125.845 67.1957C129.719 64.3658 131.686 61.6313 131.689 59.0692C131.693 56.725 129.991 55.2965 129.753 55.1085C127.402 53.9179 123.223 58.048 121.805 59.7483C121.794 59.762 121.782 59.7753 121.769 59.7878C121.725 59.8305 117.398 64.0673 116.37 66.1221C115.457 67.9495 115.21 69.5677 114.923 71.4411C114.884 71.6989 114.844 71.9613 114.801 72.2286C114.378 74.892 117.253 76.978 117.567 77.1972L128.207 82.2505C128.466 82.3738 128.577 82.6839 128.454 82.9434C128.365 83.1306 128.178 83.2406 127.984 83.2406Z" fill="#848998"/>
<path d="M128.525 71.6965C128.5 71.6965 128.476 71.6949 128.451 71.6911L125.431 71.2594C125.146 71.2187 124.949 70.9551 124.99 70.6712C125.031 70.3864 125.299 70.1888 125.578 70.2295L128.598 70.6612C128.882 70.7019 129.079 70.9655 129.039 71.2494C129.001 71.5089 128.779 71.6965 128.525 71.6965Z" fill="#848998"/>
<path d="M158.319 95.2563C149.416 95.2568 138.153 90.5551 137.597 90.3205L130.676 87.0751C130.65 87.0635 130.625 87.0494 130.603 87.0336C129.155 86.041 126.947 83.3091 128.945 80.0736C131.264 76.3167 135.22 71.6234 137.085 70.4158C137.298 70.278 137.545 70.1098 137.819 69.9247C140.055 68.4095 143.796 65.871 145.813 67.7772C145.851 67.8088 147.157 68.9591 147.163 71.192C147.17 73.9676 145.222 77.071 141.375 80.4153C141.159 80.6046 140.83 80.5809 140.642 80.3638C140.454 80.1475 140.477 79.8191 140.693 79.6307C145.167 75.7414 146.115 72.9144 146.123 71.2282C146.131 69.468 145.156 68.5834 145.114 68.5469C143.689 67.2027 140.25 69.5332 138.402 70.7857C138.122 70.9754 137.868 71.1472 137.65 71.2888C135.886 72.4308 132.085 76.966 129.829 80.6203C127.929 83.6972 130.796 85.8936 131.158 86.1531L138.02 89.3707C138.158 89.428 153.796 95.9546 162.476 93.7611C162.757 93.6909 163.037 93.859 163.108 94.1372C163.178 94.4157 163.009 94.6988 162.732 94.769C161.381 95.1106 159.886 95.2563 158.319 95.2563Z" fill="#848998"/>
<path d="M169.865 75.4003C169.626 75.4003 169.41 75.2338 169.357 74.9901C166.879 63.5228 155.805 52.3426 155.693 52.231C154.071 50.6078 149.396 47.599 146.837 46.7464C144.352 45.9169 142.928 43.9426 138.211 37.3986C137.689 36.6742 137.125 35.8925 136.515 35.0494C130.831 27.1969 127.475 29.2593 127.442 29.2813C127.428 29.29 127.414 29.2983 127.399 29.3062C125.035 30.5516 125.364 32.4715 125.368 32.4906C125.42 32.7729 125.235 33.0444 124.952 33.0975C124.667 33.1502 124.399 32.9638 124.346 32.682C124.325 32.5728 123.881 29.9941 126.899 28.3942C127.292 28.1575 131.289 26.0574 137.357 34.4392C137.967 35.2831 138.531 36.0656 139.054 36.7904C143.62 43.1248 144.998 45.0369 147.166 45.7596C149.892 46.6683 154.695 49.7618 156.428 51.4954C156.542 51.6091 167.831 63.0072 170.374 74.7705C170.434 75.0512 170.256 75.328 169.976 75.3887C169.939 75.3965 169.902 75.4003 169.865 75.4003Z" fill="#848998"/>
<path d="M166.847 100C166.756 100 166.665 99.9768 166.582 99.9269C162.741 97.6492 158.357 95.2776 157.667 95.2518C157.387 95.273 157.139 95.0538 157.119 94.7674C157.1 94.4805 157.323 94.2327 157.609 94.2136C158.72 94.1231 164.627 97.5587 167.112 99.0328C167.359 99.1793 167.44 99.4981 167.294 99.7451C167.197 99.9087 167.024 100 166.847 100Z" fill="#848998"/>
<path d="M176.48 78.5651C176.372 78.5651 176.262 78.531 176.168 78.4609L169.266 73.2822C169.037 73.1099 168.99 72.784 169.163 72.5541C169.335 72.3245 169.661 72.2784 169.89 72.4503L176.792 77.6294C177.022 77.8016 177.068 78.1275 176.896 78.3571C176.794 78.4937 176.638 78.5651 176.48 78.5651Z" fill="#848998"/>
<path d="M142.117 74.176C141.075 74.176 139.923 73.1868 139.133 72.154C138.931 71.8895 138.854 71.5852 138.903 71.249C139.063 70.1493 140.536 69.0667 140.598 69.021C140.655 68.9783 140.737 68.9911 140.78 69.0497C140.822 69.1078 140.809 69.1887 140.751 69.2311C140.737 69.2414 139.304 70.2954 139.16 71.2868C139.121 71.5549 139.18 71.7866 139.34 71.9958C140.102 72.9938 141.696 74.4724 142.83 73.6945L143.186 73.4521C144.315 72.6874 146.418 71.2643 146.298 70.3656C146.288 70.295 146.338 70.2294 146.41 70.2199C146.479 70.2112 146.546 70.2606 146.555 70.3316C146.696 71.3893 144.671 72.7604 143.332 73.6679L142.977 73.9087C142.707 74.0947 142.416 74.176 142.117 74.176Z" fill="#848998"/>
<path d="M139.238 83.9318C139.227 83.9318 139.216 83.9305 139.205 83.9276C139.135 83.9102 139.094 83.8375 139.111 83.7678C139.138 83.6615 139.249 83.5656 139.449 83.3921C140.004 82.9139 141.157 81.918 141.482 79.7519C141.492 79.6813 141.553 79.629 141.629 79.6427C141.7 79.6535 141.749 79.7195 141.738 79.7909C141.399 82.0517 140.197 83.0903 139.619 83.5893C139.507 83.686 139.379 83.796 139.362 83.8359C139.347 83.894 139.295 83.9318 139.238 83.9318Z" fill="#848998"/>
<path d="M145.851 83.7858C145.844 83.7858 145.838 83.7849 145.831 83.7841C145.76 83.7729 145.711 83.7069 145.722 83.6359C145.727 83.6031 146.198 80.3519 144.595 78.121C144.553 78.0629 144.566 77.9815 144.625 77.94C144.681 77.8977 144.764 77.9109 144.806 77.9695C146.471 80.2875 146 83.5379 145.979 83.6749C145.969 83.7393 145.914 83.7858 145.851 83.7858Z" fill="#848998"/>
<path d="M128.021 67.9613C127.979 67.9613 127.938 67.9414 127.912 67.9036C127.837 67.7899 127.286 67.5038 126.819 67.3037C126.753 67.2751 126.722 67.1987 126.751 67.1327C126.779 67.0667 126.855 67.0364 126.921 67.0642C127.096 67.1389 127.972 67.5233 128.129 67.7591C128.169 67.8189 128.153 67.8994 128.093 67.9397C128.07 67.9542 128.046 67.9613 128.021 67.9613Z" fill="#848998"/>
<path d="M125.283 61.9813C124.325 61.9813 123.426 61.4429 122.817 60.7222C121.912 59.6529 123.119 57.8152 123.131 57.7969C123.171 57.7371 123.252 57.7217 123.312 57.7608C123.371 57.801 123.387 57.8816 123.347 57.9413C123.035 58.4088 122.368 59.7895 123.015 60.5545C123.64 61.2943 125.097 62.2877 126.584 61.3204C127.881 60.4769 129.792 58.9069 130.119 58.6367C130.102 58.2116 129.888 55.7848 127.268 55.0816C127.199 55.0633 127.157 54.9919 127.176 54.9226C127.195 54.8528 127.264 54.8113 127.335 54.8308C130.345 55.6382 130.38 58.6662 130.38 58.6965C130.38 58.7351 130.363 58.7716 130.333 58.7961C130.312 58.8143 128.153 60.6098 126.725 61.5388C126.25 61.8485 125.759 61.9813 125.283 61.9813Z" fill="#848998"/>
<path d="M112.284 52.3219C111.541 52.3219 110.723 51.6328 110.167 51.0541C109.238 50.0873 109.301 49.2608 109.305 49.2259C109.311 49.1549 109.368 49.1059 109.445 49.108C109.517 49.1147 109.57 49.1778 109.563 49.2492C109.562 49.2653 109.519 50.0047 110.354 50.874C111.091 51.6403 111.776 52.062 112.284 52.062C112.285 52.062 112.286 52.062 112.287 52.062C112.514 52.0612 112.702 51.9786 112.863 51.8096C113.441 51.2002 114.319 50.0263 114.554 49.7091C114.104 49.1524 112.072 46.6044 112.036 45.9722C112.032 45.9004 112.087 45.8389 112.159 45.8352C112.233 45.8294 112.292 45.8862 112.296 45.9576C112.32 46.3989 113.856 48.4401 114.82 49.6232C114.856 49.6693 114.858 49.7344 114.823 49.7822C114.779 49.8424 113.732 51.2716 113.051 51.9886C112.842 52.209 112.585 52.3211 112.288 52.3219C112.287 52.3219 112.285 52.3219 112.284 52.3219Z" fill="#848998"/>
<path d="M116.014 61.7755C115.993 61.7755 115.972 61.7705 115.953 61.7601C115.89 61.7269 115.865 61.6481 115.899 61.5846C115.911 61.5609 117.167 59.1436 116.748 56.4868C116.737 56.4159 116.785 56.3494 116.856 56.3382C116.93 56.3254 116.994 56.3756 117.005 56.4466C117.438 59.1914 116.182 61.6049 116.128 61.7062C116.105 61.7506 116.06 61.7755 116.014 61.7755Z" fill="#848998"/>
<path d="M134.455 42.3905C134.397 42.3905 134.344 42.3515 134.329 42.2925C134.312 42.2228 134.354 42.1522 134.424 42.1348C135.658 41.8259 136.819 40.2576 136.831 40.2418C136.873 40.1833 136.954 40.1717 137.013 40.214C137.07 40.2563 137.083 40.3377 137.04 40.3954C136.991 40.4631 135.812 42.0555 134.487 42.3868C134.476 42.3892 134.465 42.3905 134.455 42.3905Z" fill="#848998"/>
<path d="M160.448 71.6295C160.43 71.6295 160.411 71.6258 160.394 71.6179C160.347 71.5967 155.673 69.5058 152.853 71.0737C152.791 71.1086 152.711 71.0861 152.677 71.023C152.642 70.9603 152.664 70.8815 152.727 70.8466C155.663 69.2152 160.305 71.2924 160.502 71.3813C160.567 71.4107 160.596 71.488 160.566 71.5536C160.544 71.6013 160.497 71.6295 160.448 71.6295Z" fill="#848998"/>
<path d="M160.375 96.1572C160.312 96.1572 160.258 96.1124 160.247 96.0489C160.235 95.9779 160.283 95.9111 160.353 95.899C173.016 93.7877 171.907 84.2008 171.894 84.1041C171.885 84.0327 171.935 83.9675 172.006 83.9584C172.078 83.9497 172.142 83.9991 172.152 84.0701C172.165 84.1689 173.313 94.0019 160.397 96.1552C160.389 96.1564 160.382 96.1572 160.375 96.1572Z" fill="#848998"/>
<path d="M86.6611 10.1805L140.48 65.5194L147.896 60.024L99.0287 9.56157L86.6611 10.1805ZM140.458 66.0209C140.401 66.0209 140.345 65.9989 140.303 65.9553L86.0191 10.139C85.9598 10.0784 85.942 9.98872 85.9731 9.90944C86.0038 9.83056 86.0781 9.77744 86.1631 9.77328L99.1047 9.12569C99.1678 9.12361 99.2271 9.14646 99.2703 9.19088L148.377 59.9007C148.421 59.9455 148.443 60.0066 148.438 60.0688C148.433 60.1303 148.401 60.1871 148.351 60.2245L140.586 65.9785C140.548 66.0068 140.502 66.0209 140.458 66.0209Z" fill="#848998"/>
<path d="M54.1428 83.8556L55.7118 78L56.6176 81.3806L59.9984 82.2866L54.1428 83.8556Z" fill="#FF6767"/>
</svg>
