<svg xmlns="http://www.w3.org/2000/svg" xmlns:xlink="http://www.w3.org/1999/xlink" version="1.1" width="1000" height="1000" viewBox="0 0 1000 1000" xml:space="preserve">
<desc>Created with Fabric.js 3.5.0</desc>
<defs>
</defs>
<rect x="0" y="0" width="100%" height="100%" fill="#ffffff"/>
<g transform="matrix(4.5344 0 0 4.5896 426.2555 573.3589)" id="507408">
<g style="" vector-effect="non-scaling-stroke">
		<g transform="matrix(1 0 0 1 -0.3621 -15.6235)">
<path style="stroke: none; stroke-width: 1; stroke-dasharray: none; stroke-linecap: butt; stroke-dashoffset: 0; stroke-linejoin: miter; stroke-miterlimit: 4; is-custom-font: none; font-file-url: none; fill: rgb(132,137,152); fill-rule: nonzero; opacity: 1;" transform=" translate(-124.6379, -109.3765)" d="M 168.282 166.753 C 168.019 166.753 167.752 166.724 167.483 166.656 C 166.976 166.529 166.667 166.014 166.794 165.506 C 166.921 164.997 167.433 164.686 167.944 164.815 C 168.886 165.048 170.204 164.15 170.63 163.786 L 183.343 150.651 C 184.822 148.272 181.201 145.065 181.164 145.033 C 181.141 145.015 181.12 144.995 181.1 144.974 L 95.6524 56.9705 C 92.5384 54.0401 90.0515 54.2977 89.9479 54.3098 C 89.9043 54.3147 89.8504 54.3165 89.8062 54.3177 L 67.6879 53.9001 C 66.7185 54.1759 66.0975 54.6644 65.791 55.3899 C 65.0337 57.1802 66.2721 60.1112 66.8742 61.2101 L 119.915 118.887 C 120.269 119.272 120.244 119.873 119.859 120.227 C 119.474 120.582 118.874 120.557 118.518 120.171 L 65.4021 62.4125 C 65.3542 62.3604 65.3118 62.3028 65.2767 62.241 C 65.1725 62.0586 62.7413 57.7403 64.042 54.6547 C 64.5981 53.3353 65.705 52.4522 67.3316 52.0304 C 67.4158 52.0085 67.4988 52.0019 67.5879 52.0001 L 89.7849 52.4189 C 90.3708 52.3686 93.4393 52.2825 96.9828 55.6184 L 182.433 143.623 C 182.916 144.049 187.331 148.091 184.879 151.77 C 184.847 151.818 184.811 151.863 184.771 151.904 L 171.965 165.136 C 171.948 165.153 171.931 165.169 171.913 165.185 C 171.711 165.365 170.091 166.753 168.282 166.753 Z" stroke-linecap="round"/>
</g>
		<g transform="matrix(1 0 0 1 7.4425 9.2314)">
<path style="stroke: none; stroke-width: 1; stroke-dasharray: none; stroke-linecap: butt; stroke-dashoffset: 0; stroke-linejoin: miter; stroke-miterlimit: 4; is-custom-font: none; font-file-url: none; fill: rgb(132,137,152); fill-rule: nonzero; opacity: 1;" transform=" translate(-132.4425, -134.2314)" d="M 135.171 137.911 C 134.929 137.911 134.686 137.818 134.501 137.634 L 129.042 132.172 C 128.672 131.802 128.672 131.201 129.042 130.83 C 129.413 130.459 130.014 130.459 130.384 130.83 L 135.843 136.291 C 136.213 136.661 136.213 137.263 135.843 137.634 C 135.657 137.818 135.414 137.911 135.171 137.911 Z" stroke-linecap="round"/>
</g>
		<g transform="matrix(1 0 0 1 24.9752 27.9246)">
<path style="stroke: none; stroke-width: 1; stroke-dasharray: none; stroke-linecap: butt; stroke-dashoffset: 0; stroke-linejoin: miter; stroke-miterlimit: 4; is-custom-font: none; font-file-url: none; fill: rgb(132,137,152); fill-rule: nonzero; opacity: 1;" transform=" translate(-149.9752, -152.9245)" d="M 154.279 158.494 C 154.026 158.494 153.772 158.393 153.585 158.192 L 144.977 148.95 C 144.62 148.567 144.641 147.967 145.025 147.61 C 145.408 147.253 146.008 147.273 146.365 147.657 L 154.973 156.898 C 155.331 157.282 155.309 157.882 154.926 158.24 C 154.743 158.41 154.511 158.494 154.279 158.494 Z" stroke-linecap="round"/>
</g>
		<g transform="matrix(1 0 0 1 -19.8342 -32.2503)">
<path style="stroke: none; stroke-width: 1; stroke-dasharray: none; stroke-linecap: butt; stroke-dashoffset: 0; stroke-linejoin: miter; stroke-miterlimit: 4; is-custom-font: none; font-file-url: none; fill: rgb(132,137,152); fill-rule: nonzero; opacity: 1;" transform=" translate(-105.1658, -92.7496)" d="M 141.262 132.91 C 141.112 132.91 140.962 132.851 140.85 132.734 C 138.132 129.886 74.2394 62.9345 70.4899 58.3495 C 68.7887 56.2695 68.1872 54.7385 68.6512 53.6688 C 68.9929 52.8797 69.8253 52.6197 70.2627 52.5906 C 70.582 52.5693 70.8473 52.8069 70.8685 53.1209 C 70.8891 53.4324 70.6547 53.7027 70.3439 53.7264 C 70.3288 53.7276 69.8405 53.7779 69.6926 54.1276 C 69.5721 54.4149 69.4927 55.3325 71.3708 57.6289 C 75.093 62.18 141.008 131.25 141.674 131.947 C 141.891 132.175 141.883 132.535 141.655 132.753 C 141.545 132.857 141.404 132.91 141.262 132.91 Z" stroke-linecap="round"/>
</g>
		<g transform="matrix(1 0 0 1 30.2217 22.3585)">
<path style="stroke: none; stroke-width: 1; stroke-dasharray: none; stroke-linecap: butt; stroke-dashoffset: 0; stroke-linejoin: miter; stroke-miterlimit: 4; is-custom-font: none; font-file-url: none; fill: rgb(132,137,152); fill-rule: nonzero; opacity: 1;" transform=" translate(-155.2217, -147.3585)" d="M 160.575 153.494 C 160.426 153.494 160.277 153.435 160.165 153.319 L 149.458 142.187 C 149.24 141.96 149.247 141.6 149.473 141.382 C 149.701 141.164 150.059 141.171 150.278 141.398 L 160.985 152.53 C 161.204 152.757 161.196 153.117 160.97 153.335 C 160.859 153.441 160.717 153.494 160.575 153.494 Z" stroke-linecap="round"/>
</g>
		<g transform="matrix(1 0 0 1 47.6494 35.9355)">
<path style="stroke: none; stroke-width: 1; stroke-dasharray: none; stroke-linecap: butt; stroke-dashoffset: 0; stroke-linejoin: miter; stroke-miterlimit: 4; is-custom-font: none; font-file-url: none; fill: rgb(132,137,152); fill-rule: nonzero; opacity: 1;" transform=" translate(-172.6494, -160.9355)" d="M 171.574 162.376 C 170.123 162.376 169.419 161.53 169.371 161.47 C 169.175 161.224 169.214 160.867 169.459 160.67 C 169.704 160.475 170.057 160.514 170.254 160.752 C 170.324 160.833 171.704 162.325 175.131 159.618 C 175.378 159.423 175.736 159.464 175.93 159.712 C 176.125 159.959 176.083 160.316 175.836 160.512 C 174.016 161.949 172.607 162.376 171.574 162.376 Z" stroke-linecap="round"/>
</g>
		<g transform="matrix(1 0 0 1 -1.6238 9.841)">
<path style="stroke: none; stroke-width: 1; stroke-dasharray: none; stroke-linecap: butt; stroke-dashoffset: 0; stroke-linejoin: miter; stroke-miterlimit: 4; is-custom-font: none; font-file-url: none; fill: rgb(132,137,152); fill-rule: nonzero; opacity: 1;" transform=" translate(-123.3762, -134.8409)" d="M 123.626 153.684 C 123.495 153.684 123.363 153.65 123.242 153.579 C 122.933 153.398 115.677 149.079 114.846 143.586 C 114.075 138.499 114.05 131.039 114.049 130.428 C 114.018 130.009 113.798 126.293 115.437 123.834 C 117.558 120.651 120.752 116.378 123.979 116.022 C 125.094 115.898 126.102 116.253 126.969 117.075 C 127.512 117.539 134.162 123.549 128.804 134.03 L 128.934 136.516 L 132.496 139.932 C 132.799 140.221 132.809 140.702 132.52 141.004 C 132.229 141.307 131.749 141.318 131.447 141.027 L 127.668 137.405 C 127.528 137.271 127.445 137.089 127.434 136.896 L 127.277 133.904 C 127.27 133.768 127.299 133.633 127.362 133.512 C 132.501 123.671 126.254 118.447 125.985 118.23 C 125.968 118.217 125.951 118.202 125.936 118.187 C 125.399 117.673 124.816 117.459 124.145 117.531 C 122.223 117.744 119.718 120.147 116.699 124.676 C 115.288 126.794 115.561 130.3 115.564 130.336 C 115.566 130.356 115.567 130.377 115.567 130.399 C 115.567 130.477 115.576 138.278 116.346 143.359 C 117.069 148.135 123.941 152.229 124.011 152.27 C 124.371 152.482 124.492 152.947 124.28 153.309 C 124.139 153.549 123.885 153.684 123.626 153.684 Z" stroke-linecap="round"/>
</g>
		<g transform="matrix(1 0 0 1 11.9868 27.0842)">
<path style="stroke: none; stroke-width: 1; stroke-dasharray: none; stroke-linecap: butt; stroke-dashoffset: 0; stroke-linejoin: miter; stroke-miterlimit: 4; is-custom-font: none; font-file-url: none; fill: rgb(132,137,152); fill-rule: nonzero; opacity: 1;" transform=" translate(-136.9868, -152.0842)" d="M 143.937 173.531 C 143.828 173.531 143.718 173.508 143.612 173.458 L 128.024 166.054 C 127.991 166.039 127.96 166.021 127.93 166.001 C 127.703 165.85 122.389 162.26 123.191 157.215 C 123.253 156.828 123.311 156.448 123.368 156.074 C 123.806 153.212 124.183 150.741 125.624 147.859 C 127.2 144.705 133.252 138.744 133.776 138.23 C 134.373 137.519 142.172 128.418 147.287 131.146 C 147.319 131.163 147.349 131.183 147.379 131.204 C 147.521 131.309 150.871 133.82 150.865 138.242 C 150.858 142.431 147.87 146.766 141.982 151.131 C 141.813 152.669 141.082 158.102 139.047 159.669 C 138.715 159.925 138.239 159.862 137.983 159.53 C 137.727 159.198 137.789 158.721 138.122 158.465 C 139.422 157.465 140.273 153.14 140.505 150.648 C 140.525 150.432 140.638 150.234 140.814 150.106 C 146.47 145.974 149.341 141.982 149.347 138.241 C 149.352 134.818 146.867 132.733 146.52 132.458 C 143.088 130.72 136.987 136.75 134.916 139.233 C 134.899 139.253 134.881 139.272 134.863 139.29 C 134.799 139.353 128.481 145.538 126.981 148.538 C 125.647 151.206 125.286 153.569 124.868 156.304 C 124.811 156.68 124.752 157.063 124.69 157.454 C 124.072 161.342 128.269 164.388 128.729 164.708 L 144.263 172.086 C 144.641 172.266 144.803 172.718 144.623 173.097 C 144.493 173.371 144.221 173.531 143.937 173.531 Z" stroke-linecap="round"/>
</g>
		<g transform="matrix(1 0 0 1 17.521 30.602)">
<path style="stroke: none; stroke-width: 1; stroke-dasharray: none; stroke-linecap: butt; stroke-dashoffset: 0; stroke-linejoin: miter; stroke-miterlimit: 4; is-custom-font: none; font-file-url: none; fill: rgb(132,137,152); fill-rule: nonzero; opacity: 1;" transform=" translate(-142.521, -155.6021)" d="M 144.727 156.677 C 144.691 156.677 144.655 156.674 144.618 156.669 L 140.21 156.039 C 139.794 155.979 139.506 155.594 139.565 155.18 C 139.625 154.764 140.017 154.475 140.424 154.535 L 144.833 155.165 C 145.248 155.225 145.536 155.609 145.477 156.024 C 145.422 156.403 145.098 156.677 144.727 156.677 Z" stroke-linecap="round"/>
</g>
		<g transform="matrix(1 0 0 1 44.707 45.5168)">
<path style="stroke: none; stroke-width: 1; stroke-dasharray: none; stroke-linecap: butt; stroke-dashoffset: 0; stroke-linejoin: miter; stroke-miterlimit: 4; is-custom-font: none; font-file-url: none; fill: rgb(132,137,152); fill-rule: nonzero; opacity: 1;" transform=" translate(-169.707, -170.5167)" d="M 188.225 191.074 C 175.227 191.075 158.784 184.21 157.972 183.868 L 147.867 179.13 C 147.83 179.113 147.793 179.092 147.76 179.069 C 145.647 177.62 142.422 173.631 145.339 168.907 C 148.725 163.422 154.501 156.57 157.224 154.807 C 157.536 154.606 157.896 154.36 158.295 154.09 C 161.56 151.878 167.023 148.172 169.967 150.955 C 170.022 151.001 171.929 152.68 171.937 155.94 C 171.948 159.993 169.104 164.524 163.488 169.406 C 163.172 169.683 162.691 169.648 162.417 169.331 C 162.142 169.015 162.176 168.536 162.492 168.261 C 169.023 162.582 170.408 158.455 170.42 155.993 C 170.432 153.423 169.008 152.132 168.947 152.078 C 166.867 150.116 161.845 153.518 159.147 155.347 C 158.738 155.624 158.368 155.875 158.049 156.082 C 155.473 157.749 149.924 164.37 146.63 169.706 C 143.856 174.198 148.043 177.405 148.571 177.783 L 158.588 182.481 C 158.791 182.565 181.622 192.094 194.295 188.891 C 194.704 188.789 195.115 189.034 195.217 189.44 C 195.32 189.847 195.073 190.26 194.668 190.363 C 192.697 190.861 190.513 191.074 188.225 191.074 Z" stroke-linecap="round"/>
</g>
		<g transform="matrix(1 0 0 1 47.2092 2.4744)">
<path style="stroke: none; stroke-width: 1; stroke-dasharray: none; stroke-linecap: butt; stroke-dashoffset: 0; stroke-linejoin: miter; stroke-miterlimit: 4; is-custom-font: none; font-file-url: none; fill: rgb(132,137,152); fill-rule: nonzero; opacity: 1;" transform=" translate(-172.2092, -127.4745)" d="M 205.084 162.084 C 204.734 162.084 204.419 161.841 204.342 161.485 C 200.724 144.743 184.555 128.42 184.393 128.257 C 182.024 125.887 175.198 121.494 171.462 120.249 C 167.834 119.038 165.755 116.156 158.868 106.602 C 158.106 105.544 157.284 104.403 156.392 103.172 C 148.094 91.7071 143.194 94.7182 143.146 94.7503 C 143.125 94.763 143.105 94.7751 143.083 94.7866 C 139.631 96.6049 140.112 99.408 140.117 99.4359 C 140.194 99.848 139.923 100.244 139.511 100.322 C 139.094 100.399 138.703 100.127 138.625 99.7153 C 138.596 99.5559 137.946 95.7909 142.353 93.4551 C 142.927 93.1096 148.763 90.0434 157.621 102.281 C 158.513 103.513 159.336 104.655 160.099 105.714 C 166.766 114.962 168.778 117.753 171.943 118.809 C 175.923 120.135 182.935 124.652 185.466 127.183 C 185.632 127.349 202.114 143.99 205.826 161.165 C 205.914 161.574 205.654 161.979 205.245 162.067 C 205.191 162.079 205.137 162.084 205.084 162.084 Z" stroke-linecap="round"/>
</g>
		<g transform="matrix(1 0 0 1 68.9538 68.7747)">
<path style="stroke: none; stroke-width: 1; stroke-dasharray: none; stroke-linecap: butt; stroke-dashoffset: 0; stroke-linejoin: miter; stroke-miterlimit: 4; is-custom-font: none; font-file-url: none; fill: rgb(132,137,152); fill-rule: nonzero; opacity: 1;" transform=" translate(-193.9538, -193.7747)" d="M 200.676 198 C 200.544 198 200.411 197.966 200.29 197.893 C 194.682 194.568 188.281 191.105 187.274 191.068 C 186.864 191.099 186.503 190.779 186.474 190.36 C 186.446 189.942 186.771 189.58 187.19 189.552 C 188.812 189.42 197.436 194.436 201.063 196.588 C 201.424 196.802 201.543 197.267 201.329 197.628 C 201.188 197.867 200.935 198 200.676 198 Z" stroke-linecap="round"/>
</g>
		<g transform="matrix(1 0 0 1 84.7036 37.1655)">
<path style="stroke: none; stroke-width: 1; stroke-dasharray: none; stroke-linecap: butt; stroke-dashoffset: 0; stroke-linejoin: miter; stroke-miterlimit: 4; is-custom-font: none; font-file-url: none; fill: rgb(132,137,152); fill-rule: nonzero; opacity: 1;" transform=" translate(-209.7037, -162.1655)" d="M 214.741 166.705 C 214.583 166.705 214.423 166.655 214.286 166.553 L 204.21 158.992 C 203.875 158.741 203.807 158.265 204.058 157.929 C 204.31 157.594 204.786 157.527 205.12 157.777 L 215.198 165.339 C 215.533 165.59 215.6 166.066 215.349 166.401 C 215.2 166.601 214.972 166.705 214.741 166.705 Z" stroke-linecap="round"/>
</g>
		<g transform="matrix(1 0 0 1 40.4593 31.5153)">
<path style="stroke: none; stroke-width: 1; stroke-dasharray: none; stroke-linecap: butt; stroke-dashoffset: 0; stroke-linejoin: miter; stroke-miterlimit: 4; is-custom-font: none; font-file-url: none; fill: rgb(132,137,152); fill-rule: nonzero; opacity: 1;" transform=" translate(-165.4593, -156.5154)" d="M 164.571 160.297 C 163.049 160.297 161.368 158.853 160.214 157.345 C 159.92 156.959 159.807 156.514 159.878 156.023 C 160.112 154.418 162.262 152.837 162.353 152.771 C 162.437 152.708 162.556 152.727 162.618 152.812 C 162.68 152.897 162.661 153.015 162.577 153.077 C 162.556 153.092 160.464 154.631 160.254 156.079 C 160.197 156.47 160.283 156.808 160.516 157.114 C 161.629 158.571 163.956 160.73 165.612 159.594 L 166.131 159.24 C 167.78 158.123 170.85 156.046 170.674 154.734 C 170.661 154.631 170.734 154.535 170.838 154.521 C 170.94 154.508 171.037 154.58 171.051 154.684 C 171.257 156.228 168.3 158.23 166.344 159.555 L 165.827 159.907 C 165.432 160.178 165.008 160.297 164.571 160.297 Z" stroke-linecap="round"/>
</g>
		<g transform="matrix(1 0 0 1 37.0994 46.4074)">
<path style="stroke: none; stroke-width: 1; stroke-dasharray: none; stroke-linecap: butt; stroke-dashoffset: 0; stroke-linejoin: miter; stroke-miterlimit: 4; is-custom-font: none; font-file-url: none; fill: rgb(132,137,152); fill-rule: nonzero; opacity: 1;" transform=" translate(-162.0995, -171.4074)" d="M 160.368 174.54 C 160.352 174.54 160.336 174.538 160.32 174.534 C 160.218 174.509 160.158 174.402 160.184 174.301 C 160.222 174.145 160.384 174.005 160.677 173.752 C 161.486 173.054 163.17 171.6 163.644 168.437 C 163.66 168.334 163.748 168.258 163.86 168.278 C 163.963 168.294 164.034 168.39 164.019 168.494 C 163.524 171.795 161.769 173.312 160.925 174.04 C 160.761 174.181 160.575 174.342 160.549 174.4 C 160.528 174.485 160.452 174.54 160.368 174.54 Z" stroke-linecap="round"/>
</g>
		<g transform="matrix(1 0 0 1 44.2382 45.0417)">
<path style="stroke: none; stroke-width: 1; stroke-dasharray: none; stroke-linecap: butt; stroke-dashoffset: 0; stroke-linejoin: miter; stroke-miterlimit: 4; is-custom-font: none; font-file-url: none; fill: rgb(132,137,152); fill-rule: nonzero; opacity: 1;" transform=" translate(-169.2381, -170.0416)" d="M 170.023 174.327 C 170.013 174.327 170.004 174.326 169.994 174.325 C 169.891 174.308 169.819 174.212 169.835 174.108 C 169.842 174.06 170.529 169.314 168.189 166.057 C 168.128 165.972 168.147 165.853 168.233 165.792 C 168.316 165.731 168.436 165.75 168.497 165.835 C 170.929 169.22 170.241 173.965 170.21 174.165 C 170.196 174.259 170.115 174.327 170.023 174.327 Z" stroke-linecap="round"/>
</g>
		<g transform="matrix(1 0 0 1 18.151 25.5614)">
<path style="stroke: none; stroke-width: 1; stroke-dasharray: none; stroke-linecap: butt; stroke-dashoffset: 0; stroke-linejoin: miter; stroke-miterlimit: 4; is-custom-font: none; font-file-url: none; fill: rgb(132,137,152); fill-rule: nonzero; opacity: 1;" transform=" translate(-143.151, -150.5614)" d="M 143.991 151.224 C 143.93 151.224 143.869 151.195 143.832 151.139 C 143.723 150.973 142.918 150.556 142.237 150.264 C 142.14 150.222 142.095 150.11 142.137 150.014 C 142.177 149.918 142.289 149.873 142.386 149.914 C 142.64 150.023 143.919 150.584 144.149 150.928 C 144.207 151.016 144.183 151.133 144.096 151.192 C 144.063 151.213 144.027 151.224 143.991 151.224 Z" stroke-linecap="round"/>
</g>
		<g transform="matrix(1 0 0 1 16.6692 12.2696)">
<path style="stroke: none; stroke-width: 1; stroke-dasharray: none; stroke-linecap: butt; stroke-dashoffset: 0; stroke-linejoin: miter; stroke-miterlimit: 4; is-custom-font: none; font-file-url: none; fill: rgb(132,137,152); fill-rule: nonzero; opacity: 1;" transform=" translate(-141.6692, -137.2696)" d="M 139.994 142.493 C 138.595 142.493 137.283 141.707 136.393 140.655 C 135.072 139.094 136.835 136.411 136.852 136.384 C 136.911 136.297 137.029 136.274 137.116 136.331 C 137.203 136.39 137.226 136.508 137.168 136.595 C 136.712 137.277 135.738 139.293 136.683 140.41 C 137.596 141.49 139.723 142.94 141.893 141.528 C 143.787 140.297 146.577 138.005 147.054 137.61 C 147.029 136.989 146.718 133.446 142.893 132.42 C 142.791 132.393 142.731 132.289 142.758 132.187 C 142.785 132.086 142.886 132.025 142.991 132.053 C 147.385 133.232 147.436 137.653 147.436 137.697 C 147.436 137.754 147.41 137.807 147.367 137.843 C 147.336 137.869 144.185 140.491 142.1 141.847 C 141.405 142.299 140.688 142.493 139.994 142.493 Z" stroke-linecap="round"/>
</g>
		<g transform="matrix(1 0 0 1 -4.2886 -1.3457)">
<path style="stroke: none; stroke-width: 1; stroke-dasharray: none; stroke-linecap: butt; stroke-dashoffset: 0; stroke-linejoin: miter; stroke-miterlimit: 4; is-custom-font: none; font-file-url: none; fill: rgb(132,137,152); fill-rule: nonzero; opacity: 1;" transform=" translate(-120.7114, -123.6542)" d="M 121.016 128.39 C 119.932 128.39 118.737 127.384 117.925 126.539 C 116.568 125.127 116.661 123.92 116.666 123.869 C 116.675 123.766 116.758 123.694 116.871 123.697 C 116.976 123.707 117.053 123.799 117.044 123.903 C 117.042 123.927 116.978 125.007 118.198 126.276 C 119.274 127.394 120.274 128.01 121.016 128.01 C 121.018 128.01 121.019 128.01 121.02 128.01 C 121.352 128.009 121.626 127.888 121.861 127.642 C 122.705 126.752 123.988 125.038 124.33 124.575 C 123.673 123.762 120.706 120.042 120.654 119.119 C 120.648 119.014 120.728 118.925 120.833 118.919 C 120.941 118.911 121.027 118.994 121.033 119.098 C 121.069 119.742 123.311 122.722 124.718 124.45 C 124.772 124.517 124.774 124.612 124.723 124.682 C 124.659 124.77 123.13 126.856 122.136 127.903 C 121.83 128.225 121.456 128.388 121.021 128.39 C 121.02 128.39 121.018 128.39 121.016 128.39 Z" stroke-linecap="round"/>
</g>
		<g transform="matrix(1 0 0 1 2.1549 13.2215)">
<path style="stroke: none; stroke-width: 1; stroke-dasharray: none; stroke-linecap: butt; stroke-dashoffset: 0; stroke-linejoin: miter; stroke-miterlimit: 4; is-custom-font: none; font-file-url: none; fill: rgb(132,137,152); fill-rule: nonzero; opacity: 1;" transform=" translate(-127.1549, -138.2215)" d="M 126.46 142.192 C 126.43 142.192 126.4 142.185 126.371 142.17 C 126.279 142.121 126.243 142.006 126.293 141.914 C 126.311 141.879 128.144 138.35 127.532 134.471 C 127.516 134.367 127.587 134.27 127.69 134.254 C 127.799 134.235 127.891 134.308 127.907 134.412 C 128.539 138.42 126.706 141.943 126.628 142.091 C 126.594 142.156 126.528 142.192 126.46 142.192 Z" stroke-linecap="round"/>
</g>
		<g transform="matrix(1 0 0 1 30.1948 -12.7165)">
<path style="stroke: none; stroke-width: 1; stroke-dasharray: none; stroke-linecap: butt; stroke-dashoffset: 0; stroke-linejoin: miter; stroke-miterlimit: 4; is-custom-font: none; font-file-url: none; fill: rgb(132,137,152); fill-rule: nonzero; opacity: 1;" transform=" translate(-155.1948, -112.2834)" d="M 153.384 113.891 C 153.299 113.891 153.221 113.834 153.2 113.748 C 153.175 113.646 153.236 113.543 153.338 113.517 C 155.141 113.066 156.836 110.777 156.853 110.754 C 156.914 110.668 157.032 110.651 157.118 110.713 C 157.202 110.775 157.22 110.894 157.159 110.978 C 157.086 111.077 155.365 113.401 153.43 113.885 C 153.415 113.889 153.399 113.891 153.384 113.891 Z" stroke-linecap="round"/>
</g>
		<g transform="matrix(1 0 0 1 60.7445 30.5525)">
<path style="stroke: none; stroke-width: 1; stroke-dasharray: none; stroke-linecap: butt; stroke-dashoffset: 0; stroke-linejoin: miter; stroke-miterlimit: 4; is-custom-font: none; font-file-url: none; fill: rgb(132,137,152); fill-rule: nonzero; opacity: 1;" transform=" translate(-185.7445, -155.5526)" d="M 191.335 156.579 C 191.308 156.579 191.282 156.574 191.256 156.562 C 191.187 156.531 184.364 153.478 180.247 155.768 C 180.155 155.818 180.039 155.786 179.989 155.694 C 179.938 155.602 179.971 155.487 180.062 155.436 C 184.35 153.054 191.127 156.087 191.414 156.217 C 191.509 156.26 191.55 156.372 191.507 156.468 C 191.475 156.538 191.407 156.579 191.335 156.579 Z" stroke-linecap="round"/>
</g>
		<g transform="matrix(1 0 0 1 74.753 58.4839)">
<path style="stroke: none; stroke-width: 1; stroke-dasharray: none; stroke-linecap: butt; stroke-dashoffset: 0; stroke-linejoin: miter; stroke-miterlimit: 4; is-custom-font: none; font-file-url: none; fill: rgb(132,137,152); fill-rule: nonzero; opacity: 1;" transform=" translate(-199.753, -183.4838)" d="M 191.228 192.39 C 191.136 192.39 191.056 192.324 191.041 192.231 C 191.024 192.128 191.093 192.03 191.196 192.013 C 209.683 188.93 208.064 174.933 208.046 174.792 C 208.032 174.688 208.105 174.593 208.209 174.579 C 208.313 174.567 208.408 174.639 208.422 174.742 C 208.441 174.887 210.117 189.243 191.259 192.387 C 191.248 192.388 191.238 192.39 191.228 192.39 Z" stroke-linecap="round"/>
</g>
		<g transform="matrix(1 0 0 1 3.1896 -18.1428)">
<path style="stroke: none; stroke-width: 1; stroke-dasharray: none; stroke-linecap: butt; stroke-dashoffset: 0; stroke-linejoin: miter; stroke-miterlimit: 4; is-custom-font: none; font-file-url: none; fill: rgb(132,137,152); fill-rule: nonzero; opacity: 1;" transform=" translate(-128.1896, -106.8573)" d="M 83.6056 66.8637 L 162.182 147.658 L 173.009 139.635 L 101.662 65.96 L 83.6056 66.8637 Z M 162.148 148.391 C 162.066 148.391 161.984 148.358 161.923 148.295 L 82.6684 66.8031 C 82.5817 66.7146 82.5557 66.5837 82.6011 66.4679 C 82.646 66.3528 82.7544 66.2752 82.8786 66.2691 L 101.773 65.3237 C 101.865 65.3206 101.952 65.354 102.015 65.4188 L 173.711 139.455 C 173.774 139.521 173.807 139.61 173.799 139.701 C 173.792 139.79 173.745 139.873 173.673 139.928 L 162.336 148.329 C 162.28 148.37 162.214 148.391 162.148 148.391 Z" stroke-linecap="round"/>
</g>
		<g transform="matrix(1 0 0 1 -84.5958 45.1545)">
<path style="stroke: none; stroke-width: 1; stroke-dasharray: none; stroke-linecap: butt; stroke-dashoffset: 0; stroke-linejoin: miter; stroke-miterlimit: 4; is-custom-font: none; font-file-url: none; fill: rgb(255,103,103); fill-rule: nonzero; opacity: 1;" transform=" translate(-40.4042, -170.1545)" d="M 36.1296 174.429 L 38.4203 165.88 L 39.7427 170.816 L 44.6788 172.139 L 36.1296 174.429 Z" stroke-linecap="round"/>
</g>
		<g transform="matrix(1 0 0 1 -52.1301 12.3535)">
<path style="stroke: rgb(255,103,103); stroke-width: 1; stroke-dasharray: 2 2; stroke-linecap: butt; stroke-dashoffset: 0; stroke-linejoin: miter; stroke-miterlimit: 4; is-custom-font: none; font-file-url: none; fill: none; fill-rule: nonzero; opacity: 1;" transform=" translate(-72.8699, -137.3535)" d="M 104.316 104.784 L 41.4238 169.923" stroke-linecap="round"/>
</g>
		<g transform="matrix(1 0 0 1 73 -83)">
<rect style="stroke: none; stroke-width: 1; stroke-dasharray: none; stroke-linecap: butt; stroke-dashoffset: 0; stroke-linejoin: miter; stroke-miterlimit: 4; is-custom-font: none; font-file-url: none; fill: rgb(54,54,152); fill-rule: nonzero; opacity: 1;" x="-52" y="-15" rx="7" ry="7" width="104" height="30"/>
</g>
		<g transform="matrix(1 0 0 1 73.1105 -81.2087)">
<path style="stroke: none; stroke-width: 1; stroke-dasharray: none; stroke-linecap: butt; stroke-dashoffset: 0; stroke-linejoin: miter; stroke-miterlimit: 4; is-custom-font: none; font-file-url: none; fill: rgb(255,255,255); fill-rule: nonzero; opacity: 1;" transform=" translate(-198.1105, -43.7912)" d="M 163.979 47 H 162.709 L 159.326 42.4995 L 158.355 43.3628 V 47 H 157.276 V 37.7197 H 158.355 V 42.3218 L 162.563 37.7197 H 163.839 L 160.107 41.7505 L 163.979 47 Z M 168.042 47.127 C 167.013 47.127 166.201 46.8138 165.604 46.1875 C 165.012 45.5612 164.715 44.6916 164.715 43.5786 C 164.715 42.4572 164.99 41.5664 165.541 40.9062 C 166.095 40.2461 166.838 39.916 167.769 39.916 C 168.64 39.916 169.33 40.2038 169.838 40.7793 C 170.346 41.3506 170.6 42.106 170.6 43.0454 V 43.7119 H 165.807 C 165.828 44.5286 166.034 45.1486 166.423 45.5718 C 166.816 45.995 167.369 46.2065 168.08 46.2065 C 168.829 46.2065 169.569 46.05 170.301 45.7368 V 46.6763 C 169.929 46.8371 169.576 46.9513 169.241 47.019 C 168.911 47.091 168.511 47.127 168.042 47.127 Z M 167.756 40.7983 C 167.197 40.7983 166.751 40.9803 166.417 41.3442 C 166.086 41.7082 165.892 42.2118 165.833 42.855 H 169.47 C 169.47 42.1906 169.322 41.6828 169.025 41.3315 C 168.729 40.9761 168.306 40.7983 167.756 40.7983 Z M 175.341 47.127 C 174.313 47.127 173.5 46.8138 172.904 46.1875 C 172.311 45.5612 172.015 44.6916 172.015 43.5786 C 172.015 42.4572 172.29 41.5664 172.84 40.9062 C 173.395 40.2461 174.137 39.916 175.068 39.916 C 175.94 39.916 176.63 40.2038 177.138 40.7793 C 177.646 41.3506 177.899 42.106 177.899 43.0454 V 43.7119 H 173.107 C 173.128 44.5286 173.333 45.1486 173.723 45.5718 C 174.116 45.995 174.668 46.2065 175.379 46.2065 C 176.128 46.2065 176.869 46.05 177.601 45.7368 V 46.6763 C 177.229 46.8371 176.875 46.9513 176.541 47.019 C 176.211 47.091 175.811 47.127 175.341 47.127 Z M 175.056 40.7983 C 174.497 40.7983 174.051 40.9803 173.716 41.3442 C 173.386 41.7082 173.192 42.2118 173.132 42.855 H 176.77 C 176.77 42.1906 176.621 41.6828 176.325 41.3315 C 176.029 40.9761 175.606 40.7983 175.056 40.7983 Z M 182.939 47.127 C 182.487 47.127 182.072 47.0444 181.695 46.8794 C 181.323 46.7101 181.01 46.452 180.756 46.105 H 180.68 C 180.73 46.5112 180.756 46.8963 180.756 47.2603 V 50.123 H 179.702 V 40.043 H 180.559 L 180.705 40.9951 H 180.756 C 181.027 40.6143 181.342 40.3392 181.702 40.1699 C 182.061 40.0007 182.474 39.916 182.939 39.916 C 183.862 39.916 184.573 40.2313 185.072 40.8618 C 185.576 41.4924 185.828 42.3768 185.828 43.5151 C 185.828 44.6577 185.572 45.5464 185.06 46.1812 C 184.552 46.8117 183.845 47.127 182.939 47.127 Z M 182.787 40.811 C 182.076 40.811 181.562 41.0078 181.245 41.4014 C 180.927 41.7949 180.764 42.4212 180.756 43.2803 V 43.5151 C 180.756 44.4927 180.919 45.193 181.245 45.6162 C 181.57 46.0352 182.093 46.2446 182.812 46.2446 C 183.413 46.2446 183.883 46.0013 184.222 45.5146 C 184.564 45.028 184.736 44.3573 184.736 43.5024 C 184.736 42.6349 184.564 41.9705 184.222 41.5093 C 183.883 41.0438 183.405 40.811 182.787 40.811 Z M 192.105 47 H 191.052 V 40.043 H 192.105 V 47 Z M 190.963 38.1577 C 190.963 37.9165 191.022 37.7409 191.141 37.6309 C 191.259 37.5166 191.407 37.4595 191.585 37.4595 C 191.754 37.4595 191.9 37.5166 192.023 37.6309 C 192.146 37.7451 192.207 37.9207 192.207 38.1577 C 192.207 38.3947 192.146 38.5724 192.023 38.6909 C 191.9 38.8052 191.754 38.8623 191.585 38.8623 C 191.407 38.8623 191.259 38.8052 191.141 38.6909 C 191.022 38.5724 190.963 38.3947 190.963 38.1577 Z M 199.101 47 V 42.4995 C 199.101 41.9325 198.972 41.5093 198.713 41.23 C 198.455 40.9507 198.051 40.811 197.501 40.811 C 196.773 40.811 196.24 41.0078 195.901 41.4014 C 195.563 41.7949 195.394 42.4445 195.394 43.3501 V 47 H 194.34 V 40.043 H 195.197 L 195.368 40.9951 H 195.419 C 195.635 40.6523 195.937 40.3879 196.327 40.2017 C 196.716 40.0112 197.15 39.916 197.628 39.916 C 198.466 39.916 199.096 40.1191 199.52 40.5254 C 199.943 40.9274 200.154 41.5728 200.154 42.4614 V 47 H 199.101 Z M 206.94 47 H 205.861 V 37.7197 H 211.034 V 38.6782 H 206.94 V 42.0742 H 210.787 V 43.0327 H 206.94 V 47 Z M 218.423 43.5151 C 218.423 44.6493 218.137 45.5358 217.566 46.1748 C 216.995 46.8096 216.205 47.127 215.198 47.127 C 214.576 47.127 214.024 46.981 213.542 46.689 C 213.059 46.397 212.687 45.978 212.424 45.4321 C 212.162 44.8862 212.031 44.2472 212.031 43.5151 C 212.031 42.381 212.314 41.4987 212.881 40.8682 C 213.448 40.2334 214.236 39.916 215.243 39.916 C 216.216 39.916 216.988 40.2397 217.56 40.8872 C 218.135 41.5347 218.423 42.4106 218.423 43.5151 Z M 213.123 43.5151 C 213.123 44.4038 213.3 45.0809 213.656 45.5464 C 214.011 46.0119 214.534 46.2446 215.224 46.2446 C 215.913 46.2446 216.436 46.014 216.792 45.5527 C 217.151 45.0872 217.331 44.408 217.331 43.5151 C 217.331 42.6307 217.151 41.96 216.792 41.5029 C 216.436 41.0417 215.909 40.811 215.211 40.811 C 214.521 40.811 214.001 41.0374 213.649 41.4902 C 213.298 41.943 213.123 42.618 213.123 43.5151 Z M 223.057 47.127 C 222.049 47.127 221.269 46.818 220.714 46.2002 C 220.164 45.5781 219.889 44.7 219.889 43.5659 C 219.889 42.4022 220.168 41.5029 220.727 40.8682 C 221.29 40.2334 222.09 39.916 223.126 39.916 C 223.461 39.916 223.795 39.952 224.129 40.0239 C 224.464 40.0959 224.726 40.1805 224.917 40.2778 L 224.593 41.1729 C 224.36 41.0798 224.106 41.0036 223.831 40.9443 C 223.556 40.8809 223.313 40.8491 223.101 40.8491 C 221.688 40.8491 220.981 41.7505 220.981 43.5532 C 220.981 44.408 221.152 45.064 221.495 45.521 C 221.842 45.978 222.354 46.2065 223.031 46.2065 C 223.611 46.2065 224.206 46.0817 224.815 45.832 V 46.7651 C 224.349 47.0063 223.763 47.127 223.057 47.127 Z M 227.462 40.043 V 44.5562 C 227.462 45.1232 227.591 45.5464 227.849 45.8257 C 228.107 46.105 228.511 46.2446 229.062 46.2446 C 229.789 46.2446 230.32 46.0457 230.655 45.6479 C 230.993 45.2502 231.163 44.6006 231.163 43.6992 V 40.043 H 232.216 V 47 H 231.347 L 231.194 46.0669 H 231.137 C 230.921 46.4097 230.621 46.672 230.236 46.854 C 229.855 47.036 229.419 47.127 228.928 47.127 C 228.082 47.127 227.447 46.9259 227.024 46.5239 C 226.605 46.1219 226.396 45.4787 226.396 44.5942 V 40.043 H 227.462 Z M 238.945 45.1021 C 238.945 45.7495 238.704 46.2489 238.221 46.6001 C 237.739 46.9513 237.062 47.127 236.19 47.127 C 235.267 47.127 234.548 46.981 234.032 46.689 V 45.7114 C 234.366 45.8807 234.724 46.014 235.104 46.1113 C 235.49 46.2087 235.86 46.2573 236.215 46.2573 C 236.765 46.2573 237.189 46.1706 237.485 45.9971 C 237.781 45.8193 237.929 45.5506 237.929 45.1909 C 237.929 44.9201 237.811 44.6895 237.574 44.499 C 237.341 44.3044 236.884 44.0758 236.203 43.8135 C 235.555 43.5723 235.094 43.3628 234.819 43.1851 C 234.548 43.0031 234.345 42.7979 234.209 42.5693 C 234.078 42.3408 234.013 42.0679 234.013 41.7505 C 234.013 41.1834 234.243 40.737 234.705 40.4111 C 235.166 40.0811 235.799 39.916 236.603 39.916 C 237.352 39.916 238.084 40.0684 238.799 40.373 L 238.424 41.23 C 237.726 40.9422 237.093 40.7983 236.526 40.7983 C 236.027 40.7983 235.65 40.8766 235.396 41.0332 C 235.143 41.1898 235.016 41.4056 235.016 41.6807 C 235.016 41.8669 235.062 42.0256 235.155 42.1567 C 235.253 42.2879 235.407 42.4128 235.619 42.5312 C 235.83 42.6497 236.236 42.8211 236.837 43.0454 C 237.663 43.3459 238.219 43.6484 238.507 43.9531 C 238.799 44.2578 238.945 44.6408 238.945 45.1021 Z" stroke-linecap="round"/>
</g>
</g>
</g>
</svg>