<svg id="SvgjsSvg1011" width="288" height="288" xmlns="http://www.w3.org/2000/svg" version="1.1" xmlns:xlink="http://www.w3.org/1999/xlink" xmlns:svgjs="http://svgjs.com/svgjs"><defs id="SvgjsDefs1012"></defs><g id="SvgjsG1013"><svg xmlns="http://www.w3.org/2000/svg" viewBox="0 0 24 24" width="288" height="288"><path d="M8.71,7.71,11,5.41V15a1,1,0,0,0,2,0V5.41l2.29,2.3a1,1,0,0,0,1.42,0,1,1,0,0,0,0-1.42l-4-4a1,1,0,0,0-.33-.21,1,1,0,0,0-.76,0,1,1,0,0,0-.33.21l-4,4A1,1,0,1,0,8.71,7.71ZM21,12a1,1,0,0,0-1,1v6a1,1,0,0,1-1,1H5a1,1,0,0,1-1-1V13a1,1,0,0,0-2,0v6a3,3,0,0,0,3,3H19a3,3,0,0,0,3-3V13A1,1,0,0,0,21,12Z" fill="#ffffff" class="color000 svgShape"></path></svg></g></svg>